SplineFontDB: 3.2
FontName: SeriousShannsItalic
FullName: Serious Shanns Italic
FamilyName: Serious Shanns Italic
Weight: Book
Copyright: https://github.com/kaBeech/serious-shanns/blob/main/LICENSE
Version: 6.0.0
ItalicAngle: -12.7
UnderlinePosition: 0
UnderlineWidth: 0
Ascent: 800
Descent: 200
InvalidEm: 0
sfntRevision: 0x00003333
LayerCount: 2
Layer: 0 0 "Back" 1
Layer: 1 0 "Fore" 0
XUID: [1021 45 630387186 1984481]
StyleMap: 0x0040
FSType: 4
OS2Version: 3
OS2_WeightWidthSlopeOnly: 0
OS2_UseTypoMetrics: 0
CreationTime: 1532631502
ModificationTime: 315532800
PfmFamily: 81
TTFWeight: 400
TTFWidth: 5
LineGap: 0
VLineGap: 0
Panose: 0 0 0 0 0 0 0 0 0 0
OS2TypoAscent: 613
OS2TypoAOffset: 0
OS2TypoDescent: -188
OS2TypoDOffset: 0
OS2TypoLinegap: 98
OS2WinAscent: 778
OS2WinAOffset: 0
OS2WinDescent: 308
OS2WinDOffset: 0
HheadAscent: 796
HheadAOffset: 0
HheadDescent: -317
HheadDOffset: 0
OS2SubXSize: 317
OS2SubYSize: 293
OS2SubXOff: 0
OS2SubYOff: 37
OS2SupXSize: 317
OS2SupYSize: 293
OS2SupXOff: 0
OS2SupYOff: 171
OS2StrikeYSize: 0
OS2StrikeYPos: 132
OS2CapHeight: 576
OS2XHeight: 485
OS2Vendor: 'NONE'
OS2CodePages: 00000001.00000000
OS2UnicodeRanges: 00000001.00000000.00000000.00000000
MarkAttachClasses: 1
DEI: 91125
LangName: 1033 "" "" "Normal" "" "" "Version 0.2.0"
Encoding: UnicodeBmp
Compacted: 1
UnicodeInterp: none
NameList: AGL For New Fonts
DisplaySize: -48
AntiAlias: 1
FitToEm: 0
WinInfo: 0 16 14
BeginPrivate: 8
BlueValues 32 [-40 -6 497 511 708 718 765 769]
OtherBlues 11 [-298 -287]
BlueScale 9 0.0291667
BlueShift 1 2
StdHW 4 [86]
StdVW 4 [58]
StemSnapH 19 [82 85 86 89 90 94]
StemSnapV 7 [58 68]
EndPrivate
BeginChars: 65537 123

StartChar: .notdef
Encoding: 65536 -1 0
Width: 590
GlyphClass: 1
Flags: W
HStem: -268 54<94.6992 392.699> 695 54<304.699 602.699>
LayerCount: 2
Fore
SplineSet
32.69921875 -268 m 1
 266.69921875 749 l 1
 665.69921875 749 l 1
 430.69921875 -268 l 1
 32.69921875 -268 l 1
94.69921875 -214 m 1
 392.69921875 -214 l 1
 602.69921875 695 l 1
 304.69921875 695 l 1
 94.69921875 -214 l 1
EndSplineSet
Validated: 524289
EndChar

StartChar: exclam
Encoding: 33 33 12
Width: 590
GlyphClass: 2
Flags: HMW
HStem: -24.001 152.997
VStem: 231.783 151
LayerCount: 2
Fore
SplineSet
518.786132812 738 m 0
 517.453125 732 506.116210938 688.166015625 484.783203125 606.499023438 c 0
 463.450195312 524.83203125 447.450195312 458.33203125 436.783203125 406.999023438 c 0
 426.116210938 356.999023438 419.116210938 327.166015625 415.783203125 317.499023438 c 0
 412.450195312 307.83203125 408.450195312 292.33203125 403.783203125 270.999023438 c 0
 399.116210938 256.33203125 391.116210938 244.83203125 379.783203125 236.499023438 c 0
 369.290039062 228.783203125 358.225585938 224.92578125 346.588867188 224.92578125 c 0
 345.657226562 224.92578125 344.721679688 224.950195312 343.783203125 225 c 0
 331.116210938 225 321.783203125 229.333007812 315.783203125 238 c 0
 312.606445312 242.587890625 311.018554688 248.297851562 311.018554688 255.127929688 c 0
 311.018554688 261.200195312 312.2734375 268.157226562 314.783203125 276.000976562 c 0
 318.116210938 286.000976562 321.616210938 295.66796875 325.283203125 305.000976562 c 0
 328.950195312 314.333984375 331.783203125 322.166992188 333.783203125 328.5 c 0
 335.783203125 334.833007812 339.616210938 349.833007812 345.283203125 373.5 c 0
 350.950195312 397.166992188 357.450195312 427.666992188 364.783203125 465 c 0
 369.450195312 491 375.1171875 518.5 381.784179688 547.5 c 0
 388.451171875 576.5 394.284179688 600.666992188 399.284179688 620 c 0
 404.284179688 639.333007812 409.951171875 661.333007812 416.284179688 686 c 0
 422.6171875 710.666992188 426.784179688 727 428.784179688 735 c 0
 433.451171875 753 441.118164062 766.666992188 451.78515625 776 c 0
 462.452148438 785.333007812 474.119140625 790 486.786132812 790 c 0
 487.739257812 790.047851562 488.672851562 790.071289062 489.587890625 790.071289062 c 0
 501.482421875 790.071289062 510.21484375 786.047851562 515.786132812 778 c 0
 519.385742188 772.799804688 521.186523438 765.919921875 521.186523438 757.360351562 c 0
 521.186523438 751.653320312 520.385742188 745.200195312 518.786132812 738 c 0
290.782226562 -24.0009765625 m 0
 287.447265625 -24.3818359375 284.2421875 -24.572265625 281.166015625 -24.572265625 c 0
 262.719726562 -24.572265625 248.926757812 -17.7177734375 239.784179688 -4.0048828125 c 0
 232.672851562 6.662109375 229.1171875 18.810546875 229.1171875 32.4404296875 c 0
 229.1171875 39.2548828125 230.005859375 46.439453125 231.783203125 53.9951171875 c 0
 236.450195312 73.9951171875 248.450195312 91.328125 267.783203125 105.995117188 c 0
 287.116210938 120.662109375 306.783203125 128.329101562 326.783203125 128.99609375 c 0
 327.76171875 129.025390625 328.727539062 129.041015625 329.682617188 129.041015625 c 0
 350.194335938 129.041015625 365.227539062 122.192382812 374.783203125 108.497070312 c 0
 381.6015625 98.724609375 385.010742188 87.3251953125 385.010742188 74.298828125 c 0
 385.010742188 68.2197265625 384.268554688 61.7861328125 382.783203125 54.998046875 c 0
 378.116210938 33.6650390625 367.44921875 15.83203125 350.782226562 1.4990234375 c 0
 334.115234375 -12.833984375 314.115234375 -21.333984375 290.782226562 -24.0009765625 c 0
EndSplineSet
Validated: 524289
EndChar

StartChar: quotedbl
Encoding: 34 34 13
Width: 590
GlyphClass: 2
Flags: HMW
VStem: 279.302 306.002
LayerCount: 2
Fore
SplineSet
436.306640625 738 m 0
 430.306640625 710.666992188 419.471679688 665.830078125 403.8046875 603.497070312 c 0
 388.137695312 541.1640625 376.3046875 498.331054688 368.3046875 474.998046875 c 0
 363.637695312 461.665039062 355.970703125 451.665039062 345.303710938 444.998046875 c 0
 335.606445312 438.9375 326.185546875 435.907226562 317.040039062 435.907226562 c 0
 316.125 435.907226562 315.212890625 435.9375 314.303710938 435.998046875 c 0
 301.63671875 436.665039062 291.469726562 440.83203125 283.802734375 448.499023438 c 0
 279.037109375 453.264648438 276.654296875 459.25390625 276.654296875 466.466796875 c 0
 276.654296875 470.857421875 277.537109375 475.701171875 279.302734375 480.999023438 c 0
 289.302734375 514.999023438 300.135742188 558.666015625 311.802734375 611.999023438 c 0
 323.469726562 665.33203125 332.63671875 709.33203125 339.303710938 743.999023438 c 0
 340.63671875 751.999023438 343.63671875 758.83203125 348.303710938 764.499023438 c 0
 352.970703125 770.166015625 358.303710938 774.333007812 364.303710938 777 c 0
 370.303710938 779.666992188 376.303710938 781.5 382.303710938 782.5 c 0
 388.303710938 783.5 394.303710938 783.666992188 400.303710938 783 c 0
 405.63671875 783 410.63671875 782.333007812 415.303710938 781 c 0
 419.970703125 779.666992188 424.137695312 777.5 427.8046875 774.5 c 0
 431.471679688 771.5 434.138671875 766.833007812 435.805664062 760.5 c 0
 437.47265625 754.166992188 437.639648438 746.666992188 436.306640625 738 c 0
585.3046875 737.99609375 m 0
 579.971679688 710.663085938 569.473632812 665.826171875 553.806640625 603.493164062 c 0
 538.139648438 541.16015625 525.97265625 498.327148438 517.305664062 474.994140625 c 0
 512.638671875 461.661132812 504.971679688 451.661132812 494.3046875 444.994140625 c 0
 484.607421875 438.93359375 475.186523438 435.903320312 466.041015625 435.903320312 c 0
 465.125976562 435.903320312 464.213867188 435.93359375 463.3046875 435.994140625 c 0
 451.3046875 436.661132812 441.3046875 440.828125 433.3046875 448.495117188 c 0
 428.504882812 453.095703125 426.104492188 458.834960938 426.104492188 465.71484375 c 0
 426.104492188 470.301757812 427.171875 475.395507812 429.3046875 480.995117188 c 0
 439.3046875 514.995117188 449.971679688 558.662109375 461.3046875 611.995117188 c 0
 472.637695312 665.328125 481.637695312 709.328125 488.3046875 743.995117188 c 0
 489.637695312 751.995117188 492.637695312 758.828125 497.3046875 764.495117188 c 0
 501.971679688 770.162109375 507.471679688 774.329101562 513.8046875 776.99609375 c 0
 520.137695312 779.663085938 526.137695312 781.49609375 531.8046875 782.49609375 c 0
 537.471679688 783.49609375 543.3046875 783.663085938 549.3046875 782.99609375 c 0
 555.3046875 782.99609375 560.471679688 782.329101562 564.8046875 780.99609375 c 0
 569.137695312 779.663085938 573.3046875 777.49609375 577.3046875 774.49609375 c 0
 581.3046875 771.49609375 584.137695312 766.829101562 585.8046875 760.49609375 c 0
 587.471679688 754.163085938 587.3046875 746.663085938 585.3046875 737.99609375 c 0
EndSplineSet
Validated: 524289
EndChar

StartChar: numbersign
Encoding: 35 35 14
Width: 590
GlyphClass: 2
Flags: HMW
HStem: 192 82<498.114 517.115 465.115 536.114> 445 84<365.108 505.113 399.113 472.108 399.113 598.114 399.113 564.114>
LayerCount: 2
Fore
SplineSet
196.115234375 42 m 0
 188.115234375 28 176.44140625 16.5 161.108398438 7.5 c 0
 150.493164062 1.26953125 140.99609375 -1.845703125 132.6171875 -1.845703125 c 0
 128.893554688 -1.845703125 125.390625 -1.23046875 122.108398438 0 c 0
 111.44140625 2.6669921875 104.94140625 11.1669921875 102.608398438 25.5 c 0
 102.11328125 28.5400390625 101.866210938 31.6474609375 101.866210938 34.822265625 c 0
 101.866210938 46.6162109375 105.280273438 59.341796875 112.109375 72.9990234375 c 0
 121.442382812 90.9990234375 139.109375 129.666015625 165.109375 188.999023438 c 1
 137.109375 188.999023438 l 2
 121.776367188 188.999023438 110.776367188 192.33203125 104.109375 198.999023438 c 0
 97.4423828125 205.666015625 95.4423828125 214.666015625 98.109375 225.999023438 c 0
 100.109375 237.999023438 105.776367188 247.999023438 115.109375 255.999023438 c 0
 124.442382812 263.999023438 137.109375 268.666015625 153.109375 269.999023438 c 0
 157.776367188 269.999023438 165.276367188 270.166015625 175.609375 270.499023438 c 0
 185.942382812 270.83203125 193.775390625 270.999023438 199.108398438 270.999023438 c 1
 271.108398438 443.999023438 l 1
 265.775390625 443.999023438 258.775390625 443.83203125 250.108398438 443.499023438 c 0
 241.44140625 443.166015625 235.44140625 442.999023438 232.108398438 442.999023438 c 0
 230.880859375 442.9453125 229.682617188 442.918945312 228.513671875 442.918945312 c 0
 215.0703125 442.918945312 205.435546875 446.4453125 199.609375 453.499023438 c 0
 193.276367188 461.166015625 191.443359375 470.666015625 194.110351562 481.999023438 c 0
 196.110351562 493.999023438 201.943359375 504.166015625 211.610351562 512.499023438 c 0
 221.27734375 520.83203125 234.444335938 525.33203125 251.111328125 525.999023438 c 0
 263.111328125 526.666015625 281.111328125 526.999023438 305.111328125 526.999023438 c 1
 346.444335938 627.666015625 367.444335938 679.666015625 368.111328125 682.999023438 c 0
 376.778320312 699.666015625 387.111328125 711.333007812 399.111328125 718 c 0
 407.111328125 722.4453125 414.815429688 724.666992188 422.223632812 724.666992188 c 0
 425.926757812 724.666992188 429.555664062 724.112304688 433.111328125 723.000976562 c 0
 445.778320312 720.333984375 454.4453125 713.666992188 459.112304688 703 c 0
 460.927734375 698.8515625 461.834960938 694.19921875 461.834960938 689.041992188 c 0
 461.834960938 680.939453125 459.594726562 671.591796875 455.11328125 661 c 2
 399.11328125 529 l 1
 505.11328125 529 l 1
 563.11328125 675 l 2
 571.780273438 692.333007812 582.11328125 704.333007812 594.11328125 711 c 0
 602.11328125 715.4453125 609.965820312 717.666992188 617.669921875 717.666992188 c 0
 621.521484375 717.666992188 625.3359375 717.112304688 629.11328125 716.000976562 c 0
 642.446289062 713.333984375 651.446289062 706.666992188 656.11328125 696 c 0
 657.747070312 692.266601562 658.563476562 688.125 658.563476562 683.57421875 c 0
 658.563476562 675.124023438 655.747070312 665.266601562 650.11328125 654 c 0
 636.780273438 626 619.780273438 585 599.11328125 531 c 1
 609.11328125 531 l 2
 623.780273438 531 635.280273438 526.5 643.61328125 517.5 c 0
 650.333984375 510.2421875 653.694335938 502.658203125 653.694335938 494.75 c 0
 653.694335938 492.852539062 653.5 490.935546875 653.11328125 489 c 0
 650.446289062 477 644.446289062 466.833007812 635.11328125 458.5 c 0
 625.780273438 450.166992188 613.447265625 445.666992188 598.114257812 445 c 2
 564.114257812 445 l 1
 498.114257812 274 l 1
 536.114257812 274 l 2
 550.78125 274 559.948242188 270.5 563.615234375 263.5 c 0
 567.282226562 256.5 568.115234375 247.333007812 566.115234375 236 c 0
 559.448242188 206.666992188 543.115234375 192 517.115234375 192 c 2
 465.115234375 192 l 1
 435.115234375 116 414.115234375 64.6669921875 402.115234375 38 c 0
 393.448242188 24 382.115234375 13.1669921875 368.115234375 5.5 c 0
 358.915039062 0.4619140625 350.291015625 -2.0576171875 342.243164062 -2.0576171875 c 0
 338.043945312 -2.0576171875 334.000976562 -1.37109375 330.115234375 0 c 0
 319.448242188 2.6669921875 312.615234375 10.5 309.615234375 23.5 c 0
 308.84375 26.8427734375 308.458007812 30.3076171875 308.458007812 33.892578125 c 0
 308.458007812 44.25 311.676757812 55.619140625 318.115234375 68 c 0
 330.782226562 94.6669921875 348.115234375 135.666992188 370.115234375 191 c 1
 357.448242188 191 338.615234375 190.833007812 313.615234375 190.5 c 0
 288.615234375 190.166992188 270.448242188 190 259.115234375 190 c 1
 229.115234375 118 208.115234375 68.6669921875 196.115234375 42 c 0
365.108398438 445 m 1
 294.109375 273.999023438 l 1
 319.442382812 274.666015625 355.775390625 274.999023438 403.108398438 274.999023438 c 1
 425.775390625 329.666015625 448.775390625 386.333007812 472.108398438 445 c 1
 365.108398438 445 l 1
EndSplineSet
Validated: 524289
EndChar

StartChar: dollar
Encoding: 36 36 15
Width: 590
GlyphClass: 2
Flags: HMW
HStem: -28.9932 84.9932<231.539 268.538 242.539 268.538> 642.998 79.002
VStem: 227.539 82.999 487.04 93.998
LayerCount: 2
Fore
SplineSet
310.538085938 -99 m 0
 305.87109375 -113.666992188 297.872070312 -124.993164062 286.5390625 -132.993164062 c 0
 275.206054688 -140.993164062 263.206054688 -144.993164062 250.5390625 -144.993164062 c 0
 239.206054688 -144.993164062 231.5390625 -140.493164062 227.5390625 -131.493164062 c 0
 225.939453125 -127.893554688 225.138671875 -123.6796875 225.138671875 -118.853515625 c 0
 225.138671875 -111.61328125 226.939453125 -102.993164062 230.5390625 -92.9931640625 c 0
 235.206054688 -76.9931640625 240.5390625 -55.66015625 246.5390625 -28.9931640625 c 1
 242.5390625 -28.9931640625 l 2
 220.5390625 -28.9931640625 200.5390625 -25.9931640625 182.5390625 -19.9931640625 c 0
 164.5390625 -13.9931640625 149.5390625 -5.9931640625 137.5390625 4.0068359375 c 0
 125.5390625 14.0068359375 115.872070312 24.673828125 108.5390625 36.0068359375 c 0
 101.206054688 47.33984375 95.5390625 59.6728515625 91.5390625 73.005859375 c 0
 90.2568359375 79.9287109375 89.6162109375 86.3583984375 89.6162109375 92.2958984375 c 0
 89.6162109375 101.794921875 91.2568359375 110.03125 94.5390625 117.005859375 c 0
 99.8720703125 128.338867188 108.205078125 136.671875 119.538085938 142.004882812 c 0
 127.538085938 145.337890625 134.038085938 147.670898438 139.038085938 149.00390625 c 0
 144.038085938 150.336914062 149.038085938 150.669921875 154.038085938 150.002929688 c 0
 159.038085938 149.3359375 163.538085938 146.668945312 167.538085938 142.001953125 c 0
 171.538085938 137.334960938 175.538085938 130.66796875 179.538085938 122.000976562 c 0
 187.538085938 101.333984375 198.038085938 85.1669921875 211.038085938 73.5 c 0
 224.038085938 61.8330078125 242.538085938 56 266.538085938 56 c 2
 268.538085938 56 l 1
 295.87109375 167.333007812 319.204101562 266.666015625 338.537109375 353.999023438 c 1
 335.204101562 353.999023438 330.037109375 354.666015625 323.037109375 355.999023438 c 0
 316.037109375 357.33203125 310.537109375 357.999023438 306.537109375 357.999023438 c 0
 285.204101562 360.666015625 266.537109375 366.999023438 250.537109375 376.999023438 c 0
 234.537109375 386.999023438 222.537109375 399.166015625 214.537109375 413.499023438 c 0
 206.537109375 427.83203125 201.204101562 442.83203125 198.537109375 458.499023438 c 0
 197.470703125 464.765625 196.936523438 471.05859375 196.936523438 477.37890625 c 0
 196.936523438 486.859375 198.13671875 496.399414062 200.537109375 505.999023438 c 0
 205.870117188 529.999023438 214.537109375 552.999023438 226.537109375 574.999023438 c 0
 238.537109375 596.999023438 253.704101562 617.499023438 272.037109375 636.499023438 c 0
 290.370117188 655.499023438 312.537109375 671.83203125 338.537109375 685.499023438 c 0
 364.537109375 699.166015625 392.537109375 708.666015625 422.537109375 713.999023438 c 1
 427.204101562 729.999023438 432.537109375 749.33203125 438.537109375 771.999023438 c 0
 447.870117188 808.666015625 464.537109375 826.999023438 488.537109375 826.999023438 c 0
 489.055664062 827.01171875 489.568359375 827.017578125 490.075195312 827.017578125 c 0
 510.827148438 827.017578125 521.204101562 816.641601562 521.204101562 795.888671875 c 0
 521.204101562 789.814453125 520.314453125 782.8515625 518.537109375 775 c 2
 505.537109375 722 l 1
 519.537109375 721.333007812 538.037109375 718 561.037109375 712 c 0
 584.037109375 706 600.870117188 700.333007812 611.537109375 695 c 0
 622.204101562 690.333007812 629.037109375 683 632.037109375 673 c 0
 633.2109375 669.086914062 633.797851562 665.071289062 633.797851562 660.954101562 c 0
 633.797851562 654.549804688 632.377929688 647.8984375 629.537109375 641 c 0
 626.870117188 633 623.037109375 626.833007812 618.037109375 622.5 c 0
 613.037109375 618.166992188 607.537109375 615.5 601.537109375 614.5 c 0
 595.537109375 613.5 589.870117188 613.333007812 584.537109375 614 c 0
 579.204101562 614.666992188 574.204101562 615.666992188 569.537109375 617 c 0
 564.204101562 618.333007812 557.704101562 621.166015625 550.037109375 625.499023438 c 0
 542.370117188 629.83203125 533.537109375 633.665039062 523.537109375 636.998046875 c 0
 513.537109375 640.331054688 501.204101562 642.331054688 486.537109375 642.998046875 c 1
 473.204101562 589.665039062 455.87109375 518.998046875 434.538085938 430.998046875 c 1
 461.87109375 426.998046875 485.538085938 419.831054688 505.538085938 409.498046875 c 0
 525.538085938 399.165039062 540.705078125 387.33203125 551.038085938 373.999023438 c 0
 561.37109375 360.666015625 569.038085938 345.333007812 574.038085938 328 c 0
 578.725585938 311.749023438 581.069335938 295.791992188 581.069335938 280.126953125 c 0
 581.069335938 266.818359375 579.493164062 247.967773438 573.538085938 225 c 0
 566.205078125 194.333007812 554.705078125 165.333007812 539.038085938 138 c 0
 523.37109375 110.666992188 504.538085938 87 482.538085938 67 c 0
 460.538085938 47 436.37109375 29.6669921875 410.038085938 15 c 0
 383.705078125 0.3330078125 356.205078125 -10.6669921875 327.538085938 -18 c 1
 318.205078125 -58 312.538085938 -85 310.538085938 -99 c 0
292.5390625 531.006835938 m 0
 291.206054688 524.911132812 290.5390625 519.034179688 290.5390625 513.374023438 c 0
 290.5390625 499.224609375 294.706054688 486.435546875 303.0390625 475.006835938 c 0
 314.706054688 459.006835938 333.206054688 447.673828125 358.5390625 441.006835938 c 1
 369.872070312 487.006835938 385.205078125 551.006835938 404.538085938 633.006835938 c 1
 375.87109375 624.33984375 351.37109375 611.33984375 331.038085938 594.006835938 c 0
 310.705078125 576.673828125 297.872070312 555.673828125 292.5390625 531.006835938 c 0
483.5390625 208.006835938 m 0
 485.91015625 219.267578125 487.095703125 229.73828125 487.095703125 239.418945312 c 0
 487.095703125 252.064453125 484.829101562 263.998046875 480.540039062 276.508789062 c 0
 476.540039062 288.17578125 468.70703125 299.008789062 457.040039062 309.008789062 c 0
 445.373046875 319.008789062 430.206054688 327.67578125 411.5390625 335.008789062 c 1
 404.206054688 305.67578125 393.5390625 261.508789062 379.5390625 202.508789062 c 0
 365.5390625 143.508789062 355.206054688 100.67578125 348.5390625 74.0087890625 c 1
 381.872070312 87.341796875 411.0390625 105.674804688 436.0390625 129.0078125 c 0
 461.0390625 152.340820312 476.872070312 178.673828125 483.5390625 208.006835938 c 0
EndSplineSet
Validated: 524289
EndChar

StartChar: percent
Encoding: 37 37 16
Width: 590
GlyphClass: 2
Flags: HMW
HStem: -28.001 76 170.999 74<461.087 474.087> 432 75<249.42 295.087> 632 73<318.753 322.753>
LayerCount: 2
Fore
SplineSet
260.419921875 432 m 0
 238.419921875 432 220.420898438 438.5 206.420898438 451.5 c 0
 192.420898438 464.5 183.587890625 480.833007812 179.920898438 500.5 c 0
 178.426757812 508.513671875 177.6796875 516.775390625 177.6796875 525.286132812 c 0
 177.6796875 537.665039062 179.259765625 550.569335938 182.419921875 564.000976562 c 0
 191.752929688 605.333984375 210.252929688 639.166992188 237.919921875 665.5 c 0
 265.586914062 691.833007812 299.086914062 705 338.419921875 705 c 0
 353.752929688 705 367.419921875 702.166992188 379.419921875 696.5 c 0
 391.419921875 690.833007812 401.419921875 682.333007812 409.419921875 671 c 0
 417.419921875 659.666992188 421.919921875 644.166992188 422.919921875 624.5 c 0
 423.040039062 622.139648438 423.099609375 619.734375 423.099609375 617.283203125 c 0
 423.099609375 599.307617188 419.873046875 578.879882812 413.419921875 556 c 0
 402.086914062 515.333007812 384.086914062 484.5 359.419921875 463.5 c 0
 334.752929688 442.5 301.752929688 432 260.419921875 432 c 0
80.4208984375 19 m 0
 99.75390625 47.6669921875 144.419921875 107.833984375 214.419921875 199.500976562 c 0
 284.419921875 291.16796875 354.586914062 383.66796875 424.919921875 477.000976562 c 0
 495.252929688 570.333984375 543.419921875 637.000976562 569.419921875 677.000976562 c 0
 579.419921875 689.000976562 590.752929688 696.500976562 603.419921875 699.500976562 c 0
 607.3515625 700.431640625 611.122070312 700.897460938 614.732421875 700.897460938 c 0
 622.75390625 700.897460938 629.983398438 698.598632812 636.419921875 694.000976562 c 0
 646.419921875 688.66796875 650.919921875 680.834960938 649.919921875 670.501953125 c 0
 648.919921875 660.168945312 642.752929688 647.668945312 631.419921875 633.001953125 c 0
 598.752929688 592.334960938 519.919921875 488.66796875 394.919921875 322.000976562 c 0
 269.919921875 155.333984375 186.419921875 42.6669921875 144.419921875 -16 c 0
 127.189453125 -39.630859375 111.049804688 -51.4462890625 96 -51.4462890625 c 0
 90.669921875 -51.4462890625 85.4775390625 -49.9638671875 80.4208984375 -47 c 0
 69.4208984375 -40.666015625 63.9208984375 -32 63.9208984375 -21 c 0
 63.9208984375 -10 69.4208984375 3.333984375 80.4208984375 19 c 0
287.419921875 507 m 0
 302.752929688 507 315.75390625 512.33203125 326.420898438 522.999023438 c 0
 337.087890625 533.666015625 345.087890625 547.999023438 350.420898438 565.999023438 c 0
 353.262695312 576.736328125 354.684570312 586.126953125 354.684570312 594.171875 c 0
 354.684570312 603.109375 352.9296875 610.385742188 349.420898438 616 c 0
 342.75390625 626.666992188 331.086914062 632 314.419921875 632 c 0
 299.752929688 632 286.919921875 626.166992188 275.919921875 614.5 c 0
 264.919921875 602.833007812 256.419921875 587 250.419921875 567 c 0
 248.0859375 557.666015625 246.919921875 549.416015625 246.919921875 542.25 c 0
 246.919921875 535.083007812 248.0859375 529 250.419921875 524 c 0
 255.086914062 514 267.419921875 508.333007812 287.419921875 507 c 0
403.420898438 -28.0009765625 m 0
 381.420898438 -28.0009765625 363.419921875 -21.5009765625 349.419921875 -8.5009765625 c 0
 335.419921875 4.4990234375 326.586914062 20.83203125 322.919921875 40.4990234375 c 0
 321.42578125 48.5126953125 320.678710938 56.7744140625 320.678710938 65.28515625 c 0
 320.678710938 77.6640625 322.258789062 90.568359375 325.418945312 104 c 0
 334.751953125 145.333007812 353.251953125 179.166015625 380.918945312 205.499023438 c 0
 408.5859375 231.83203125 441.752929688 244.999023438 480.419921875 244.999023438 c 0
 495.752929688 244.999023438 509.5859375 242.33203125 521.918945312 236.999023438 c 0
 534.251953125 231.666015625 544.418945312 223.166015625 552.418945312 211.499023438 c 0
 560.418945312 199.83203125 564.918945312 184.165039062 565.918945312 164.498046875 c 0
 566.030273438 162.3125 566.0859375 160.088867188 566.0859375 157.825195312 c 0
 566.0859375 139.717773438 562.530273438 119.109375 555.418945312 95.998046875 c 0
 544.0859375 55.3310546875 526.252929688 24.3310546875 501.919921875 2.998046875 c 0
 478.32421875 -17.6884765625 446.737304688 -28.03125 407.157226562 -28.03125 c 0
 405.918945312 -28.03125 404.673828125 -28.021484375 403.420898438 -28.0009765625 c 0
430.419921875 47.9990234375 m 0
 431.258789062 47.9609375 432.08984375 47.94140625 432.916015625 47.94140625 c 0
 446.528320312 47.94140625 458.36328125 53.1279296875 468.420898438 63.4990234375 c 0
 479.087890625 74.4990234375 487.087890625 88.666015625 492.420898438 105.999023438 c 0
 495.172851562 116.522460938 496.548828125 125.768554688 496.548828125 133.736328125 c 0
 496.548828125 158.578125 483.172851562 170.999023438 456.420898438 170.999023438 c 0
 441.75390625 170.999023438 429.086914062 165.166015625 418.419921875 153.499023438 c 0
 407.752929688 141.83203125 399.419921875 126.33203125 393.419921875 106.999023438 c 0
 391.166992188 98.3095703125 390.040039062 90.513671875 390.040039062 83.6103515625 c 0
 390.040039062 76.2138671875 391.333984375 69.84375 393.919921875 64.4990234375 c 0
 398.919921875 54.166015625 411.086914062 48.666015625 430.419921875 47.9990234375 c 0
EndSplineSet
Validated: 524289
EndChar

StartChar: ampersand
Encoding: 38 38 17
Width: 590
GlyphClass: 2
Flags: HMW
HStem: -41.998 93.998<214.054 257.718> 645.001 79<438.72 439.053>
VStem: 431.389 89.9971 518.386 83.5<297 297>
LayerCount: 2
Fore
SplineSet
496.385742188 -35 m 0xe0
 489.868164062 -38.5849609375 483.469726562 -40.376953125 477.19140625 -40.376953125 c 0
 470.626953125 -40.376953125 464.192382812 -38.4169921875 457.887695312 -34.498046875 c 0
 445.5546875 -26.8310546875 436.721679688 -13.6640625 431.388671875 5.0029296875 c 0xe0
 430.721679688 8.3359375 429.221679688 18.3359375 426.888671875 35.0029296875 c 0
 424.555664062 51.669921875 422.388671875 63.669921875 420.388671875 71.0029296875 c 1
 418.388671875 68.3359375 413.388671875 62.6689453125 405.388671875 54.001953125 c 0
 397.388671875 45.3349609375 391.388671875 39.001953125 387.388671875 35.001953125 c 0
 383.388671875 31.001953125 376.888671875 25.001953125 367.888671875 17.001953125 c 0
 358.888671875 9.001953125 351.388671875 2.8349609375 345.388671875 -1.498046875 c 0
 339.388671875 -5.8310546875 331.555664062 -10.998046875 321.888671875 -16.998046875 c 0
 312.221679688 -22.998046875 303.0546875 -27.498046875 294.387695312 -30.498046875 c 0
 285.720703125 -33.498046875 275.887695312 -36.1650390625 264.887695312 -38.498046875 c 0
 253.887695312 -40.8310546875 242.720703125 -41.998046875 231.387695312 -41.998046875 c 0
 196.720703125 -41.998046875 167.053710938 -32.3310546875 142.38671875 -12.998046875 c 0
 117.719726562 6.3349609375 101.052734375 31.66796875 92.3857421875 63.0009765625 c 0
 87.87890625 79.2939453125 85.6259765625 96.30859375 85.6259765625 114.04296875 c 0
 85.6259765625 130.415039062 87.5458984375 147.400390625 91.3857421875 165.000976562 c 0
 120.052734375 291.000976562 188.385742188 376.66796875 296.385742188 422.000976562 c 1
 293.052734375 432.000976562 288.885742188 444.000976562 283.885742188 458.000976562 c 0
 278.885742188 472.000976562 275.385742188 481.833984375 273.385742188 487.500976562 c 0
 271.385742188 493.16796875 269.21875 500.500976562 266.885742188 509.500976562 c 0
 264.552734375 518.500976562 263.385742188 526.333984375 263.385742188 533.000976562 c 0
 263.385742188 539.66796875 263.885742188 547.834960938 264.885742188 557.501953125 c 0
 265.885742188 567.168945312 267.71875 577.668945312 270.385742188 589.001953125 c 0
 273.052734375 601.001953125 277.219726562 612.834960938 282.88671875 624.501953125 c 0
 288.553710938 636.168945312 296.38671875 648.168945312 306.38671875 660.501953125 c 0
 316.38671875 672.834960938 327.88671875 683.66796875 340.88671875 693.000976562 c 0
 353.88671875 702.333984375 369.88671875 709.833984375 388.88671875 715.500976562 c 0
 407.88671875 721.16796875 428.053710938 724.000976562 449.38671875 724.000976562 c 0
 467.38671875 724.000976562 484.38671875 721.000976562 500.38671875 715.000976562 c 0
 516.38671875 709.000976562 530.219726562 700.16796875 541.88671875 688.500976562 c 0
 553.553710938 676.833984375 561.38671875 661.500976562 565.38671875 642.500976562 c 0
 567.100585938 634.358398438 567.958007812 625.817382812 567.958007812 616.87890625 c 0
 567.958007812 604.9609375 566.434570312 592.333984375 563.38671875 579.000976562 c 0
 558.719726562 557.66796875 551.552734375 537.834960938 541.885742188 519.501953125 c 0
 532.21875 501.168945312 522.21875 485.8359375 511.885742188 473.502929688 c 0
 501.552734375 461.169921875 489.052734375 449.336914062 474.385742188 438.00390625 c 0
 459.71875 426.670898438 446.71875 417.670898438 435.385742188 411.00390625 c 0
 424.052734375 404.336914062 411.052734375 397.669921875 396.385742188 391.002929688 c 1
 403.052734375 370.3359375 415.052734375 339.668945312 432.385742188 299.001953125 c 0
 449.71875 258.334960938 460.71875 231.334960938 465.385742188 218.001953125 c 1
 471.385742188 227.334960938 478.385742188 238.16796875 486.385742188 250.500976562 c 0
 494.385742188 262.833984375 501.052734375 272.833984375 506.385742188 280.500976562 c 0
 511.71875 288.16796875 515.71875 293.66796875 518.385742188 297.000976562 c 0
 533.052734375 314.333984375 545.885742188 325.166992188 556.885742188 329.5 c 0
 561.21875 331.20703125 565.525390625 332.060546875 569.806640625 332.060546875 c 0
 576.39453125 332.060546875 582.920898438 330.040039062 589.385742188 325.999023438 c 0
 597.815429688 321.181640625 602.03125 312.694335938 602.03125 300.534179688 c 0
 602.03125 288.635742188 598.213867188 271.743164062 582.385742188 248 c 0
 577.71875 242 565.385742188 228.666992188 545.385742188 208 c 0
 525.385742188 187.333007812 508.052734375 168.333007812 493.385742188 151 c 1
 497.385742188 138.333007812 503.052734375 120.166015625 510.385742188 96.4990234375 c 0
 517.71875 72.83203125 521.71875 58.9990234375 522.385742188 54.9990234375 c 0
 524.895507812 47.4697265625 526.150390625 39.5712890625 526.150390625 31.302734375 c 0
 526.150390625 22.001953125 524.5625 12.234375 521.385742188 1.9990234375 c 0
 515.385742188 -17.333984375 507.052734375 -29.6669921875 496.385742188 -35 c 0xe0
354.38671875 572.000976562 m 0
 352.385742188 563.665039062 351.385742188 554.913085938 351.385742188 545.744140625 c 0
 351.385742188 536.579101562 352.385742188 526.999023438 354.384765625 517.000976562 c 0
 358.384765625 497.000976562 364.717773438 479.333984375 373.384765625 464.000976562 c 1
 388.051757812 468.66796875 400.71875 473.500976562 411.385742188 478.500976562 c 0
 422.052734375 483.500976562 432.552734375 490.000976562 442.885742188 498.000976562 c 0
 453.21875 506.000976562 461.71875 515.833984375 468.385742188 527.500976562 c 0
 475.052734375 539.16796875 480.052734375 553.000976562 483.385742188 569.000976562 c 0
 485.462890625 577.5390625 486.500976562 585.37890625 486.500976562 592.51953125 c 0
 486.500976562 606.006835938 482.795898438 617.000976562 475.385742188 625.500976562 c 0
 464.052734375 638.500976562 448.719726562 645.000976562 429.38671875 645.000976562 c 0
 390.719726562 645.000976562 365.719726562 620.66796875 354.38671875 572.000976562 c 0
186.384765625 174.000976562 m 0
 183.237304688 160.361328125 181.663085938 147.59765625 181.663085938 135.711914062 c 0
 181.663085938 117.389648438 185.403320312 101.15234375 192.883789062 87 c 0
 205.216796875 63.6669921875 225.383789062 52 253.383789062 52 c 0
 262.05078125 52 270.717773438 53 279.384765625 55 c 0
 288.051757812 57 295.71875 59 302.385742188 61 c 0
 309.052734375 63 316.052734375 66.3330078125 323.385742188 71 c 0
 330.71875 75.6669921875 336.551757812 79.5 340.884765625 82.5 c 0
 345.217773438 85.5 350.717773438 90.1669921875 357.384765625 96.5 c 0
 364.051757812 102.833007812 368.71875 107.333007812 371.385742188 110 c 0
 374.052734375 112.666992188 378.385742188 117.5 384.385742188 124.5 c 0
 390.385742188 131.5 394.052734375 135.666992188 395.385742188 137 c 0
 390.71875 163 386.051757812 183.333007812 381.384765625 198 c 0
 377.384765625 213.333007812 368.217773438 238.333007812 353.884765625 273 c 0
 339.551757812 307.666992188 329.384765625 333.333984375 323.384765625 350.000976562 c 1
 302.717773438 341.333984375 284.384765625 330.500976562 268.384765625 317.500976562 c 0
 252.384765625 304.500976562 239.051757812 290.16796875 228.384765625 274.500976562 c 0
 217.717773438 258.833984375 209.217773438 243.000976562 202.884765625 227.000976562 c 0
 196.551757812 211.000976562 191.051757812 193.333984375 186.384765625 174.000976562 c 0
EndSplineSet
Validated: 524289
EndChar

StartChar: quotesingle
Encoding: 39 39 18
Width: 590
GlyphClass: 2
Flags: HMW
HStem: 446.001 325.499
VStem: 356.464 152
LayerCount: 2
Fore
SplineSet
508.463867188 728 m 0
 503.130859375 701.333007812 493.465820312 660.16796875 479.465820312 604.500976562 c 0
 465.465820312 548.833984375 454.1328125 509.333984375 445.465820312 486.000976562 c 0
 440.798828125 472.000976562 433.131835938 461.66796875 422.46484375 455.000976562 c 0
 412.767578125 448.940429688 403.346679688 445.91015625 394.201171875 445.91015625 c 0
 393.286132812 445.91015625 392.374023438 445.940429688 391.46484375 446.000976562 c 0
 378.797851562 446.66796875 368.630859375 451.000976562 360.963867188 459.000976562 c 0
 356.198242188 463.973632812 353.815429688 470.106445312 353.815429688 477.397460938 c 0
 353.815429688 481.8359375 354.698242188 486.703125 356.463867188 492.000976562 c 0
 366.463867188 526.66796875 376.463867188 566.66796875 386.463867188 612.000976562 c 0
 396.463867188 657.333984375 404.796875 697.666992188 411.463867188 733 c 0
 412.796875 741 415.796875 748 420.463867188 754 c 0
 425.130859375 760 430.630859375 764.166992188 436.963867188 766.5 c 0
 443.296875 768.833007812 449.296875 770.5 454.963867188 771.5 c 0
 460.630859375 772.5 466.463867188 772.666992188 472.463867188 772 c 0
 477.796875 772 482.796875 771.333007812 487.463867188 770 c 0
 492.130859375 768.666992188 496.463867188 766.5 500.463867188 763.5 c 0
 504.463867188 760.5 507.130859375 756 508.463867188 750 c 0
 509.796875 744 509.796875 736.666992188 508.463867188 728 c 0
EndSplineSet
Validated: 524289
EndChar

StartChar: parenleft
Encoding: 40 40 19
Width: 590
GlyphClass: 2
Flags: HMW
HStem: -130.998 83.998<341.371 388.04> 733.002 81<553.04 593.706>
LayerCount: 2
Fore
SplineSet
408.040039062 -93 m 0
 405.373046875 -103.666992188 399.205078125 -112.665039062 389.538085938 -119.998046875 c 0
 379.87109375 -127.331054688 370.704101562 -130.998046875 362.037109375 -130.998046875 c 0
 320.704101562 -130.998046875 286.87109375 -114.998046875 260.538085938 -82.998046875 c 0
 234.205078125 -50.998046875 217.038085938 -6.6650390625 209.038085938 50.001953125 c 0
 205.482421875 75.1875 203.705078125 102.083984375 203.705078125 130.693359375 c 0
 203.705078125 166.455078125 206.482421875 204.890625 212.038085938 246.001953125 c 0
 218.705078125 294.668945312 234.372070312 358.001953125 259.0390625 436.001953125 c 0
 283.706054688 514.001953125 310.706054688 578.334960938 340.0390625 629.001953125 c 0
 353.372070312 651.001953125 369.0390625 672.834960938 387.0390625 694.501953125 c 0
 405.0390625 716.168945312 424.706054688 736.001953125 446.0390625 754.001953125 c 0
 467.372070312 772.001953125 490.0390625 786.501953125 514.0390625 797.501953125 c 0
 538.0390625 808.501953125 560.372070312 814.001953125 581.0390625 814.001953125 c 0
 601.521484375 814.001953125 611.762695312 805.068359375 611.762695312 787.200195312 c 0
 611.762695312 782.96875 611.1875 778.236328125 610.0390625 773.001953125 c 0
 606.706054688 759.001953125 600.373046875 748.834960938 591.040039062 742.501953125 c 0
 581.70703125 736.168945312 571.70703125 733.001953125 561.040039062 733.001953125 c 0
 545.040039062 733.001953125 528.873046875 728.001953125 512.540039062 718.001953125 c 0
 496.20703125 708.001953125 480.70703125 694.334960938 466.040039062 677.001953125 c 0
 451.373046875 659.668945312 437.873046875 640.668945312 425.540039062 620.001953125 c 0
 413.20703125 599.334960938 401.70703125 577.001953125 391.040039062 553.001953125 c 0
 375.040039062 518.334960938 358.540039062 470.66796875 341.540039062 410.000976562 c 0
 324.540039062 349.333984375 313.040039062 300.000976562 307.040039062 262.000976562 c 0
 302.130859375 228.727539062 299.676757812 196.235351562 299.676757812 164.5234375 c 0
 299.676757812 157.477539062 299.797851562 150.469726562 300.040039062 143.500976562 c 0
 301.373046875 105.16796875 305.540039062 72.16796875 312.540039062 44.5009765625 c 0
 319.540039062 16.833984375 329.20703125 -5.3330078125 341.540039062 -22 c 0
 353.873046875 -38.6669921875 367.373046875 -47 382.040039062 -47 c 0
 394.040039062 -47 402.373046875 -50.3330078125 407.040039062 -57 c 0
 409.552734375 -60.58984375 410.809570312 -65.7255859375 410.809570312 -72.408203125 c 0
 410.809570312 -78.1357421875 409.88671875 -85 408.040039062 -93 c 0
EndSplineSet
Validated: 524289
EndChar

StartChar: parenright
Encoding: 41 41 20
Width: 590
GlyphClass: 2
Flags: HMW
HStem: -131.005 84<176.675 183.676> 732.998 81.002<358.344 390.677>
VStem: 451.01 86.001
LayerCount: 2
Fore
SplineSet
487.01171875 246 m 0
 463.01171875 172 434.008789062 106.662109375 400.008789062 49.9951171875 c 0
 366.008789062 -6.671875 328.341796875 -51.0048828125 287.008789062 -83.0048828125 c 0
 245.67578125 -115.004882812 204.342773438 -131.004882812 163.009765625 -131.004882812 c 0
 154.342773438 -131.004882812 146.67578125 -127.337890625 140.008789062 -120.004882812 c 0
 133.341796875 -112.671875 131.341796875 -103.671875 134.008789062 -93.0048828125 c 0
 138.008789062 -75.671875 144.008789062 -63.671875 152.008789062 -57.0048828125 c 0
 160.008789062 -50.337890625 170.341796875 -47.0048828125 183.008789062 -47.0048828125 c 0
 197.67578125 -47.0048828125 214.842773438 -38.671875 234.509765625 -22.0048828125 c 0
 254.176757812 -5.337890625 274.009765625 16.8291015625 294.009765625 44.49609375 c 0
 314.009765625 72.1630859375 333.676757812 105.330078125 353.009765625 143.997070312 c 0
 372.342773438 182.6640625 388.009765625 221.997070312 400.009765625 261.997070312 c 0
 412.009765625 299.997070312 423.342773438 349.330078125 434.009765625 409.997070312 c 0
 444.676757812 470.6640625 450.34375 518.331054688 451.010742188 552.998046875 c 0
 451.010742188 576.998046875 449.510742188 599.331054688 446.510742188 619.998046875 c 0
 443.510742188 640.665039062 438.84375 659.665039062 432.510742188 676.998046875 c 0
 426.177734375 694.331054688 417.177734375 707.998046875 405.510742188 717.998046875 c 0
 393.84375 727.998046875 380.010742188 732.998046875 364.010742188 732.998046875 c 0
 352.677734375 732.998046875 344.010742188 736.165039062 338.010742188 742.498046875 c 0
 333.856445312 746.8828125 331.780273438 753.104492188 331.780273438 761.1640625 c 0
 331.780273438 764.745117188 332.190429688 768.690429688 333.010742188 772.998046875 c 0
 335.010742188 781.665039062 338.010742188 788.83203125 342.010742188 794.499023438 c 0
 346.010742188 800.166015625 350.34375 804.333007812 355.010742188 807 c 0
 359.677734375 809.666992188 364.010742188 811.5 368.010742188 812.5 c 0
 372.010742188 813.5 376.010742188 814 380.010742188 814 c 0
 401.34375 814 421.34375 808.5 440.010742188 797.5 c 0
 458.677734375 786.5 474.510742188 772 487.510742188 754 c 0
 500.510742188 736 511.34375 716.166992188 520.010742188 694.5 c 0
 528.677734375 672.833007812 534.344726562 651 537.01171875 629 c 0
 539.049804688 611.791992188 540.068359375 593.0078125 540.068359375 572.647460938 c 0
 540.068359375 533.057617188 536.215820312 487.508789062 528.51171875 436 c 0
 516.844726562 358 503.01171875 294.666992188 487.01171875 246 c 0
EndSplineSet
Validated: 524289
EndChar

StartChar: asterisk
Encoding: 42 42 21
Width: 590
GlyphClass: 2
Flags: HMW
HStem: 292.998 103.999 305.999 77<431.193 475.193>
VStem: 280.192 86.001 380.193 86
LayerCount: 2
Fore
SplineSet
276.1953125 139 m 0x70
 272.1953125 131 266.693359375 124.999023438 259.693359375 120.999023438 c 0
 252.693359375 116.999023438 245.526367188 114.666015625 238.193359375 113.999023438 c 0
 230.860351562 113.33203125 224.193359375 113.83203125 218.193359375 115.499023438 c 0
 212.193359375 117.166015625 207.193359375 119.333007812 203.193359375 122 c 0
 198.526367188 125.333007812 194.859375 130.166015625 192.192382812 136.499023438 c 0
 189.525390625 142.83203125 188.692382812 150.665039062 189.692382812 159.998046875 c 0
 190.692382812 169.331054688 194.859375 178.998046875 202.192382812 188.998046875 c 2
 289.192382812 297.998046875 l 1
 237.192382812 294.665039062 199.192382812 292.998046875 175.192382812 292.998046875 c 0
 160.525390625 292.998046875 150.192382812 298.331054688 144.192382812 308.998046875 c 0
 140.038085938 316.3828125 137.961914062 324.086914062 137.961914062 332.110351562 c 0
 137.961914062 335.676757812 138.372070312 339.305664062 139.192382812 342.998046875 c 0
 139.859375 348.998046875 141.692382812 355.165039062 144.692382812 361.498046875 c 0
 147.692382812 367.831054688 151.525390625 373.831054688 156.192382812 379.498046875 c 0
 160.859375 385.165039062 166.859375 389.665039062 174.192382812 392.998046875 c 0
 181.525390625 396.331054688 188.858398438 397.6640625 196.19140625 396.997070312 c 0xb0
 224.19140625 394.330078125 265.524414062 390.997070312 320.19140625 386.997070312 c 1
 304.858398438 435.6640625 291.525390625 472.997070312 280.192382812 498.997070312 c 0
 277.525390625 506.6640625 276.192382812 514.247070312 276.192382812 521.747070312 c 0
 276.192382812 529.247070312 277.525390625 536.663085938 280.192382812 543.997070312 c 0
 285.525390625 558.6640625 293.525390625 568.331054688 304.192382812 572.998046875 c 0
 310.859375 576.998046875 318.359375 579.165039062 326.692382812 579.498046875 c 0
 335.025390625 579.831054688 343.025390625 577.331054688 350.692382812 571.998046875 c 0
 358.359375 566.665039062 363.526367188 558.665039062 366.193359375 547.998046875 c 0
 369.526367188 531.998046875 378.859375 493.665039062 394.192382812 432.998046875 c 1
 429.525390625 478.331054688 456.858398438 516.331054688 476.19140625 546.998046875 c 0
 482.858398438 557.665039062 491.025390625 565.665039062 500.692382812 570.998046875 c 0
 510.359375 576.331054688 519.026367188 578.831054688 526.693359375 578.498046875 c 0
 534.360351562 578.165039062 540.52734375 575.665039062 545.194335938 570.998046875 c 0
 550.52734375 567.665039062 554.360351562 562.33203125 556.693359375 554.999023438 c 0
 559.026367188 547.666015625 559.026367188 538.999023438 556.693359375 528.999023438 c 0
 554.360351562 518.999023438 549.193359375 509.33203125 541.193359375 499.999023438 c 0
 513.860351562 468.666015625 482.860351562 429.666015625 448.193359375 382.999023438 c 1
 502.193359375 382.999023438 541.526367188 386.666015625 566.193359375 393.999023438 c 0
 570.860351562 395.484375 575.172851562 396.2265625 579.130859375 396.2265625 c 0
 587.612304688 396.2265625 594.466796875 392.817382812 599.694335938 385.999023438 c 0
 605.775390625 378.068359375 608.815429688 369.717773438 608.815429688 360.948242188 c 0
 608.815429688 358.66015625 608.608398438 356.34375 608.194335938 353.999023438 c 0
 606.861328125 347.999023438 604.861328125 341.999023438 602.194335938 335.999023438 c 0
 599.52734375 329.999023438 596.02734375 323.999023438 591.694335938 317.999023438 c 0
 587.361328125 311.999023438 581.861328125 307.33203125 575.194335938 303.999023438 c 0
 568.52734375 300.666015625 561.860351562 299.999023438 555.193359375 301.999023438 c 0
 540.193359375 304.999023438 513.192382812 306.499023438 474.19140625 306.499023438 c 0
 461.192382812 306.499023438 446.859375 306.33203125 431.193359375 305.999023438 c 1
 467.193359375 189.999023438 l 2
 468.708007812 183.029296875 469.465820312 176.438476562 469.465820312 170.2265625 c 0
 469.465820312 162.771484375 468.375 155.862304688 466.193359375 149.499023438 c 0
 462.193359375 137.83203125 455.526367188 129.33203125 446.193359375 123.999023438 c 0
 439.526367188 119.999023438 431.193359375 117.666015625 421.193359375 116.999023438 c 0
 411.193359375 116.33203125 402.026367188 118.33203125 393.693359375 122.999023438 c 0
 385.360351562 127.666015625 380.860351562 135.333007812 380.193359375 146 c 0
 378.860351562 172.666992188 371.52734375 211 358.194335938 261 c 1
 314.861328125 199.666992188 287.528320312 159 276.1953125 139 c 0x70
EndSplineSet
Validated: 524289
EndChar

StartChar: plus
Encoding: 43 43 22
Width: 590
GlyphClass: 2
Flags: HMW
HStem: 356.998 84.001<328.99 355.322>
LayerCount: 2
Fore
SplineSet
386.323242188 250 m 0
 382.990234375 234.666992188 377.322265625 223.831054688 369.322265625 217.498046875 c 0
 361.322265625 211.165039062 351.989257812 207.998046875 341.322265625 207.998046875 c 0
 319.771484375 207.998046875 308.995117188 216.701171875 308.995117188 234.108398438 c 0
 308.995117188 238.778320312 309.771484375 244.075195312 311.322265625 249.998046875 c 2
 335.322265625 356.998046875 l 1
 322.655273438 356.998046875 305.822265625 356.831054688 284.822265625 356.498046875 c 0
 263.822265625 356.165039062 249.655273438 355.998046875 242.322265625 355.998046875 c 0
 226.989257812 355.998046875 216.489257812 360.165039062 210.822265625 368.498046875 c 0
 206.96875 374.1640625 205.041992188 380.678710938 205.041992188 388.041015625 c 0
 205.041992188 391.505859375 205.46875 395.158203125 206.322265625 398.998046875 c 0
 208.322265625 411.665039062 213.989257812 422.33203125 223.322265625 430.999023438 c 0
 231.98828125 439.046875 243.529296875 443.0703125 257.943359375 443.0703125 c 0
 259.052734375 443.0703125 260.178710938 443.046875 261.322265625 442.999023438 c 0
 304.655273438 441.666015625 335.98828125 440.999023438 355.321289062 440.999023438 c 1
 363.321289062 474.33203125 370.654296875 510.33203125 377.321289062 548.999023438 c 0
 382.654296875 577.666015625 399.321289062 591.999023438 427.321289062 591.999023438 c 0
 439.98828125 592.666015625 449.655273438 589.999023438 456.322265625 583.999023438 c 0
 460.244140625 580.469726562 462.205078125 575.094726562 462.205078125 567.875 c 0
 462.205078125 562.8203125 461.244140625 556.862304688 459.322265625 549.999023438 c 0
 447.989257812 511.33203125 438.322265625 474.33203125 430.322265625 438.999023438 c 1
 532.322265625 438.999023438 l 2
 546.989257812 438.999023438 556.322265625 435.666015625 560.322265625 428.999023438 c 0
 564.322265625 422.33203125 565.655273438 413.33203125 564.322265625 401.999023438 c 0
 562.989257812 395.999023438 561.15625 390.499023438 558.823242188 385.499023438 c 0
 556.490234375 380.499023438 553.323242188 375.666015625 549.323242188 370.999023438 c 0
 545.323242188 366.33203125 540.323242188 362.83203125 534.323242188 360.499023438 c 0
 528.323242188 358.166015625 521.65625 357.333007812 514.323242188 358 c 0
 504.723632812 359.200195312 488.524414062 359.799804688 465.724609375 359.799804688 c 0
 450.524414062 359.799804688 432.390625 359.533203125 411.323242188 359 c 1
 407.323242188 341 402.490234375 319.666992188 396.823242188 295 c 0
 391.15625 270.333007812 387.65625 255.333007812 386.323242188 250 c 0
EndSplineSet
Validated: 524289
EndChar

StartChar: comma
Encoding: 44 44 23
Width: 590
GlyphClass: 2
Flags: HMW
VStem: 158.421 254.999
LayerCount: 2
Fore
SplineSet
411.919921875 96 m 0
 397.919921875 63.3330078125 372.921875 12.9990234375 336.921875 -55.0009765625 c 0
 300.921875 -123.000976562 275.588867188 -165.000976562 260.921875 -181.000976562 c 0
 247.588867188 -195.000976562 232.588867188 -205.000976562 215.921875 -211.000976562 c 0
 205.921875 -214.600585938 197.361328125 -216.401367188 190.241210938 -216.401367188 c 0
 185.494140625 -216.401367188 181.387695312 -215.600585938 177.920898438 -214.000976562 c 0
 171.920898438 -212.000976562 166.920898438 -208.000976562 162.920898438 -202.000976562 c 0
 158.920898438 -196.000976562 157.420898438 -188.66796875 158.420898438 -180.000976562 c 0
 159.420898438 -171.333984375 163.920898438 -162.333984375 171.920898438 -153.000976562 c 0
 189.25390625 -133.000976562 217.086914062 -89.0009765625 255.419921875 -21.0009765625 c 0
 293.752929688 46.9990234375 318.5859375 94.33203125 329.918945312 120.999023438 c 0
 333.918945312 130.33203125 340.0859375 137.665039062 348.418945312 142.998046875 c 0
 356.751953125 148.331054688 364.751953125 150.998046875 372.418945312 150.998046875 c 0
 380.0859375 150.998046875 387.252929688 150.331054688 393.919921875 148.998046875 c 0
 402.586914062 145.665039062 409.086914062 139.33203125 413.419921875 129.999023438 c 0
 415.362304688 125.815429688 416.333007812 121.229492188 416.333007812 116.2421875 c 0
 416.333007812 110.103515625 414.862304688 103.356445312 411.919921875 96 c 0
EndSplineSet
Validated: 524289
EndChar

StartChar: hyphen
Encoding: 45 45 24
Width: 590
GlyphClass: 2
Flags: HMW
HStem: 243 87<250.842 256.51> 251 82<451.51 481.844>
VStem: 215.51 290.001
LayerCount: 2
Fore
SplineSet
264.508789062 330 m 0xa0
 299.841796875 330 342.010742188 330.5 391.010742188 331.5 c 0
 440.010742188 332.5 467.84375 333 474.510742188 333 c 0
 489.177734375 333 498.510742188 329.5 502.510742188 322.5 c 0
 506.510742188 315.5 507.510742188 306.333007812 505.510742188 295 c 0
 498.84375 265.666992188 482.176757812 251 455.509765625 251 c 0x60
 447.509765625 251 416.009765625 249.666992188 361.009765625 247 c 0
 306.009765625 244.333007812 267.509765625 243 245.509765625 243 c 0
 224.176757812 243 213.509765625 252.172851562 213.509765625 270.51953125 c 0
 213.509765625 275.106445312 214.176757812 280.266601562 215.509765625 286 c 0
 220.842773438 315.333007812 237.17578125 330 264.508789062 330 c 0xa0
EndSplineSet
Validated: 524289
EndChar

StartChar: period
Encoding: 46 46 25
Width: 590
GlyphClass: 2
Flags: HMW
HStem: -14 153.998
VStem: 234.035 151
LayerCount: 2
Fore
SplineSet
293.034179688 -14 m 0
 289.7578125 -14.3740234375 286.606445312 -14.5615234375 283.581054688 -14.5615234375 c 0
 265.052734375 -14.5615234375 251.205078125 -7.5439453125 242.036132812 6.49609375 c 0
 234.924804688 17.384765625 231.369140625 29.5341796875 231.369140625 42.94140625 c 0
 231.369140625 49.6455078125 232.2578125 56.6630859375 234.03515625 63.99609375 c 0
 238.702148438 84.6630859375 250.702148438 102.330078125 270.03515625 116.997070312 c 0
 289.368164062 131.6640625 309.03515625 139.331054688 329.03515625 139.998046875 c 0
 330.013671875 140.02734375 330.98046875 140.04296875 331.935546875 140.04296875 c 0
 352.4609375 140.04296875 367.661132812 133.194335938 377.53515625 119.499023438 c 0
 384.350585938 110.044921875 387.758789062 98.923828125 387.758789062 86.1337890625 c 0
 387.758789062 79.533203125 386.850585938 72.48828125 385.03515625 64.9990234375 c 0
 380.368164062 43.666015625 369.701171875 25.8330078125 353.034179688 11.5 c 0
 336.3671875 -2.8330078125 316.3671875 -11.3330078125 293.034179688 -14 c 0
EndSplineSet
Validated: 524289
EndChar

StartChar: slash
Encoding: 47 47 26
Width: 590
GlyphClass: 2
Flags: HMW
VStem: 56.5901 95
LayerCount: 2
Fore
SplineSet
673.58984375 676 m 0
 649.58984375 642 585.091796875 558.498046875 480.091796875 425.498046875 c 0
 375.091796875 292.498046875 310.924804688 209.998046875 287.591796875 177.998046875 c 0
 272.924804688 157.331054688 248.7578125 122.331054688 215.090820312 72.998046875 c 0
 181.423828125 23.6650390625 160.256835938 -6.3349609375 151.58984375 -17.001953125 c 0
 137.58984375 -35.6689453125 122.08984375 -48.6689453125 105.08984375 -56.001953125 c 0
 96.58984375 -59.66796875 88.96484375 -61.501953125 82.21484375 -61.501953125 c 0
 75.46484375 -61.501953125 69.58984375 -59.66796875 64.58984375 -56.001953125 c 0
 58.58984375 -52.001953125 55.58984375 -44.0654296875 55.58984375 -32.1904296875 c 0
 55.58984375 -28.232421875 55.9228515625 -23.8359375 56.58984375 -19.0029296875 c 0
 59.2568359375 0.330078125 67.2568359375 17.9970703125 80.58984375 33.9970703125 c 0
 208.58984375 193.997070312 318.922851562 336.330078125 411.58984375 460.997070312 c 0
 469.58984375 537.6640625 532.256835938 624.331054688 599.58984375 720.998046875 c 0
 606.922851562 731.665039062 615.58984375 739.83203125 625.58984375 745.499023438 c 0
 635.58984375 751.166015625 644.58984375 753.833007812 652.58984375 753.5 c 0
 660.58984375 753.166992188 668.256835938 751.333984375 675.58984375 748.000976562 c 0
 685.58984375 742.000976562 690.58984375 732.66796875 690.58984375 720.000976562 c 0
 690.58984375 707.333984375 684.922851562 692.666992188 673.58984375 676 c 0
EndSplineSet
Validated: 524289
EndChar

StartChar: zero
Encoding: 48 48 27
Width: 590
GlyphClass: 2
Flags: HMW
HStem: -24 83.999<265.937 277.269> 636.999 81.001<452.269 453.603>
LayerCount: 2
Fore
SplineSet
267.936523438 -24 m 0
 239.26953125 -24 213.770507812 -18.333984375 191.4375 -7.0009765625 c 0
 169.104492188 4.33203125 151.604492188 19.9990234375 138.9375 39.9990234375 c 0
 126.270507812 59.9990234375 118.4375 84.9990234375 115.4375 114.999023438 c 0
 114.708007812 122.295898438 114.342773438 129.770507812 114.342773438 137.422851562 c 0
 114.342773438 161.23046875 117.875 186.755859375 124.9375 213.999023438 c 0
 126.270507812 220.666015625 129.770507812 237.166015625 135.4375 263.499023438 c 0
 141.104492188 289.83203125 145.771484375 310.83203125 149.438476562 326.499023438 c 0
 153.10546875 342.166015625 158.60546875 363.833007812 165.938476562 391.5 c 0
 173.271484375 419.166992188 180.271484375 443 186.938476562 463 c 0
 193.60546875 483 201.938476562 504.5 211.938476562 527.5 c 0
 221.938476562 550.5 231.938476562 570.666992188 241.938476562 588 c 0
 267.271484375 630 300.104492188 662.166992188 340.4375 684.5 c 0
 380.770507812 706.833007812 426.603515625 718 477.936523438 718 c 0
 503.26953125 718 525.76953125 713.333007812 545.436523438 704 c 0
 565.103515625 694.666992188 581.770507812 681 595.4375 663 c 0
 609.104492188 645 618.271484375 621.666992188 622.938476562 593 c 0
 625.116210938 579.62109375 626.206054688 565.298828125 626.206054688 550.032226562 c 0
 626.206054688 532.586914062 624.783203125 513.91015625 621.939453125 494 c 0
 616.606445312 460.666992188 609.2734375 422.833984375 599.940429688 380.500976562 c 0
 590.607421875 338.16796875 579.607421875 295.500976562 566.940429688 252.500976562 c 0
 554.2734375 209.500976562 542.606445312 176.66796875 531.939453125 154.000976562 c 0
 521.272460938 131.333984375 510.60546875 111.333984375 499.938476562 94.0009765625 c 0
 489.271484375 76.66796875 478.604492188 61.66796875 467.9375 49.0009765625 c 0
 457.270507812 36.333984375 445.770507812 25.6669921875 433.4375 17 c 0
 421.104492188 8.3330078125 409.104492188 1.3330078125 397.4375 -4 c 0
 385.770507812 -9.3330078125 372.770507812 -13.5 358.4375 -16.5 c 0
 344.104492188 -19.5 330.104492188 -21.5 316.4375 -22.5 c 0
 302.770507812 -23.5 286.603515625 -24 267.936523438 -24 c 0
218.9375 229.999023438 m 0
 218.270507812 227.33203125 217.4375 223.333007812 216.4375 218 c 0
 215.4375 212.666992188 214.604492188 209 213.9375 207 c 1
 325.270507812 329 429.270507812 454.333007812 525.9375 583 c 1
 518.604492188 600.333007812 507.9375 613.666015625 493.9375 622.999023438 c 0
 479.9375 632.33203125 463.270507812 636.999023438 443.9375 636.999023438 c 0
 409.270507812 636.999023438 379.9375 626.666015625 355.9375 605.999023438 c 0
 331.9375 585.33203125 309.9375 551.999023438 289.9375 505.999023438 c 0
 281.9375 489.33203125 274.4375 469.83203125 267.4375 447.499023438 c 0
 260.4375 425.166015625 253.4375 398.166015625 246.4375 366.499023438 c 0
 239.4375 334.83203125 234.770507812 312.499023438 232.4375 299.499023438 c 0
 230.104492188 286.499023438 225.604492188 263.33203125 218.9375 229.999023438 c 0
447.9375 168 m 0
 451.9375 176 459.604492188 197.999023438 470.9375 233.999023438 c 0
 482.270507812 269.999023438 493.9375 311.166015625 505.9375 357.499023438 c 0
 517.9375 403.83203125 527.270507812 448.33203125 533.9375 490.999023438 c 1
 433.270507812 344.33203125 326.270507812 221.33203125 212.9375 121.999023438 c 1
 220.270507812 80.666015625 244.9375 59.9990234375 286.9375 59.9990234375 c 0
 303.604492188 59.9990234375 318.9375 61.4990234375 332.9375 64.4990234375 c 0
 346.9375 67.4990234375 360.770507812 72.83203125 374.4375 80.4990234375 c 0
 388.104492188 88.166015625 400.9375 99.3330078125 412.9375 114 c 0
 424.9375 128.666992188 436.604492188 146.666992188 447.9375 168 c 0
EndSplineSet
Validated: 524289
EndChar

StartChar: one
Encoding: 49 49 28
Width: 590
GlyphClass: 2
Flags: HMW
HStem: -9 85.5 -5 89<121.731 122.396>
LayerCount: 2
Fore
SplineSet
530.064453125 38 m 0x80
 527.397460938 24.6669921875 521.561523438 13.5 512.561523438 4.5 c 0
 503.561523438 -4.5 489.728515625 -9 471.061523438 -9 c 0x80
 463.061523438 -9 408.061523438 -8.3330078125 306.061523438 -7 c 0
 204.061523438 -5.6669921875 137.728515625 -5 107.061523438 -5 c 0
 93.0615234375 -5 83.89453125 -1 79.5615234375 7 c 0
 76.87890625 11.9521484375 75.5380859375 17.7978515625 75.5380859375 24.5380859375 c 0
 75.5380859375 28.6865234375 76.0458984375 33.173828125 77.0625 38 c 0
 79.7294921875 51.3330078125 85.396484375 62.3330078125 94.0634765625 71 c 0
 102.73046875 79.6669921875 114.397460938 84 129.064453125 84 c 0x40
 157.064453125 84 204.731445312 83.6669921875 272.064453125 83 c 1
 278.064453125 109.666992188 282.731445312 131 286.064453125 147 c 0
 286.731445312 152.333007812 290.564453125 170 297.564453125 200 c 0
 304.564453125 230 309.731445312 251.666992188 313.064453125 265 c 0
 316.397460938 278.333007812 322.897460938 303 332.564453125 339 c 0
 342.231445312 375 349.231445312 401.833007812 353.564453125 419.5 c 0
 357.897460938 437.166992188 365.23046875 465.166992188 375.563476562 503.5 c 0
 385.896484375 541.833007812 393.729492188 570 399.0625 588 c 1
 343.729492188 546.666992188 304.396484375 522 281.063476562 514 c 0
 276.9609375 512.359375 273.016601562 511.5390625 269.229492188 511.5390625 c 0
 260.708984375 511.5390625 252.986328125 515.692382812 246.063476562 524 c 0
 238.563476562 533 234.813476562 542 234.813476562 551 c 0
 234.813476562 554 235.23046875 557 236.063476562 560 c 0
 238.063476562 570.666992188 242.396484375 580.166992188 249.063476562 588.5 c 0
 255.73046875 596.833007812 265.73046875 605.333007812 279.063476562 614 c 0
 300.396484375 628.666992188 322.896484375 644.833984375 346.563476562 662.500976562 c 0
 370.23046875 680.16796875 387.563476562 693.000976562 398.563476562 701.000976562 c 0
 409.563476562 709.000976562 420.23046875 715.833984375 430.563476562 721.500976562 c 0
 440.896484375 727.16796875 449.729492188 730.000976562 457.0625 730.000976562 c 0
 470.395507812 730.000976562 482.5625 724.000976562 493.5625 712.000976562 c 0
 502.870117188 701.846679688 507.524414062 693.125 507.524414062 685.834960938 c 0
 507.524414062 683.2109375 507.524414062 683.2109375 463.5625 518.500976562 c 0
 438.5625 424.833984375 424.395507812 370.000976562 421.0625 354.000976562 c 0
 405.729492188 287.333984375 393.0625 231.666992188 383.0625 187 c 0
 377.0625 162.333007812 369.729492188 126.333007812 361.0625 79 c 1
 379.0625 79 397.895507812 78.6669921875 417.5625 78 c 0
 437.229492188 77.3330078125 453.396484375 76.8330078125 466.063476562 76.5 c 0
 478.73046875 76.1669921875 487.397460938 76 492.064453125 76 c 0
 509.397460938 76 520.564453125 72.5 525.564453125 65.5 c 0
 530.564453125 58.5 532.064453125 49.3330078125 530.064453125 38 c 0x80
EndSplineSet
Validated: 524289
EndChar

StartChar: two
Encoding: 50 50 29
Width: 590
GlyphClass: 2
Flags: HMW
HStem: -18.0049 84.0049 -12 89<464.729 501.23> 637.997 83.999<449.063 462.065>
LayerCount: 2
Fore
SplineSet
477.729492188 -12 m 0x60
 451.729492188 -12 419.231445312 -12.6728515625 380.231445312 -14.005859375 c 0
 341.231445312 -15.3388671875 306.564453125 -16.671875 276.231445312 -18.0048828125 c 0
 245.8984375 -19.337890625 215.231445312 -20.0048828125 184.231445312 -20.0048828125 c 0
 153.231445312 -20.0048828125 129.064453125 -18.671875 111.731445312 -16.0048828125 c 0
 98.3984375 -14.671875 90.5654296875 -5.671875 88.232421875 10.9951171875 c 0
 87.7060546875 14.7587890625 87.4423828125 18.8955078125 87.4423828125 23.4072265625 c 0
 87.4423828125 38.8740234375 90.5390625 58.7373046875 96.732421875 82.9951171875 c 0
 103.399414062 111.662109375 115.899414062 141.829101562 134.232421875 173.49609375 c 0
 152.565429688 205.163085938 176.3984375 235.49609375 205.731445312 264.49609375 c 0
 235.064453125 293.49609375 266.731445312 316.99609375 300.731445312 334.99609375 c 0
 376.731445312 374.99609375 426.064453125 402.99609375 448.731445312 418.99609375 c 0
 478.731445312 440.329101562 500.064453125 462.99609375 512.731445312 486.99609375 c 0
 519.3984375 500.99609375 525.065429688 518.329101562 529.732421875 538.99609375 c 0
 532.514648438 551.053710938 533.90625 561.962890625 533.90625 571.72265625 c 0
 533.90625 590.021484375 529.014648438 604.279296875 519.232421875 614.497070312 c 0
 504.232421875 630.1640625 479.399414062 637.997070312 444.732421875 637.997070312 c 0
 420.732421875 637.997070312 395.732421875 629.997070312 369.732421875 613.997070312 c 0
 343.732421875 597.997070312 322.399414062 580.330078125 305.732421875 560.997070312 c 0
 297.732421875 552.330078125 290.899414062 545.497070312 285.232421875 540.497070312 c 0
 279.565429688 535.497070312 273.8984375 532.6640625 268.231445312 531.997070312 c 0
 262.564453125 531.330078125 257.564453125 531.663085938 253.231445312 532.99609375 c 0
 248.8984375 534.329101562 243.731445312 536.662109375 237.731445312 539.995117188 c 0
 228.3984375 545.995117188 223.731445312 554.662109375 223.731445312 565.995117188 c 0
 223.731445312 577.328125 229.731445312 591.995117188 241.731445312 609.995117188 c 0
 251.064453125 622.662109375 263.231445312 635.329101562 278.231445312 647.99609375 c 0
 293.231445312 660.663085938 310.231445312 672.663085938 329.231445312 683.99609375 c 0
 348.231445312 695.329101562 369.3984375 704.49609375 392.731445312 711.49609375 c 0
 416.064453125 718.49609375 438.397460938 721.99609375 459.73046875 721.99609375 c 0
 527.063476562 721.99609375 574.23046875 705.329101562 601.23046875 671.99609375 c 0
 618.451171875 650.736328125 627.060546875 622.697265625 627.060546875 587.877929688 c 0
 627.060546875 568.103515625 624.284179688 546.143554688 618.73046875 521.99609375 c 0
 606.063476562 466.663085938 582.73046875 422.330078125 548.73046875 388.997070312 c 0
 523.397460938 364.330078125 482.397460938 336.997070312 425.73046875 306.997070312 c 0
 411.73046875 298.997070312 387.397460938 286.6640625 352.73046875 269.997070312 c 0
 322.73046875 254.6640625 296.23046875 235.831054688 273.23046875 213.498046875 c 0
 250.23046875 191.165039062 232.063476562 168.33203125 218.73046875 144.999023438 c 0
 205.397460938 121.666015625 194.73046875 96.3330078125 186.73046875 69 c 1
 220.73046875 67 253.73046875 66 285.73046875 66 c 0xa0
 317.73046875 66 342.897460938 66.5 361.23046875 67.5 c 0
 379.563476562 68.5 400.73046875 70 424.73046875 72 c 2
 472.73046875 76 l 2
 473.397460938 76 476.397460938 76.1669921875 481.73046875 76.5 c 0
 487.063476562 76.8330078125 490.563476562 77 492.23046875 77 c 2
 501.23046875 77 l 2
 505.563476562 77 508.73046875 76.3330078125 510.73046875 75 c 0
 512.73046875 73.6669921875 514.897460938 72 517.23046875 70 c 0
 519.563476562 68 521.23046875 65.3330078125 522.23046875 62 c 0
 523.23046875 58.6669921875 523.397460938 54.6669921875 522.73046875 50 c 0
 522.063476562 42 519.896484375 33.5 516.229492188 24.5 c 0
 512.5625 15.5 507.229492188 7.1669921875 500.229492188 -0.5 c 0
 493.229492188 -8.1669921875 485.729492188 -12 477.729492188 -12 c 0x60
EndSplineSet
Validated: 524289
EndChar

StartChar: three
Encoding: 51 51 30
Width: 590
GlyphClass: 2
Flags: HMW
HStem: -23.9941 84<288.37 312.037> 318.006 100<317.37 324.037> 638.006 83.998<427.705 442.703>
VStem: 459.204 100
LayerCount: 2
Fore
SplineSet
551.704101562 199 m 0
 536.37109375 130.333007812 504.37109375 76.005859375 455.704101562 36.005859375 c 0
 407.037109375 -3.994140625 347.370117188 -23.994140625 276.703125 -23.994140625 c 0
 254.703125 -23.994140625 233.870117188 -20.494140625 214.203125 -13.494140625 c 0
 194.536132812 -6.494140625 177.703125 2.505859375 163.703125 13.505859375 c 0
 149.703125 24.505859375 138.036132812 36.505859375 128.703125 49.505859375 c 0
 119.370117188 62.505859375 113.370117188 75.3388671875 110.703125 88.005859375 c 0
 109.370117188 94.138671875 108.703125 100.059570312 108.703125 105.765625 c 0
 108.703125 114.326171875 110.203125 122.405273438 113.203125 130.005859375 c 0
 118.203125 142.672851562 126.370117188 151.672851562 137.703125 157.005859375 c 0
 147.358398438 161.603515625 155.982421875 163.90234375 163.576171875 163.90234375 c 0
 166.994140625 163.90234375 170.203125 163.436523438 173.203125 162.505859375 c 0
 182.870117188 159.505859375 191.037109375 151.005859375 197.704101562 137.005859375 c 0
 207.037109375 117.005859375 220.370117188 99.1728515625 237.703125 83.505859375 c 0
 255.036132812 67.8388671875 276.036132812 60.005859375 300.703125 60.005859375 c 0
 337.370117188 60.005859375 370.370117188 71.3388671875 399.703125 94.005859375 c 0
 429.036132812 116.672851562 447.703125 146.005859375 455.703125 182.005859375 c 0
 458.814453125 196.673828125 460.370117188 210.0078125 460.370117188 222.008789062 c 0
 460.370117188 228.0078125 459.981445312 233.672851562 459.204101562 239.005859375 c 0
 456.87109375 255.005859375 450.37109375 269.005859375 439.704101562 281.005859375 c 0
 429.037109375 293.005859375 412.537109375 302.172851562 390.204101562 308.505859375 c 0
 367.87109375 314.838867188 340.37109375 318.005859375 307.704101562 318.005859375 c 0
 295.037109375 318.005859375 285.370117188 323.505859375 278.703125 334.505859375 c 0
 274.2578125 341.83984375 272.036132812 349.692382812 272.036132812 358.0625 c 0
 272.036132812 362.248046875 272.590820312 366.561523438 273.702148438 371.005859375 c 0
 277.03515625 385.005859375 283.03515625 396.338867188 291.702148438 405.005859375 c 0
 300.369140625 413.672851562 311.036132812 418.005859375 323.703125 418.005859375 c 0
 375.703125 418.005859375 419.203125 429.172851562 454.203125 451.505859375 c 0
 489.203125 473.838867188 511.036132812 506.338867188 519.703125 549.005859375 c 0
 522.262695312 558.60546875 523.54296875 567.420898438 523.54296875 575.450195312 c 0
 523.54296875 592.513671875 517.762695312 606.032226562 506.203125 616.005859375 c 0
 489.203125 630.672851562 461.703125 638.005859375 423.703125 638.005859375 c 0
 416.370117188 638.005859375 409.203125 637.172851562 402.203125 635.505859375 c 0
 395.203125 633.838867188 389.203125 632.171875 384.203125 630.504882812 c 0
 379.203125 628.837890625 373.703125 626.004882812 367.703125 622.004882812 c 0
 361.703125 618.004882812 356.870117188 614.671875 353.203125 612.004882812 c 0
 349.536132812 609.337890625 344.703125 605.004882812 338.703125 599.004882812 c 2
 326.203125 586.504882812 l 2
 323.870117188 584.171875 319.703125 579.338867188 313.703125 572.005859375 c 0
 300.370117188 557.338867188 288.203125 548.671875 277.203125 546.004882812 c 0
 274.060546875 545.243164062 270.958007812 544.862304688 267.896484375 544.862304688 c 0
 260.243164062 544.862304688 252.845703125 547.243164062 245.703125 552.004882812 c 0
 236.9921875 556.982421875 232.637695312 565.0078125 232.637695312 576.083007812 c 0
 232.637695312 588.150390625 237.678710938 603.212890625 249.705078125 622.00390625 c 0
 259.038085938 635.336914062 269.705078125 647.50390625 281.705078125 658.50390625 c 0
 293.705078125 669.50390625 307.372070312 680.00390625 322.705078125 690.00390625 c 0
 338.038085938 700.00390625 355.705078125 707.836914062 375.705078125 713.50390625 c 0
 395.705078125 719.170898438 416.705078125 722.00390625 438.705078125 722.00390625 c 0
 510.038085938 722.00390625 560.038085938 706.00390625 588.705078125 674.00390625 c 0
 607.103515625 653.466796875 616.301757812 626.614257812 616.301757812 593.4453125 c 0
 616.301757812 574.932617188 613.436523438 554.452148438 607.705078125 532.00390625 c 0
 603.705078125 512.670898438 597.538085938 495.170898438 589.205078125 479.50390625 c 0
 580.872070312 463.836914062 571.372070312 450.50390625 560.705078125 439.50390625 c 0
 550.038085938 428.50390625 537.87109375 418.836914062 524.204101562 410.50390625 c 0
 510.537109375 402.170898438 497.204101562 395.670898438 484.204101562 391.00390625 c 0
 471.204101562 386.336914062 457.37109375 382.669921875 442.704101562 380.002929688 c 1
 466.704101562 374.002929688 486.704101562 366.669921875 502.704101562 358.002929688 c 0
 518.704101562 349.3359375 531.704101562 338.168945312 541.704101562 324.501953125 c 0
 551.704101562 310.834960938 557.537109375 293.66796875 559.204101562 273.000976562 c 0
 559.537109375 268.8671875 559.704101562 264.573242188 559.704101562 260.119140625 c 0
 559.704101562 242.305664062 557.037109375 221.932617188 551.704101562 199 c 0
EndSplineSet
Validated: 524289
EndChar

StartChar: four
Encoding: 52 52 31
Width: 590
GlyphClass: 2
Flags: HMW
HStem: -23.001 21G<402.946 415.613> 223.999 79.999
LayerCount: 2
Fore
SplineSet
463.611328125 55 m 0
 462.944335938 33.6669921875 457.112304688 15.33203125 446.112304688 -0.0009765625 c 0
 435.112304688 -15.333984375 422.612304688 -23.0009765625 408.612304688 -23.0009765625 c 0
 397.279296875 -23.0009765625 387.279296875 -18.16796875 378.612304688 -8.5009765625 c 0
 371.100585938 -0.123046875 367.344726562 8.380859375 367.344726562 17.0087890625 c 0
 367.344726562 23.4921875 373.22265625 48.0009765625 376.110351562 59.9990234375 c 0
 380.443359375 77.9990234375 386.610351562 103.83203125 394.610351562 137.499023438 c 0
 402.610351562 171.166015625 409.27734375 199.999023438 414.610351562 223.999023438 c 1
 401.357421875 224.15625 388.565429688 224.234375 376.234375 224.234375 c 0
 283.740234375 224.234375 217.19921875 219.822265625 176.610351562 210.999023438 c 0
 166.610351562 208.999023438 157.77734375 209.33203125 150.110351562 211.999023438 c 0
 142.443359375 214.666015625 137.110351562 219.333007812 134.110351562 226 c 0
 131.110351562 232.666992188 129.27734375 240.333984375 128.610351562 249.000976562 c 0
 127.943359375 257.66796875 128.776367188 266.66796875 131.109375 276.000976562 c 0
 133.442382812 285.333984375 136.942382812 294.333984375 141.609375 303.000976562 c 0
 152.276367188 321.66796875 176.109375 352.16796875 213.109375 394.500976562 c 0
 250.109375 436.833984375 297.276367188 489.166992188 354.609375 551.5 c 0
 411.942382812 613.833007812 452.942382812 659 477.609375 687 c 0
 488.942382812 699.666992188 500.442382812 709.166992188 512.109375 715.5 c 0
 523.776367188 721.833007812 533.943359375 725 542.610351562 725 c 0
 544.913085938 725.2421875 547.155273438 725.36328125 549.336914062 725.36328125 c 0
 559.155273438 725.36328125 567.74609375 722.909179688 575.110351562 718 c 0
 583.489257812 712.4140625 587.6796875 703.072265625 587.6796875 689.973632812 c 0
 587.6796875 684.974609375 586.553710938 656.916992188 571.611328125 579 c 0
 562.278320312 530.333007812 553.9453125 489.166015625 546.612304688 455.499023438 c 0
 539.279296875 421.83203125 528.279296875 370.999023438 513.612304688 302.999023438 c 1
 524.279296875 302.33203125 536.279296875 301.999023438 549.612304688 301.999023438 c 0
 564.279296875 301.999023438 573.612304688 298.499023438 577.612304688 291.499023438 c 0
 581.612304688 284.499023438 582.612304688 275.33203125 580.612304688 263.999023438 c 0
 573.9453125 234.666015625 557.278320312 219.999023438 530.611328125 219.999023438 c 0
 517.944335938 219.999023438 506.611328125 220.33203125 496.611328125 220.999023438 c 1
 474.611328125 123.666015625 463.611328125 68.3330078125 463.611328125 55 c 0
494.612304688 601.998046875 m 1
 372.612304688 472.665039062 287.278320312 372.331054688 238.611328125 300.998046875 c 1
 273.850585938 303.37890625 316.9140625 304.569335938 367.801757812 304.569335938 c 0
 388.153320312 304.569335938 409.756835938 304.37890625 432.611328125 303.998046875 c 1
 461.278320312 428.665039062 481.9453125 527.998046875 494.612304688 601.998046875 c 1
EndSplineSet
Validated: 524289
EndChar

StartChar: five
Encoding: 53 53 32
Width: 590
GlyphClass: 2
Flags: HMW
HStem: -18.001 83.998<285.707 292.04> 419.997 89.0029<410.041 472.709> 619 88.998<610.376 641.71> 630 79.998
LayerCount: 2
Fore
SplineSet
583.708984375 296 m 0xd0
 572.375976562 246.666992188 556.373046875 202.166015625 535.706054688 162.499023438 c 0
 515.0390625 122.83203125 491.206054688 89.83203125 464.206054688 63.4990234375 c 0
 437.206054688 37.166015625 407.5390625 16.9990234375 375.206054688 2.9990234375 c 0
 342.873046875 -11.0009765625 309.373046875 -18.0009765625 274.706054688 -18.0009765625 c 0
 247.373046875 -18.0009765625 222.873046875 -15.0009765625 201.206054688 -9.0009765625 c 0
 179.5390625 -3.0009765625 162.206054688 5.33203125 149.206054688 15.9990234375 c 0
 136.206054688 26.666015625 125.873046875 37.8330078125 118.206054688 49.5 c 0
 110.5390625 61.1669921875 104.706054688 73.333984375 100.706054688 86.0009765625 c 0
 99.373046875 93.201171875 98.7060546875 99.8681640625 98.7060546875 106.000976562 c 0
 98.7060546875 115.201171875 100.206054688 123.201171875 103.206054688 130.000976562 c 0
 108.206054688 141.333984375 117.0390625 150.000976562 129.706054688 156.000976562 c 0
 137.706054688 159.333984375 143.873046875 161.666992188 148.206054688 163 c 0
 152.5390625 164.333007812 157.5390625 164.666015625 163.206054688 163.999023438 c 0
 168.873046875 163.33203125 173.540039062 160.665039062 177.20703125 155.998046875 c 0
 180.874023438 151.331054688 184.374023438 144.6640625 187.70703125 135.997070312 c 0
 205.040039062 89.9970703125 237.70703125 66.6640625 285.70703125 65.9970703125 c 0
 332.374023438 65.9970703125 373.874023438 85.830078125 410.20703125 125.497070312 c 0
 446.540039062 165.1640625 472.373046875 218.331054688 487.706054688 284.998046875 c 0
 491.920898438 303.6640625 494.028320312 320.59765625 494.028320312 335.796875 c 0
 494.028320312 354.252929688 490.920898438 370.153320312 484.706054688 383.497070312 c 0
 473.373046875 407.830078125 450.040039062 419.997070312 414.70703125 419.997070312 c 0
 405.374023438 419.997070312 396.20703125 419.497070312 387.20703125 418.497070312 c 0
 378.20703125 417.497070312 370.540039062 416.1640625 364.20703125 414.497070312 c 0
 357.874023438 412.830078125 350.70703125 410.330078125 342.70703125 406.997070312 c 0
 334.70703125 403.6640625 328.70703125 400.997070312 324.70703125 398.997070312 c 0
 320.70703125 396.997070312 315.040039062 393.330078125 307.70703125 387.997070312 c 0
 300.374023438 382.6640625 295.541015625 378.997070312 293.208007812 376.997070312 c 0
 290.875 374.997070312 285.875 370.830078125 278.208007812 364.497070312 c 0
 270.541015625 358.1640625 265.708007812 354.331054688 263.708007812 352.998046875 c 0
 257.708007812 348.331054688 250.875 344.331054688 243.208007812 340.998046875 c 0
 235.541015625 337.665039062 227.208007812 335.498046875 218.208007812 334.498046875 c 0
 209.208007812 333.498046875 201.041015625 334.998046875 193.708007812 338.998046875 c 0
 184.375 343.665039062 178.875 353.998046875 177.208007812 369.998046875 c 0
 176.76953125 374.208984375 176.549804688 378.673828125 176.549804688 383.392578125 c 0
 176.549804688 396.603515625 178.26953125 411.805664062 181.708007812 428.998046875 c 0
 186.375 452.331054688 191.708007812 474.831054688 197.708007812 496.498046875 c 0
 203.708007812 518.165039062 210.375 541.498046875 217.708007812 566.498046875 c 0
 225.041015625 591.498046875 229.708007812 608.665039062 231.708007812 617.998046875 c 1
 228.375 626.665039062 227.375 636.498046875 228.708007812 647.498046875 c 0
 230.041015625 658.498046875 233.041015625 668.665039062 237.708007812 677.998046875 c 0
 242.375 687.331054688 248.541992188 695.331054688 256.208984375 701.998046875 c 0
 263.875976562 708.665039062 272.04296875 711.998046875 280.709960938 711.998046875 c 0
 304.04296875 711.998046875 358.209960938 711.331054688 443.209960938 709.998046875 c 0xd0
 528.209960938 708.665039062 593.04296875 707.998046875 637.709960938 707.998046875 c 0
 645.709960938 707.998046875 651.376953125 704.331054688 654.709960938 696.998046875 c 0
 658.04296875 689.665039062 659.375976562 681.33203125 658.708984375 671.999023438 c 0
 658.041992188 662.666015625 656.375 653.999023438 653.708007812 645.999023438 c 0
 652.375 641.33203125 650.541992188 637.33203125 648.208984375 633.999023438 c 0
 645.875976562 630.666015625 643.04296875 628.166015625 639.709960938 626.499023438 c 0
 636.376953125 624.83203125 633.543945312 623.33203125 631.2109375 621.999023438 c 0
 628.877929688 620.666015625 625.377929688 619.833007812 620.7109375 619.5 c 0
 616.043945312 619.166992188 612.876953125 619 611.209960938 619 c 0xe0
 609.54296875 619 606.04296875 619.333007812 600.709960938 620 c 0
 595.376953125 620.666992188 592.376953125 621 591.709960938 621 c 0
 583.04296875 621 567.875976562 622 546.208984375 624 c 0
 524.541992188 626 505.041992188 627.5 487.708984375 628.5 c 0
 470.375976562 629.5 446.208984375 630 415.208984375 630 c 0
 384.208984375 630 351.708984375 629 317.708984375 627 c 1
 315.708984375 620.333007812 310.541992188 601 302.208984375 569 c 0
 293.875976562 537 287.875976562 513.833007812 284.208984375 499.5 c 0
 280.541992188 485.166992188 276.041992188 464.666992188 270.708984375 438 c 1
 292.708984375 458.666992188 320.041992188 475.666992188 352.708984375 489 c 0
 385.375976562 502.333007812 420.708984375 509 458.708984375 509 c 0
 486.708984375 509 510.375976562 503.5 529.708984375 492.5 c 0
 549.041992188 481.5 563.708984375 466.333007812 573.708984375 447 c 0
 583.708984375 427.666992188 589.541992188 405.166992188 591.208984375 379.5 c 0
 591.541992188 374.366210938 591.708984375 369.145507812 591.708984375 363.837890625 c 0
 591.708984375 342.611328125 589.041992188 319.999023438 583.708984375 296 c 0xd0
EndSplineSet
Validated: 524289
EndChar

StartChar: six
Encoding: 54 54 33
Width: 590
GlyphClass: 2
Flags: HMW
HStem: -21.9971 84.0049<300.472 304.14> 393.004 87.9961<382.14 457.14> 657 80.002
VStem: 122.806 82.9971 490.306 95
LayerCount: 2
Fore
SplineSet
573.806640625 246 m 0
 565.139648438 208.666992188 551.138671875 173.502929688 531.805664062 140.502929688 c 0
 512.47265625 107.502929688 490.305664062 79.169921875 465.305664062 55.5029296875 c 0
 440.305664062 31.8359375 412.305664062 13.0029296875 381.305664062 -0.9970703125 c 0
 350.305664062 -14.9970703125 319.47265625 -21.9970703125 288.805664062 -21.9970703125 c 0
 250.805664062 -21.9970703125 219.305664062 -14.1640625 194.305664062 1.5029296875 c 0
 169.305664062 17.169921875 150.97265625 39.8369140625 139.305664062 69.50390625 c 0
 128.26953125 97.56640625 122.751953125 130.848632812 122.751953125 169.349609375 c 0
 122.751953125 171.55078125 122.76953125 173.768554688 122.805664062 176.00390625 c 0
 123.47265625 217.336914062 130.139648438 263.669921875 142.806640625 315.002929688 c 0
 156.806640625 372.3359375 174.139648438 424.002929688 194.806640625 470.002929688 c 0
 215.473632812 516.002929688 238.306640625 554.669921875 263.306640625 586.002929688 c 0
 288.306640625 617.3359375 316.139648438 643.8359375 346.806640625 665.502929688 c 0
 377.473632812 687.169921875 409.140625 703.669921875 441.807617188 715.002929688 c 0
 474.474609375 726.3359375 509.807617188 733.668945312 547.807617188 737.001953125 c 0
 550.600585938 737.255859375 553.291015625 737.3828125 555.877929688 737.3828125 c 0
 566.87890625 737.3828125 576.021484375 735.088867188 583.307617188 730.500976562 c 0
 591.686523438 725.224609375 595.876953125 716.915039062 595.876953125 705.571289062 c 0
 595.876953125 701.477539062 595.876953125 691.969726562 578.806640625 676.5 c 0
 568.139648438 666.833007812 557.47265625 660.333007812 546.805664062 657 c 0
 539.47265625 655 528.305664062 652.333007812 513.305664062 649 c 0
 498.305664062 645.666992188 485.638671875 642.5 475.305664062 639.5 c 0
 464.97265625 636.5 452.305664062 632 437.305664062 626 c 0
 422.305664062 620 406.805664062 611.333007812 390.805664062 600 c 0
 374.805664062 588.666992188 358.47265625 575 341.805664062 559 c 0
 324.47265625 541.666992188 306.639648438 518 288.306640625 488 c 0
 269.973632812 458 256.473632812 431.333007812 247.806640625 408 c 1
 273.139648438 432.666992188 302.47265625 451 335.805664062 463 c 0
 369.138671875 475 404.805664062 481 442.805664062 481 c 0
 471.47265625 481 495.97265625 476.666992188 516.305664062 468 c 0
 536.638671875 459.333007812 552.805664062 445.666015625 564.805664062 426.999023438 c 0
 576.805664062 408.33203125 583.638671875 383.83203125 585.305664062 353.499023438 c 0
 585.55859375 348.90234375 585.684570312 344.178710938 585.684570312 339.330078125 c 0
 585.684570312 312.178710938 581.725585938 281.069335938 573.806640625 246 c 0
207.805664062 230.002929688 m 0
 206.3046875 218.997070312 205.552734375 207.899414062 205.552734375 196.708007812 c 0
 205.552734375 192.984375 205.63671875 189.250976562 205.802734375 185.506835938 c 0
 206.469726562 170.506835938 209.13671875 155.33984375 213.803710938 140.006835938 c 0
 218.470703125 124.673828125 224.637695312 111.340820312 232.3046875 100.0078125 c 0
 239.971679688 88.6748046875 250.471679688 79.5078125 263.8046875 72.5078125 c 0
 277.137695312 65.5078125 292.137695312 62.0078125 308.8046875 62.0078125 c 0
 331.471679688 62.0078125 355.138671875 70.6748046875 379.805664062 88.0078125 c 0
 404.47265625 105.340820312 425.805664062 127.173828125 443.805664062 153.506835938 c 0
 461.805664062 179.83984375 473.805664062 206.672851562 479.805664062 234.005859375 c 0
 486.8203125 263.977539062 490.327148438 289.375 490.327148438 310.196289062 c 0
 490.327148438 333.04296875 486.104492188 350.248046875 477.805664062 362.00390625 c 0
 469.805664062 373.336914062 459.47265625 381.336914062 446.805664062 386.00390625 c 0
 434.138671875 390.670898438 417.805664062 393.00390625 397.805664062 393.00390625 c 0
 366.47265625 393.00390625 335.305664062 384.336914062 304.305664062 367.00390625 c 0
 273.305664062 349.670898438 246.138671875 327.670898438 222.805664062 301.00390625 c 1
 215.47265625 272.336914062 210.47265625 248.669921875 207.805664062 230.002929688 c 0
EndSplineSet
Validated: 524289
EndChar

StartChar: seven
Encoding: 55 55 34
Width: 590
GlyphClass: 2
Flags: HMW
HStem: 622.497 90.5
LayerCount: 2
Fore
SplineSet
203.213867188 26 m 0
 191.880859375 8.6669921875 179.375976562 -4.3359375 165.708984375 -13.0029296875 c 0
 155.2578125 -19.630859375 145.489257812 -22.9443359375 136.403320312 -22.9443359375 c 0
 133.607421875 -22.9443359375 130.875976562 -22.630859375 128.208984375 -22.0029296875 c 0
 115.541992188 -18.669921875 108.041992188 -10.669921875 105.708984375 1.9970703125 c 0
 105.267578125 4.3935546875 105.046875 6.837890625 105.046875 9.3291015625 c 0
 105.046875 20.0087890625 109.100585938 31.564453125 117.208984375 43.9970703125 c 0
 164.541992188 112.6640625 214.208984375 180.997070312 266.208984375 248.997070312 c 0
 318.208984375 316.997070312 360.708984375 371.1640625 393.708984375 411.497070312 c 0
 426.708984375 451.830078125 457.708984375 490.997070312 486.708984375 528.997070312 c 0
 515.708984375 566.997070312 536.541992188 597.997070312 549.208984375 621.997070312 c 1
 520.1171875 623.087890625 489.8359375 623.633789062 458.36328125 623.633789062 c 0
 432.138671875 623.633789062 405.087890625 623.254882812 377.209960938 622.497070312 c 0
 315.876953125 620.830078125 275.209960938 617.330078125 255.209960938 611.997070312 c 0
 247.209960938 609.997070312 240.709960938 610.330078125 235.709960938 612.997070312 c 0
 230.709960938 615.6640625 227.04296875 619.6640625 224.709960938 624.997070312 c 0
 222.376953125 630.330078125 221.043945312 635.997070312 220.7109375 641.997070312 c 0
 220.377929688 647.997070312 220.544921875 653.997070312 221.211914062 659.997070312 c 0
 223.87890625 671.997070312 228.87890625 681.497070312 236.211914062 688.497070312 c 0
 243.544921875 695.497070312 255.211914062 700.6640625 271.211914062 703.997070312 c 0
 295.211914062 708.6640625 327.544921875 711.6640625 368.211914062 712.997070312 c 0
 388.545898438 713.6640625 408.045898438 713.997070312 426.711914062 713.997070312 c 0
 445.37890625 713.997070312 463.211914062 713.663085938 480.211914062 712.997070312 c 0
 514.211914062 711.6640625 547.37890625 710.331054688 579.711914062 708.998046875 c 0
 612.044921875 707.665039062 629.544921875 706.998046875 632.211914062 706.998046875 c 0
 638.87890625 706.998046875 644.87890625 705.498046875 650.211914062 702.498046875 c 0
 655.544921875 699.498046875 660.211914062 694.665039062 664.211914062 687.998046875 c 0
 668.211914062 681.331054688 669.044921875 672.6640625 666.711914062 661.997070312 c 0
 664.37890625 651.330078125 658.545898438 638.997070312 649.212890625 624.997070312 c 0
 635.879882812 604.997070312 613.212890625 574.830078125 581.212890625 534.497070312 c 0
 549.212890625 494.1640625 516.045898438 452.831054688 481.712890625 410.498046875 c 0
 447.379882812 368.165039062 404.546875 311.83203125 353.213867188 241.499023438 c 0
 301.880859375 171.166015625 251.880859375 99.3330078125 203.213867188 26 c 0
EndSplineSet
Validated: 524289
EndChar

StartChar: eight
Encoding: 56 56 35
Width: 590
GlyphClass: 2
Flags: HMW
HStem: -27.9922 85.9971<286.737 291.403> 646.004 72.001<439.403 444.403>
VStem: 484.57 90.501
LayerCount: 2
Fore
SplineSet
570.0703125 204 m 0
 565.403320312 182.666992188 557.90234375 161.338867188 547.569335938 140.005859375 c 0
 537.236328125 118.672851562 523.569335938 97.83984375 506.569335938 77.5068359375 c 0
 489.569335938 57.173828125 470.236328125 39.3408203125 448.569335938 24.0078125 c 0
 426.90234375 8.6748046875 401.069335938 -3.8251953125 371.069335938 -13.4921875 c 0
 341.069335938 -23.1591796875 308.736328125 -27.9921875 274.069335938 -27.9921875 c 0
 242.736328125 -27.9921875 215.569335938 -23.3251953125 192.569335938 -13.9921875 c 0
 169.569335938 -4.6591796875 151.90234375 7.173828125 139.569335938 21.5068359375 c 0
 127.236328125 35.83984375 117.903320312 53.0068359375 111.5703125 73.0068359375 c 0
 105.553710938 92.0078125 102.544921875 111.159179688 102.544921875 130.4609375 c 0
 102.544921875 141.575195312 103.374023438 165.397460938 110.0703125 196.005859375 c 0
 115.403320312 218.672851562 126.403320312 243.005859375 143.0703125 269.005859375 c 0
 159.737304688 295.005859375 180.737304688 319.005859375 206.0703125 341.005859375 c 0
 231.403320312 363.005859375 257.403320312 378.338867188 284.0703125 387.005859375 c 1
 254.737304688 403.672851562 234.0703125 425.505859375 222.0703125 452.505859375 c 0
 214.356445312 469.86328125 210.499023438 487.426757812 210.499023438 505.197265625 c 0
 210.499023438 515.069335938 211.689453125 525.005859375 214.0703125 535.005859375 c 0
 216.0703125 543.005859375 218.5703125 551.505859375 221.5703125 560.505859375 c 0
 224.5703125 569.505859375 229.403320312 580.172851562 236.0703125 592.505859375 c 0
 242.737304688 604.838867188 250.237304688 616.671875 258.5703125 628.004882812 c 0
 266.903320312 639.337890625 277.403320312 650.504882812 290.0703125 661.504882812 c 0
 302.737304688 672.504882812 316.5703125 682.171875 331.5703125 690.504882812 c 0
 346.5703125 698.837890625 364.403320312 705.504882812 385.0703125 710.504882812 c 0
 405.737304688 715.504882812 427.737304688 718.004882812 451.0703125 718.004882812 c 0
 475.0703125 718.004882812 496.237304688 715.504882812 514.5703125 710.504882812 c 0
 532.903320312 705.504882812 547.903320312 698.837890625 559.5703125 690.504882812 c 0
 571.237304688 682.171875 580.737304688 672.504882812 588.0703125 661.504882812 c 0
 595.403320312 650.504882812 600.736328125 639.337890625 604.069335938 628.004882812 c 0
 607.40234375 616.671875 609.40234375 604.671875 610.069335938 592.004882812 c 0
 610.3359375 586.938476562 610.469726562 582.112304688 610.469726562 577.525390625 c 0
 610.469726562 570.64453125 610.168945312 564.3046875 609.569335938 558.50390625 c 0
 608.569335938 548.836914062 607.069335938 539.669921875 605.069335938 531.002929688 c 0
 603.069335938 523.002929688 600.236328125 515.002929688 596.569335938 507.002929688 c 0
 592.90234375 499.002929688 588.90234375 492.002929688 584.569335938 486.002929688 c 0
 580.236328125 480.002929688 574.736328125 473.669921875 568.069335938 467.002929688 c 0
 561.40234375 460.3359375 555.40234375 454.668945312 550.069335938 450.001953125 c 0
 544.736328125 445.334960938 537.903320312 440.001953125 529.5703125 434.001953125 c 0
 521.237304688 428.001953125 514.5703125 423.501953125 509.5703125 420.501953125 c 0
 504.5703125 417.501953125 497.903320312 413.334960938 489.5703125 408.001953125 c 0
 481.237304688 402.668945312 475.404296875 399.001953125 472.071289062 397.001953125 c 1
 492.73828125 386.334960938 510.23828125 374.334960938 524.571289062 361.001953125 c 0
 538.904296875 347.668945312 549.571289062 334.501953125 556.571289062 321.501953125 c 0
 563.571289062 308.501953125 568.571289062 294.668945312 571.571289062 280.001953125 c 0
 574.025390625 268.001953125 575.252929688 257.006835938 575.252929688 247.014648438 c 0
 575.252929688 244.793945312 575.192382812 242.623046875 575.071289062 240.500976562 c 0
 574.404296875 228.833984375 572.737304688 216.666992188 570.0703125 204 c 0
302.069335938 538.004882812 m 0
 300.670898438 532.235351562 299.971679688 526.637695312 299.971679688 521.211914062 c 0
 299.971679688 505.94921875 305.504882812 492.046875 316.571289062 479.504882812 c 0
 331.571289062 462.504882812 359.071289062 445.337890625 399.071289062 428.004882812 c 1
 427.73828125 439.337890625 454.23828125 454.670898438 478.571289062 474.00390625 c 0
 502.904296875 493.336914062 516.737304688 511.336914062 520.0703125 528.00390625 c 0
 521.784179688 536.00390625 522.641601562 543.942382812 522.641601562 551.819335938 c 0
 522.641601562 562.323242188 521.118164062 572.717773438 518.0703125 583.00390625 c 0
 512.737304688 601.00390625 502.5703125 616.00390625 487.5703125 628.00390625 c 0
 472.5703125 640.00390625 454.737304688 646.00390625 434.0703125 646.00390625 c 0
 405.403320312 646.00390625 377.736328125 634.836914062 351.069335938 612.50390625 c 0
 324.40234375 590.170898438 308.069335938 565.337890625 302.069335938 538.004882812 c 0
298.071289062 58.0048828125 m 0
 316.071289062 58.0048828125 334.737304688 60.8330078125 354.0703125 66.5 c 0
 373.403320312 72.1669921875 391.5703125 80.333984375 408.5703125 91.0009765625 c 0
 425.5703125 101.66796875 440.5703125 115.66796875 453.5703125 133.000976562 c 0
 466.5703125 150.333984375 475.403320312 168.666992188 480.0703125 188 c 0
 481.821289062 195.001953125 484.620117188 208.245117188 484.620117188 221.444335938 c 0
 484.620117188 230.415039062 483.270507812 240.600585938 480.5703125 252.001953125 c 0
 477.5703125 264.668945312 472.403320312 276.3359375 465.0703125 287.002929688 c 0
 457.737304688 297.669921875 446.737304688 308.836914062 432.0703125 320.50390625 c 0
 417.403320312 332.170898438 399.0703125 342.670898438 377.0703125 352.00390625 c 1
 329.0703125 339.336914062 287.737304688 317.336914062 253.0703125 286.00390625 c 0
 218.403320312 254.670898438 196.736328125 221.337890625 188.069335938 186.004882812 c 0
 185.771484375 176.557617188 184.622070312 167.453125 184.622070312 158.690429688 c 0
 184.622070312 144.573242188 187.604492188 131.344726562 193.569335938 119.004882812 c 0
 203.236328125 99.0048828125 217.403320312 83.837890625 236.0703125 73.5048828125 c 0
 254.737304688 63.171875 275.404296875 58.0048828125 298.071289062 58.0048828125 c 0
EndSplineSet
Validated: 524289
EndChar

StartChar: nine
Encoding: 57 57 36
Width: 590
GlyphClass: 2
Flags: HMW
HStem: -22 79.9961<181.612 181.612> 234.998 89<307.945 379.279> 654.995 84.0049<447.279 450.943>
LayerCount: 2
Fore
SplineSet
181.612304688 -22 m 0
 178.81640625 -22.25390625 176.1171875 -22.380859375 173.514648438 -22.380859375 c 0
 162.465820312 -22.380859375 153.163085938 -20.0908203125 145.609375 -15.50390625 c 0
 137.442382812 -10.544921875 133.359375 -2.90625 133.359375 7.412109375 c 0
 133.359375 14.451171875 134.158203125 24.6025390625 150.610351562 38.9970703125 c 0
 161.27734375 48.330078125 171.944335938 54.6630859375 182.611328125 57.99609375 c 0
 189.944335938 59.99609375 201.611328125 62.6630859375 217.611328125 65.99609375 c 0
 233.611328125 69.3291015625 248.111328125 72.8291015625 261.111328125 76.49609375 c 0
 274.111328125 80.1630859375 288.944335938 84.99609375 305.611328125 90.99609375 c 0
 322.278320312 96.99609375 338.778320312 105.329101562 355.111328125 115.99609375 c 0
 371.444335938 126.663085938 387.611328125 139.330078125 403.611328125 153.997070312 c 0
 423.611328125 173.330078125 442.611328125 195.830078125 460.611328125 221.497070312 c 0
 478.611328125 247.1640625 491.944335938 270.331054688 500.611328125 290.998046875 c 1
 478.611328125 269.665039062 453.278320312 254.998046875 424.611328125 246.998046875 c 0
 395.944335938 238.998046875 361.611328125 234.998046875 321.611328125 234.998046875 c 0
 294.278320312 234.998046875 269.778320312 241.831054688 248.111328125 255.498046875 c 0
 226.444335938 269.165039062 209.611328125 287.33203125 197.611328125 309.999023438 c 0
 185.611328125 332.666015625 177.944335938 358.833007812 174.611328125 388.5 c 0
 173.5 398.387695312 172.9453125 408.33203125 172.9453125 418.331054688 c 0
 172.9453125 438.33203125 175.166992188 458.555664062 179.612304688 479.000976562 c 0
 188.279296875 516.333984375 202.112304688 551.166992188 221.112304688 583.5 c 0
 240.112304688 615.833007812 262.112304688 643.333007812 287.112304688 666 c 0
 312.112304688 688.666992188 339.9453125 706.5 370.612304688 719.5 c 0
 401.279296875 732.5 431.946289062 739 462.61328125 739 c 0
 538.61328125 739 588.11328125 708 611.11328125 646 c 0
 621.485351562 618.0390625 626.671875 584.586914062 626.671875 545.643554688 c 0
 626.671875 498.234375 618.985351562 442.686523438 603.61328125 379 c 0
 590.946289062 325.666992188 573.779296875 277.5 552.112304688 234.5 c 0
 530.4453125 191.5 506.278320312 155 479.611328125 125 c 0
 452.944335938 95 423.111328125 69.3330078125 390.111328125 48 c 0
 357.111328125 26.6669921875 323.444335938 10.5 289.111328125 -0.5 c 0
 254.778320312 -11.5 218.9453125 -18.6669921875 181.612304688 -22 c 0
273.609375 490.995117188 m 0
 267.879882812 466.268554688 265.015625 444.237304688 265.015625 424.8984375 c 0
 265.015625 401.482421875 269.215820312 382.015625 277.61328125 366.498046875 c 0
 292.946289062 338.165039062 322.279296875 323.998046875 365.612304688 323.998046875 c 0
 392.9453125 323.998046875 421.278320312 330.665039062 450.611328125 343.998046875 c 0
 479.944335938 357.331054688 504.944335938 375.6640625 525.611328125 398.997070312 c 1
 530.944335938 418.330078125 536.944335938 447.663085938 543.611328125 486.99609375 c 0
 545.111328125 497.99609375 545.861328125 509.088867188 545.861328125 520.276367188 c 0
 545.861328125 524.005859375 545.778320312 527.74609375 545.611328125 531.49609375 c 0
 544.944335938 546.49609375 542.27734375 561.663085938 537.610351562 576.99609375 c 0
 532.943359375 592.329101562 526.776367188 605.662109375 519.109375 616.995117188 c 0
 511.442382812 628.328125 500.942382812 637.495117188 487.609375 644.495117188 c 0
 474.276367188 651.495117188 459.276367188 654.995117188 442.609375 654.995117188 c 0
 419.276367188 654.995117188 395.776367188 646.995117188 372.109375 630.995117188 c 0
 348.442382812 614.995117188 327.609375 594.495117188 309.609375 569.495117188 c 0
 291.609375 544.495117188 279.609375 518.328125 273.609375 490.995117188 c 0
EndSplineSet
Validated: 524289
EndChar

StartChar: colon
Encoding: 58 58 37
Width: 590
GlyphClass: 2
Flags: HMW
VStem: 254.892 192.996
LayerCount: 2
Fore
SplineSet
447.887695312 417 m 0
 444.5546875 395 436.891601562 371.6640625 424.891601562 346.997070312 c 0
 418.891601562 333.6640625 409.891601562 323.497070312 397.891601562 316.497070312 c 0
 386.935546875 310.106445312 376.8125 306.91015625 367.5234375 306.91015625 c 0
 366.638671875 306.91015625 365.76171875 306.939453125 364.891601562 306.997070312 c 0
 331.831054688 308.80078125 315.301757812 321.442382812 315.301757812 344.924804688 c 0
 315.301757812 347.486328125 315.498046875 350.177734375 315.891601562 352.997070312 c 0
 318.55859375 370.997070312 323.225585938 393.997070312 329.892578125 421.997070312 c 0
 331.892578125 430.6640625 335.892578125 437.831054688 341.892578125 443.498046875 c 0
 347.892578125 449.165039062 354.559570312 453.33203125 361.892578125 455.999023438 c 0
 369.225585938 458.666015625 376.05859375 460.333007812 382.391601562 461 c 0
 388.724609375 461.666992188 395.224609375 462 401.891601562 462 c 0
 407.224609375 462 412.557617188 461.333007812 417.890625 460 c 0
 423.223632812 458.666992188 428.556640625 456.5 433.889648438 453.5 c 0
 439.22265625 450.5 443.055664062 445.833007812 445.388671875 439.5 c 0
 447.721679688 433.166992188 448.5546875 425.666992188 447.887695312 417 c 0
386.891601562 149.997070312 m 0
 385.55859375 126.6640625 378.892578125 102.66015625 366.892578125 77.9931640625 c 0
 360.892578125 64.66015625 350.892578125 54.8271484375 336.892578125 48.494140625 c 0
 324.2265625 42.7646484375 312.924804688 39.8994140625 302.987304688 39.8994140625 c 0
 301.940429688 39.8994140625 300.909179688 39.931640625 299.892578125 39.9951171875 c 0
 287.225585938 40.662109375 276.05859375 44.8291015625 266.391601562 52.49609375 c 0
 258.381835938 58.8486328125 254.376953125 67.375 254.376953125 78.0751953125 c 0
 254.376953125 80.2890625 254.548828125 82.595703125 254.891601562 84.99609375 c 0
 257.55859375 98.99609375 259.225585938 107.829101562 259.892578125 111.49609375 c 0
 260.559570312 115.163085938 262.392578125 121.99609375 265.392578125 131.99609375 c 0
 268.392578125 141.99609375 270.559570312 149.663085938 271.892578125 154.99609375 c 0
 273.892578125 162.99609375 277.725585938 169.99609375 283.392578125 175.99609375 c 0
 289.059570312 181.99609375 295.392578125 186.163085938 302.392578125 188.49609375 c 0
 309.392578125 190.829101562 316.059570312 192.49609375 322.392578125 193.49609375 c 0
 328.725585938 194.49609375 334.892578125 194.99609375 340.892578125 194.99609375 c 0
 348.225585938 194.99609375 355.225585938 193.829101562 361.892578125 191.49609375 c 0
 368.559570312 189.163085938 374.559570312 184.330078125 379.892578125 176.997070312 c 0
 385.225585938 169.6640625 387.55859375 160.6640625 386.891601562 149.997070312 c 0
EndSplineSet
Validated: 524289
EndChar

StartChar: semicolon
Encoding: 59 59 38
Width: 590
GlyphClass: 2
Flags: HMW
VStem: 166.4 300.994
LayerCount: 2
Fore
SplineSet
467.393554688 375 m 0
 464.060546875 353 456.065429688 329.666015625 443.3984375 304.999023438 c 0
 437.3984375 291.666015625 428.3984375 281.499023438 416.3984375 274.499023438 c 0
 405.442382812 268.108398438 395.59765625 264.912109375 386.864257812 264.912109375 c 0
 386.032226562 264.912109375 385.209960938 264.94140625 384.3984375 264.999023438 c 0
 376.3984375 265.666015625 368.565429688 267.499023438 360.8984375 270.499023438 c 0
 353.231445312 273.499023438 346.564453125 278.666015625 340.897460938 285.999023438 c 0
 335.23046875 293.33203125 333.063476562 301.999023438 334.396484375 311.999023438 c 0
 337.063476562 329.999023438 342.396484375 352.999023438 350.396484375 380.999023438 c 0
 352.396484375 388.999023438 356.229492188 395.999023438 361.896484375 401.999023438 c 0
 367.563476562 407.999023438 374.063476562 412.166015625 381.396484375 414.499023438 c 0
 388.729492188 416.83203125 395.729492188 418.499023438 402.396484375 419.499023438 c 0
 409.063476562 420.499023438 415.063476562 420.666015625 420.396484375 419.999023438 c 0
 426.396484375 419.999023438 432.063476562 419.499023438 437.396484375 418.499023438 c 0
 442.729492188 417.499023438 448.0625 415.33203125 453.395507812 411.999023438 c 0
 458.728515625 408.666015625 462.561523438 403.833007812 464.89453125 397.5 c 0
 467.227539062 391.166992188 468.060546875 383.666992188 467.393554688 375 c 0
379.3984375 73.9990234375 m 0
 372.731445312 52.666015625 332.399414062 -34.3349609375 258.399414062 -187.001953125 c 0
 251.732421875 -201.001953125 243.232421875 -211.168945312 232.899414062 -217.501953125 c 0
 223.55078125 -223.231445312 214.338867188 -226.096679688 205.262695312 -226.096679688 c 0
 204.306640625 -226.096679688 203.352539062 -226.064453125 202.399414062 -226.000976562 c 0
 189.732421875 -225.333984375 179.399414062 -221.000976562 171.399414062 -213.000976562 c 0
 166.346679688 -207.948242188 163.8203125 -201.69921875 163.8203125 -194.252929688 c 0
 163.8203125 -189.909179688 164.6796875 -185.159179688 166.399414062 -180.000976562 c 0
 171.06640625 -164.000976562 186.56640625 -125.000976562 212.899414062 -63.0009765625 c 0
 239.232421875 -1.0009765625 259.732421875 46.33203125 274.399414062 78.9990234375 c 0
 279.06640625 88.9990234375 283.899414062 96.9990234375 288.899414062 102.999023438 c 0
 293.899414062 108.999023438 298.732421875 112.999023438 303.399414062 114.999023438 c 0
 308.06640625 116.999023438 313.06640625 118.33203125 318.399414062 118.999023438 c 0
 323.732421875 119.666015625 328.399414062 119.666015625 332.399414062 118.999023438 c 0
 338.399414062 118.999023438 344.399414062 118.166015625 350.399414062 116.499023438 c 0
 356.399414062 114.83203125 362.232421875 112.499023438 367.899414062 109.499023438 c 0
 373.56640625 106.499023438 377.56640625 101.999023438 379.899414062 95.9990234375 c 0
 382.232421875 89.9990234375 382.065429688 82.666015625 379.3984375 73.9990234375 c 0
EndSplineSet
Validated: 524289
EndChar

StartChar: less
Encoding: 60 60 39
Width: 590
GlyphClass: 2
Flags: W
HStem: -12.3984 21G<469.678 475.411>
LayerCount: 2
Fore
SplineSet
525.502929688 14 m 0
 520.8359375 7.3330078125 515.00390625 1.66796875 508.00390625 -2.9990234375 c 0
 501.00390625 -7.666015625 492.00390625 -10.666015625 481.00390625 -11.9990234375 c 0
 478.8046875 -12.265625 476.557617188 -12.3984375 474.264648438 -12.3984375 c 0
 465.090820312 -12.3984375 455.170898438 -10.265625 444.50390625 -5.9990234375 c 0
 430.50390625 -0.666015625 414.170898438 11.0009765625 395.50390625 29.0009765625 c 0
 376.836914062 47.0009765625 357.169921875 68.5009765625 336.502929688 93.5009765625 c 0
 315.8359375 118.500976562 295.502929688 144.000976562 275.502929688 170.000976562 c 0
 255.502929688 196.000976562 234.3359375 222.833984375 212.002929688 250.500976562 c 0
 189.669921875 278.16796875 170.169921875 299.66796875 153.502929688 315.000976562 c 0
 146.8359375 321.000976562 143.502929688 330.000976562 143.502929688 342.000976562 c 0
 143.502929688 354.000976562 146.3359375 365.500976562 152.002929688 376.500976562 c 0
 157.669921875 387.500976562 164.836914062 395.333984375 173.50390625 400.000976562 c 0
 214.836914062 428.000976562 264.336914062 463.16796875 322.00390625 505.500976562 c 0
 379.670898438 547.833984375 432.170898438 586.166992188 479.50390625 620.5 c 0
 526.836914062 654.833007812 568.169921875 682 603.502929688 702 c 0
 614.8359375 708.666992188 624.8359375 712.166992188 633.502929688 712.5 c 0
 642.169921875 712.833007812 649.169921875 711.166015625 654.502929688 707.499023438 c 0
 659.8359375 703.83203125 664.002929688 699.33203125 667.002929688 693.999023438 c 0
 670.002929688 688.666015625 672.169921875 682.999023438 673.502929688 676.999023438 c 0
 674.095703125 674.48046875 674.391601562 671.953125 674.391601562 669.41796875 c 0
 674.391601562 660.545898438 670.762695312 651.573242188 663.50390625 642.499023438 c 0
 654.170898438 630.83203125 637.170898438 616.999023438 612.50390625 600.999023438 c 0
 571.836914062 574.999023438 509.169921875 532.33203125 424.502929688 472.999023438 c 0
 339.8359375 413.666015625 286.168945312 375.999023438 263.501953125 359.999023438 c 1
 282.834960938 339.999023438 304.001953125 315.83203125 327.001953125 287.499023438 c 0
 350.001953125 259.166015625 370.001953125 233.499023438 387.001953125 210.499023438 c 0
 404.001953125 187.499023438 422.834960938 163.999023438 443.501953125 139.999023438 c 0
 464.168945312 115.999023438 482.8359375 96.9990234375 499.502929688 82.9990234375 c 0
 516.169921875 68.9990234375 526.502929688 56.83203125 530.502929688 46.4990234375 c 0
 531.915039062 42.8525390625 532.620117188 39.142578125 532.620117188 35.3720703125 c 0
 532.620117188 28.45703125 530.248046875 21.3330078125 525.502929688 14 c 0
EndSplineSet
Validated: 524289
EndChar

StartChar: equal
Encoding: 61 61 40
Width: 590
GlyphClass: 2
Flags: HMW
HStem: 246.996 83<209.86 238.527> 442.999 85.001
LayerCount: 2
Fore
SplineSet
281.528320312 528 m 0
 316.861328125 526.666992188 353.02734375 525.99609375 390.02734375 525.99609375 c 0
 427.02734375 525.99609375 461.860351562 526.329101562 494.52734375 526.99609375 c 0
 527.194335938 527.663085938 546.861328125 527.99609375 553.528320312 527.99609375 c 0
 568.1953125 527.99609375 577.528320312 524.663085938 581.528320312 517.99609375 c 0
 585.528320312 511.329101562 586.528320312 502.329101562 584.528320312 490.99609375 c 0
 583.1953125 484.99609375 581.528320312 479.49609375 579.528320312 474.49609375 c 0
 577.528320312 469.49609375 574.528320312 464.663085938 570.528320312 459.99609375 c 0
 566.528320312 455.329101562 561.528320312 451.829101562 555.528320312 449.49609375 c 0
 549.528320312 447.163085938 542.861328125 446.330078125 535.528320312 446.997070312 c 0
 520.854492188 447.442382812 505.513671875 447.6640625 489.504882812 447.6640625 c 0
 481.512695312 447.6640625 473.353515625 447.609375 465.028320312 447.498046875 c 0
 440.028320312 447.165039062 405.6953125 446.33203125 362.028320312 444.999023438 c 0
 318.361328125 443.666015625 286.528320312 442.999023438 266.528320312 442.999023438 c 0
 251.1953125 442.999023438 240.028320312 446.999023438 233.028320312 454.999023438 c 0
 226.028320312 462.999023438 223.861328125 472.666015625 226.528320312 483.999023438 c 0
 228.528320312 496.666015625 234.361328125 507.333007812 244.028320312 516 c 0
 253.004882812 524.047851562 264.422851562 528.071289062 278.28515625 528.071289062 c 0
 279.3515625 528.071289062 280.432617188 528.047851562 281.528320312 528 c 0
238.52734375 329.99609375 m 0
 254.778320312 329.7734375 271.958984375 329.662109375 290.069335938 329.662109375 c 0
 326.19140625 329.662109375 366.009765625 330.10546875 409.526367188 330.993164062 c 0
 474.859375 332.326171875 507.859375 332.993164062 508.526367188 332.993164062 c 0
 523.193359375 332.993164062 532.526367188 329.493164062 536.526367188 322.493164062 c 0
 540.526367188 315.493164062 541.526367188 306.326171875 539.526367188 294.993164062 c 0
 538.193359375 288.993164062 536.360351562 283.493164062 534.02734375 278.493164062 c 0
 531.694335938 273.493164062 528.694335938 268.66015625 525.02734375 263.993164062 c 0
 521.360351562 259.326171875 516.52734375 255.826171875 510.52734375 253.493164062 c 0
 504.52734375 251.16015625 497.860351562 250.327148438 490.52734375 250.994140625 c 0
 475.853515625 251.439453125 460.364257812 251.661132812 444.059570312 251.661132812 c 0
 435.918945312 251.661132812 427.57421875 251.606445312 419.02734375 251.495117188 c 0
 393.360351562 251.162109375 358.360351562 250.329101562 314.02734375 248.99609375 c 0
 269.694335938 247.663085938 237.52734375 246.99609375 217.52734375 246.99609375 c 0
 202.194335938 246.99609375 191.694335938 251.163085938 186.02734375 259.49609375 c 0
 182.173828125 265.162109375 180.247070312 271.676757812 180.247070312 279.0390625 c 0
 180.247070312 282.50390625 180.673828125 286.15625 181.52734375 289.99609375 c 0
 183.52734375 301.329101562 189.52734375 310.829101562 199.52734375 318.49609375 c 0
 209.52734375 326.163085938 222.52734375 329.99609375 238.52734375 329.99609375 c 0
EndSplineSet
Validated: 524289
EndChar

StartChar: greater
Encoding: 62 62 41
Width: 590
GlyphClass: 2
Flags: W
LayerCount: 2
Fore
SplineSet
146.201171875 5 m 0
 135.534179688 -1 125.700195312 -4.333984375 116.700195312 -5.0009765625 c 0
 107.700195312 -5.66796875 100.533203125 -4.16796875 95.2001953125 -0.5009765625 c 0
 89.8671875 3.166015625 85.7001953125 7.666015625 82.7001953125 12.9990234375 c 0
 79.7001953125 18.33203125 77.533203125 23.9990234375 76.2001953125 29.9990234375 c 0
 75.607421875 32.517578125 75.3115234375 35.044921875 75.3115234375 37.580078125 c 0
 75.3115234375 46.4521484375 78.9404296875 55.4248046875 86.19921875 64.4990234375 c 0
 95.5322265625 76.166015625 112.865234375 89.9990234375 138.198242188 105.999023438 c 0
 178.865234375 131.999023438 241.365234375 174.666015625 325.698242188 233.999023438 c 0
 410.03125 293.33203125 463.864257812 330.999023438 487.197265625 346.999023438 c 1
 467.864257812 366.999023438 446.53125 391.166015625 423.198242188 419.499023438 c 0
 399.865234375 447.83203125 379.532226562 473.499023438 362.19921875 496.499023438 c 0
 344.866210938 519.499023438 326.033203125 542.999023438 305.700195312 566.999023438 c 0
 285.3671875 590.999023438 266.8671875 609.999023438 250.200195312 623.999023438 c 0
 233.533203125 637.999023438 223.200195312 650.166015625 219.200195312 660.499023438 c 0
 217.788085938 664.145507812 217.083007812 667.85546875 217.083007812 671.625976562 c 0
 217.083007812 678.541015625 219.455078125 685.665039062 224.200195312 692.998046875 c 0
 228.8671875 699.665039062 234.700195312 705.33203125 241.700195312 709.999023438 c 0
 248.700195312 714.666015625 257.700195312 717.666015625 268.700195312 718.999023438 c 0
 270.899414062 719.265625 273.146484375 719.3984375 275.439453125 719.3984375 c 0
 284.61328125 719.3984375 294.533203125 717.265625 305.200195312 712.999023438 c 0
 319.200195312 707.666015625 335.700195312 696.166015625 354.700195312 678.499023438 c 0
 373.700195312 660.83203125 393.3671875 639.33203125 413.700195312 613.999023438 c 0
 434.033203125 588.666015625 454.200195312 562.999023438 474.200195312 536.999023438 c 0
 494.200195312 510.999023438 515.3671875 484.33203125 537.700195312 456.999023438 c 0
 560.033203125 429.666015625 579.866210938 407.999023438 597.19921875 391.999023438 c 0
 603.19921875 385.999023438 606.032226562 376.999023438 605.69921875 364.999023438 c 0
 605.366210938 352.999023438 602.533203125 341.499023438 597.200195312 330.499023438 c 0
 591.8671875 319.499023438 584.8671875 311.666015625 576.200195312 306.999023438 c 0
 534.8671875 278.999023438 485.3671875 243.83203125 427.700195312 201.499023438 c 0
 370.033203125 159.166015625 317.533203125 120.833007812 270.200195312 86.5 c 0
 222.8671875 52.1669921875 181.534179688 25 146.201171875 5 c 0
EndSplineSet
Validated: 524289
EndChar

StartChar: question
Encoding: 63 63 42
Width: 590
GlyphClass: 2
Flags: HMW
HStem: -14.0039 153.998 637.999 84.001<436.135 448.799>
VStem: 210.469 151 286.467 95.001
LayerCount: 2
Fore
SplineSet
381.467773438 262 m 0xd0
 374.80078125 244.666992188 365.966796875 231.330078125 354.966796875 221.997070312 c 0
 347.633789062 215.775390625 339.189453125 212.6640625 329.634765625 212.6640625 c 0
 324.856445312 212.6640625 319.80078125 213.442382812 314.466796875 214.998046875 c 0
 298.466796875 219.665039062 289.133789062 228.33203125 286.466796875 240.999023438 c 0
 285.905273438 243.666015625 285.625 246.524414062 285.625 249.576171875 c 0
 285.625 261.016601562 289.572265625 275.157226562 297.466796875 291.999023438 c 0
 306.133789062 309.999023438 316.466796875 326.999023438 328.466796875 342.999023438 c 0
 340.466796875 358.999023438 352.633789062 372.666015625 364.966796875 383.999023438 c 0
 377.299804688 395.33203125 390.1328125 406.165039062 403.465820312 416.498046875 c 0
 416.798828125 426.831054688 429.465820312 436.498046875 441.465820312 445.498046875 c 0
 453.465820312 454.498046875 464.6328125 463.665039062 474.965820312 472.998046875 c 0
 485.298828125 482.331054688 494.131835938 492.498046875 501.46484375 503.498046875 c 0
 508.797851562 514.498046875 513.797851562 526.331054688 516.46484375 538.998046875 c 0
 519.247070312 551.055664062 520.638671875 561.96484375 520.638671875 571.724609375 c 0
 520.638671875 590.0234375 515.747070312 604.28125 505.96484375 614.499023438 c 0
 490.96484375 630.166015625 466.131835938 637.999023438 431.46484375 637.999023438 c 0
 422.797851562 637.999023438 413.46484375 635.83203125 403.46484375 631.499023438 c 0
 393.46484375 627.166015625 384.797851562 622.333007812 377.46484375 617 c 0
 370.131835938 611.666992188 361.631835938 604.5 351.96484375 595.5 c 0
 342.297851562 586.5 334.797851562 578.833007812 329.46484375 572.5 c 0
 324.131835938 566.166992188 317.798828125 558.666992188 310.465820312 550 c 0
 303.1328125 541.333007812 296.299804688 534.5 289.966796875 529.5 c 0
 283.633789062 524.5 277.80078125 521.833007812 272.467773438 521.5 c 0
 267.134765625 521.166992188 262.301757812 521.5 257.96875 522.5 c 0
 253.635742188 523.5 248.135742188 525.666992188 241.46875 529 c 0
 232.135742188 535 227.635742188 543.666992188 227.96875 555 c 0
 228.301757812 566.333007812 234.46875 581 246.46875 599 c 0
 256.46875 613 267.801757812 626.5 280.46875 639.5 c 0
 293.135742188 652.5 308.135742188 665.5 325.46875 678.5 c 0
 342.801757812 691.5 362.134765625 702 383.467773438 710 c 0
 404.80078125 718 425.80078125 722 446.467773438 722 c 0
 513.80078125 722 560.967773438 705.333007812 587.967773438 672 c 0
 605.188476562 650.740234375 613.797851562 622.701171875 613.797851562 587.881835938 c 0
 613.797851562 568.107421875 611.021484375 546.147460938 605.467773438 522 c 0
 601.467773438 504 594.967773438 487.666992188 585.967773438 473 c 0
 576.967773438 458.333007812 566.967773438 445.666015625 555.967773438 434.999023438 c 0
 544.967773438 424.33203125 532.967773438 414.33203125 519.967773438 404.999023438 c 0
 506.967773438 395.666015625 493.80078125 386.333007812 480.467773438 377 c 0
 467.134765625 367.666992188 454.301757812 358 441.96875 348 c 0
 429.635742188 338 418.135742188 325.5 407.46875 310.5 c 0
 396.801757812 295.5 388.134765625 279.333007812 381.467773438 262 c 0xd0
270.466796875 -14.00390625 m 0
 267.096679688 -14.3779296875 263.858398438 -14.5654296875 260.751953125 -14.5654296875 c 0
 241.731445312 -14.5654296875 227.638671875 -7.5478515625 218.469726562 6.4921875 c 0
 211.358398438 17.380859375 207.802734375 29.5302734375 207.802734375 42.9375 c 0
 207.802734375 49.6416015625 208.69140625 56.6591796875 210.46875 63.9921875 c 0
 215.135742188 84.6591796875 227.135742188 102.326171875 246.46875 116.993164062 c 0
 265.801757812 131.66015625 285.46875 139.327148438 305.46875 139.994140625 c 0
 306.447265625 140.0234375 307.4140625 140.0390625 308.369140625 140.0390625 c 0
 328.89453125 140.0390625 344.094726562 133.190429688 353.96875 119.495117188 c 0
 360.784179688 110.041015625 364.192382812 98.919921875 364.192382812 86.1298828125 c 0
 364.192382812 79.529296875 363.284179688 72.484375 361.46875 64.9951171875 c 0xe0
 356.801757812 43.662109375 346.134765625 25.8291015625 329.467773438 11.49609375 c 0
 312.80078125 -2.8369140625 293.133789062 -11.3369140625 270.466796875 -14.00390625 c 0
EndSplineSet
Validated: 524289
EndChar

StartChar: at
Encoding: 64 64 43
Width: 590
GlyphClass: 2
Flags: HMW
HStem: -129 84.9961<240.875 289.206> 102.002 77.9951<441.875 484.873> 118.002 79.9941<322.873 331.208> 612.994 90.0078<454.539 458.208>
VStem: 90.7059 85.501 407.207 81 557.708 75.499
LayerCount: 2
Fore
SplineSet
488.202148438 5 m 0xde
 482.869140625 -4.3330078125 477.54296875 -12.5009765625 472.209960938 -19.5009765625 c 0
 466.876953125 -26.5009765625 460.209960938 -35.16796875 452.209960938 -45.5009765625 c 0
 444.209960938 -55.833984375 435.876953125 -64.6669921875 427.209960938 -72 c 0
 418.54296875 -79.3330078125 408.209960938 -86.8330078125 396.209960938 -94.5 c 0
 384.209960938 -102.166992188 371.54296875 -108.5 358.209960938 -113.5 c 0
 344.876953125 -118.5 329.376953125 -122.5 311.709960938 -125.5 c 0
 297.255859375 -127.954101562 282.466796875 -129.181640625 267.342773438 -129.181640625 c 0
 263.981445312 -129.181640625 260.603515625 -129.12109375 257.208984375 -129 c 0
 224.541992188 -129 195.875 -120.333007812 171.208007812 -103 c 0
 146.541015625 -85.6669921875 127.374023438 -61.5 113.70703125 -30.5 c 0
 100.040039062 0.5 92.373046875 38.1669921875 90.7060546875 82.5 c 0
 90.5029296875 87.9072265625 90.4013671875 93.3759765625 90.4013671875 98.9072265625 c 0
 90.4013671875 138.725585938 95.669921875 181.756835938 106.206054688 228 c 0
 120.206054688 286.666992188 137.206054688 341.333984375 157.206054688 392.000976562 c 0
 177.206054688 442.66796875 199.373046875 486.834960938 223.706054688 524.501953125 c 0
 248.0390625 562.168945312 273.706054688 594.501953125 300.706054688 621.501953125 c 0
 327.706054688 648.501953125 355.5390625 668.834960938 384.206054688 682.501953125 c 0
 412.873046875 696.168945312 440.873046875 703.001953125 468.206054688 703.001953125 c 0
 488.873046875 703.001953125 507.373046875 701.168945312 523.706054688 697.501953125 c 0
 540.0390625 693.834960938 555.206054688 687.834960938 569.206054688 679.501953125 c 0
 583.206054688 671.168945312 594.5390625 660.001953125 603.206054688 646.001953125 c 0
 611.873046875 632.001953125 619.040039062 614.501953125 624.70703125 593.501953125 c 0
 630.374023438 572.501953125 633.20703125 548.001953125 633.20703125 520.001953125 c 0
 633.20703125 492.001953125 630.540039062 459.001953125 625.20703125 421.001953125 c 0
 619.874023438 383.001953125 611.874023438 340.334960938 601.20703125 293.001953125 c 0
 595.874023438 269.001953125 589.041015625 246.168945312 580.708007812 224.501953125 c 0
 572.375 202.834960938 562.541992188 182.501953125 551.208984375 163.501953125 c 0
 539.875976562 144.501953125 526.708984375 129.501953125 511.708984375 118.501953125 c 0
 496.708984375 107.501953125 480.875976562 102.001953125 464.208984375 102.001953125 c 0xde
 425.840820312 102.001953125 406.657226562 122.662109375 406.657226562 163.981445312 c 0
 406.657226562 170.764648438 407.173828125 178.104492188 408.208007812 186.001953125 c 1
 383.541015625 140.668945312 351.208007812 118.001953125 311.208007812 118.001953125 c 0
 274.541015625 118.001953125 248.874023438 130.334960938 234.20703125 155.001953125 c 0
 226.140625 168.568359375 222.106445312 186.068359375 222.106445312 207.5 c 0
 222.106445312 225.03515625 224.806640625 245.202148438 230.20703125 268.002929688 c 0
 236.20703125 293.3359375 244.20703125 316.668945312 254.20703125 338.001953125 c 0
 264.20703125 359.334960938 275.374023438 377.501953125 287.70703125 392.501953125 c 0
 300.040039062 407.501953125 313.540039062 420.168945312 328.20703125 430.501953125 c 0
 342.874023438 440.834960938 357.70703125 448.16796875 372.70703125 452.500976562 c 0
 385.706054688 456.255859375 398.705078125 458.133789062 411.704101562 458.133789062 c 0
 417.70703125 458 l 0
 432.70703125 457.333007812 446.874023438 453.666015625 460.20703125 446.999023438 c 0
 473.540039062 440.999023438 483.20703125 432.999023438 489.20703125 422.999023438 c 0
 495.20703125 412.999023438 495.20703125 403.999023438 489.20703125 395.999023438 c 0
 485.874023438 390.666015625 482.20703125 386.333007812 478.20703125 383 c 0
 474.20703125 379.666992188 469.874023438 377.333984375 465.20703125 376.000976562 c 0
 460.540039062 374.66796875 456.373046875 373.66796875 452.706054688 373.000976562 c 0
 449.0390625 372.333984375 444.372070312 372.500976562 438.705078125 373.500976562 c 0
 433.038085938 374.500976562 428.705078125 375.333984375 425.705078125 376.000976562 c 0
 422.705078125 376.66796875 418.538085938 378.000976562 413.205078125 380.000976562 c 0
 405.872070312 381.333984375 398.0390625 381.666992188 389.706054688 381 c 0
 381.373046875 380.333007812 373.040039062 377.5 364.70703125 372.5 c 0
 356.374023438 367.5 348.374023438 361.166992188 340.70703125 353.5 c 0
 333.040039062 345.833007812 326.040039062 335.666015625 319.70703125 322.999023438 c 0
 313.374023438 310.33203125 308.20703125 295.999023438 304.20703125 279.999023438 c 0
 302.20703125 271.33203125 300.874023438 263.165039062 300.20703125 255.498046875 c 0
 299.540039062 247.831054688 299.373046875 239.1640625 299.706054688 229.497070312 c 0
 300.0390625 219.830078125 302.5390625 212.163085938 307.206054688 206.49609375 c 0
 311.873046875 200.829101562 318.540039062 197.99609375 327.20703125 197.99609375 c 0xbe
 346.540039062 197.99609375 362.20703125 206.163085938 374.20703125 222.49609375 c 0
 386.20703125 238.829101562 397.20703125 265.99609375 407.20703125 303.99609375 c 0
 409.874023438 314.663085938 419.874023438 323.330078125 437.20703125 329.997070312 c 0
 448.014648438 334.2421875 457.48046875 336.365234375 465.606445312 336.365234375 c 0
 471.516601562 336.365234375 476.716796875 335.2421875 481.208007812 332.997070312 c 0
 488.541015625 329.6640625 490.874023438 322.997070312 488.20703125 312.997070312 c 0
 476.20703125 277.6640625 468.874023438 250.1640625 466.20703125 230.497070312 c 0
 464.874023438 220.6640625 464.20703125 212.4140625 464.20703125 205.747070312 c 0
 464.20703125 199.080078125 464.874023438 193.997070312 466.20703125 190.497070312 c 0
 468.874023438 183.497070312 474.20703125 179.997070312 482.20703125 179.997070312 c 0
 487.540039062 179.997070312 493.040039062 184.330078125 498.70703125 192.997070312 c 0
 504.374023438 201.6640625 509.541015625 212.997070312 514.208007812 226.997070312 c 0
 518.875 240.997070312 522.708007812 253.330078125 525.708007812 263.997070312 c 0
 528.708007812 274.6640625 531.208007812 284.997070312 533.208007812 294.997070312 c 0
 541.208007812 328.997070312 547.208007812 360.330078125 551.208007812 388.997070312 c 0
 555.208007812 417.6640625 557.375 442.1640625 557.708007812 462.497070312 c 0
 557.741210938 464.529296875 557.7578125 466.541015625 557.7578125 468.533203125 c 0
 557.7578125 486.474609375 556.408203125 502.794921875 553.708007812 517.49609375 c 0
 550.708007812 533.829101562 547.375 547.162109375 543.708007812 557.495117188 c 0
 540.041015625 567.828125 534.708007812 576.661132812 527.708007812 583.994140625 c 0
 520.708007812 591.327148438 514.375 596.827148438 508.708007812 600.494140625 c 0
 503.041015625 604.161132812 496.208007812 606.994140625 488.208007812 608.994140625 c 0
 480.208007812 610.994140625 474.208007812 612.161132812 470.208007812 612.494140625 c 0
 466.208007812 612.827148438 461.208007812 612.994140625 455.208007812 612.994140625 c 0
 430.541015625 612.994140625 405.374023438 604.661132812 379.70703125 587.994140625 c 0
 354.040039062 571.327148438 329.70703125 548.16015625 306.70703125 518.493164062 c 0
 283.70703125 488.826171875 262.374023438 451.993164062 242.70703125 407.993164062 c 0
 223.040039062 363.993164062 207.20703125 315.993164062 195.20703125 263.993164062 c 0
 184.540039062 218.66015625 178.20703125 177.827148438 176.20703125 141.494140625 c 0
 175.661132812 131.5859375 175.388671875 122.198242188 175.388671875 113.330078125 c 0
 175.388671875 89.6826171875 177.328125 69.7373046875 181.20703125 53.4951171875 c 0
 186.540039062 31.162109375 194.373046875 12.3291015625 204.706054688 -3.00390625 c 0
 215.0390625 -18.3369140625 226.5390625 -29.00390625 239.206054688 -35.00390625 c 0
 251.873046875 -41.00390625 265.873046875 -44.00390625 281.206054688 -44.00390625 c 0
 297.206054688 -44.00390625 312.373046875 -42.3369140625 326.706054688 -39.00390625 c 0
 341.0390625 -35.6708984375 353.206054688 -31.6708984375 363.206054688 -27.00390625 c 0
 373.206054688 -22.3369140625 383.0390625 -16.00390625 392.706054688 -8.00390625 c 0
 402.373046875 -0.00390625 410.373046875 7.3291015625 416.706054688 13.99609375 c 0
 423.0390625 20.6630859375 430.206054688 29.330078125 438.206054688 39.9970703125 c 0
 441.5390625 44.6640625 444.372070312 48.3310546875 446.705078125 50.998046875 c 0
 449.038085938 53.6650390625 451.87109375 56.83203125 455.204101562 60.4990234375 c 0
 458.537109375 64.166015625 461.370117188 66.8330078125 463.703125 68.5 c 0
 466.036132812 70.1669921875 468.703125 71.6669921875 471.703125 73 c 0
 474.703125 74.3330078125 477.703125 75 480.703125 75 c 0
 483.703125 75 486.536132812 74.3330078125 489.203125 73 c 0
 493.870117188 71 497.370117188 68.5 499.703125 65.5 c 0
 502.036132812 62.5 503.703125 58.5 504.703125 53.5 c 0
 505.703125 48.5 504.870117188 41.8330078125 502.203125 33.5 c 0
 499.536132812 25.1669921875 494.869140625 15.6669921875 488.202148438 5 c 0xde
EndSplineSet
Validated: 524289
EndChar

StartChar: A
Encoding: 65 65 44
Width: 590
GlyphClass: 2
Flags: HMW
HStem: 251 81.0059
VStem: 460.088 91.501
LayerCount: 2
Fore
SplineSet
141.087890625 41 m 2
 130.420898438 20.3330078125 118.420898438 6.671875 105.087890625 0.0048828125 c 0
 97.6806640625 -3.69921875 90.787109375 -5.55078125 84.408203125 -5.55078125 c 0
 79.3056640625 -5.55078125 74.5322265625 -4.3662109375 70.087890625 -1.99609375 c 0
 59.89453125 3.6279296875 54.796875 13.330078125 54.796875 27.109375 c 0
 54.796875 39.4638671875 58.89453125 55.0947265625 67.087890625 74.00390625 c 0
 75.7548828125 95.3369140625 105.754882812 147.336914062 157.087890625 230.00390625 c 1
 149.829101562 236.225585938 146.200195312 243.456054688 146.200195312 251.694335938 c 0
 146.200195312 254.048828125 146.49609375 256.485351562 147.088867188 259.00390625 c 0
 148.421875 268.336914062 154.421875 277.169921875 165.088867188 285.502929688 c 0
 175.755859375 293.8359375 188.088867188 300.3359375 202.088867188 305.002929688 c 1
 322.088867188 495.669921875 410.088867188 623.002929688 466.088867188 687.002929688 c 0
 478.088867188 700.3359375 488.421875 710.002929688 497.088867188 716.002929688 c 0
 505.755859375 722.002929688 514.422851562 725.002929688 523.08984375 725.002929688 c 0
 525.271484375 725.245117188 527.392578125 725.366210938 529.453125 725.366210938 c 0
 538.725585938 725.366210938 546.771484375 722.912109375 553.58984375 718.002929688 c 0
 560.7734375 712.830078125 564.365234375 704.4375 564.365234375 692.823242188 c 0
 564.365234375 690.965820312 564.2734375 689.025390625 564.08984375 687.002929688 c 0
 557.422851562 604.3359375 552.08984375 487.168945312 548.08984375 335.501953125 c 0
 546.58984375 278.625 545.83984375 230.819335938 545.83984375 192.083984375 c 0
 545.83984375 127.528320312 547.922851562 88.16796875 552.08984375 74.0009765625 c 0
 553.676757812 67.9697265625 554.470703125 62.203125 554.470703125 56.701171875 c 0
 554.470703125 50.6474609375 553.509765625 44.9140625 551.588867188 39.5009765625 c 0
 547.921875 29.16796875 542.754882812 20.5009765625 536.087890625 13.5009765625 c 0
 529.420898438 6.5009765625 522.087890625 1.333984375 514.087890625 -1.9990234375 c 0
 508.296875 -4.4365234375 502.750976562 -5.65625 497.447265625 -5.65625 c 0
 491.150390625 -5.65625 485.197265625 -3.9365234375 479.587890625 -0.4990234375 c 0
 469.254882812 5.833984375 462.754882812 19.6669921875 460.087890625 41 c 0
 459.021484375 49.2666015625 458.487304688 65.4267578125 458.487304688 89.4794921875 c 0
 458.487304688 125.559570312 459.6875 179.399414062 462.087890625 251 c 1
 382.087890625 247.666992188 309.754882812 240.666992188 245.087890625 230 c 1
 141.087890625 41 l 2
477.087890625 602.005859375 m 1
 439.754882812 557.338867188 379.087890625 462.672851562 295.087890625 318.005859375 c 1
 359.754882812 326.005859375 416.754882812 330.672851562 466.087890625 332.005859375 c 1
 477.087890625 602.005859375 l 1
EndSplineSet
Validated: 524289
EndChar

StartChar: B
Encoding: 66 66 45
Width: 590
GlyphClass: 2
Flags: HMW
HStem: -22.9961 21G<123.544 129.877> 297.005 72<312.211 316.21> 630.005 78.998<396.208 410.544>
LayerCount: 2
Fore
SplineSet
242.208007812 -14 m 0
 231.541015625 -14.6669921875 219.7109375 -15.662109375 206.7109375 -16.9951171875 c 0
 193.7109375 -18.328125 183.043945312 -19.328125 174.7109375 -19.9951171875 c 0
 166.377929688 -20.662109375 157.877929688 -21.3291015625 149.2109375 -21.99609375 c 0
 140.543945312 -22.6630859375 133.043945312 -22.99609375 126.7109375 -22.99609375 c 0
 120.377929688 -22.99609375 114.877929688 -22.3291015625 110.2109375 -20.99609375 c 2
 106.2109375 -20.99609375 l 2
 93.5439453125 -20.99609375 84.376953125 -16.49609375 78.7099609375 -7.49609375 c 0
 75.6025390625 -2.560546875 74.048828125 3.427734375 74.048828125 10.4677734375 c 0
 74.048828125 16.265625 75.1025390625 22.7783203125 77.2099609375 30.00390625 c 0
 85.876953125 58.00390625 98.876953125 111.336914062 116.209960938 190.00390625 c 0
 133.54296875 268.670898438 150.54296875 349.670898438 167.209960938 433.00390625 c 0
 176.54296875 477.670898438 182.875976562 507.670898438 186.208984375 523.00390625 c 0
 189.541992188 538.336914062 194.708984375 559.00390625 201.708984375 585.00390625 c 0
 208.708984375 611.00390625 213.541992188 629.00390625 216.208984375 639.00390625 c 0
 220.875976562 657.00390625 228.708984375 670.50390625 239.708984375 679.50390625 c 0
 250.708984375 688.50390625 262.541992188 693.00390625 275.208984375 693.00390625 c 2
 278.208984375 693.00390625 l 2
 288.875976562 696.336914062 300.04296875 699.169921875 311.709960938 701.502929688 c 0
 323.376953125 703.8359375 333.876953125 705.502929688 343.209960938 706.502929688 c 0
 352.54296875 707.502929688 362.375976562 708.169921875 372.708984375 708.502929688 c 0
 383.041992188 708.8359375 390.875 709.002929688 396.208007812 709.002929688 c 2
 414.708007812 709.002929688 l 1
 425.208007812 709.002929688 l 2
 467.208007812 709.002929688 502.708007812 700.669921875 531.708007812 684.002929688 c 0
 560.708007812 667.3359375 581.208007812 643.168945312 593.208007812 611.501953125 c 0
 599.958007812 593.689453125 603.333007812 574.2421875 603.333007812 553.16015625 c 0
 603.333007812 536.762695312 601.291015625 519.376953125 597.208007812 501.001953125 c 0
 588.541015625 462.334960938 572.541015625 429.16796875 549.208007812 401.500976562 c 0
 525.875 373.833984375 498.208007812 353.666992188 466.208007812 341 c 1
 485.541015625 333.666992188 503.708007812 322.833984375 520.708007812 308.500976562 c 0
 537.708007812 294.16796875 550.875 278.16796875 560.208007812 260.500976562 c 0
 567.084960938 247.483398438 570.5234375 235.098632812 570.5234375 223.34765625 c 0
 570.5234375 219.151367188 570.084960938 215.036132812 569.208007812 211.000976562 c 0
 563.875 185.66796875 552.208007812 160.500976562 534.208007812 135.500976562 c 0
 516.208007812 110.500976562 493.375 87.66796875 465.708007812 67.0009765625 c 0
 438.041015625 46.333984375 404.708007812 28.6669921875 365.708007812 14 c 0
 326.708007812 -0.6669921875 285.541015625 -10 242.208007812 -14 c 0
405.2109375 630.004882812 m 0
 371.877929688 630.004882812 338.209960938 625.671875 304.209960938 617.004882812 c 1
 300.876953125 604.337890625 295.543945312 584.004882812 288.2109375 556.004882812 c 0
 280.877929688 528.004882812 273.377929688 498.337890625 265.7109375 467.004882812 c 0
 258.043945312 435.671875 250.543945312 403.671875 243.2109375 371.004882812 c 1
 271.877929688 369.671875 299.2109375 369.004882812 325.2109375 369.004882812 c 0
 343.877929688 369.004882812 361.377929688 370.671875 377.7109375 374.004882812 c 0
 394.043945312 377.337890625 408.043945312 381.670898438 419.7109375 387.00390625 c 0
 431.377929688 392.336914062 442.2109375 398.836914062 452.2109375 406.50390625 c 0
 462.2109375 414.170898438 470.543945312 422.00390625 477.2109375 430.00390625 c 0
 483.877929688 438.00390625 489.7109375 446.836914062 494.7109375 456.50390625 c 0
 499.7109375 466.170898438 503.543945312 474.837890625 506.2109375 482.504882812 c 0
 508.877929688 490.171875 511.2109375 498.338867188 513.2109375 507.005859375 c 0
 515.497070312 516.91015625 516.639648438 526.379882812 516.639648438 535.4140625 c 0
 516.639648438 542.189453125 515.997070312 548.719726562 514.7109375 555.005859375 c 0
 511.7109375 569.672851562 506.377929688 581.505859375 498.7109375 590.505859375 c 0
 491.043945312 599.505859375 481.7109375 607.172851562 470.7109375 613.505859375 c 0
 459.7109375 619.838867188 448.7109375 624.171875 437.7109375 626.504882812 c 0
 426.7109375 628.837890625 415.877929688 630.004882812 405.2109375 630.004882812 c 0
316.209960938 297.004882812 m 1
 270.876953125 297.004882812 241.208007812 296.670898438 227.208007812 296.00390625 c 1
 205.208007812 188.670898438 189.875 112.337890625 181.208007812 67.0048828125 c 1
 187.875 67.0048828125 199.041992188 67.337890625 214.708984375 68.0048828125 c 0
 230.375976562 68.671875 242.54296875 69.0048828125 251.209960938 69.0048828125 c 0
 279.876953125 70.337890625 307.876953125 75.6708984375 335.209960938 85.00390625 c 0
 362.54296875 94.3369140625 385.54296875 105.50390625 404.209960938 118.50390625 c 0
 422.876953125 131.50390625 438.376953125 145.170898438 450.709960938 159.50390625 c 0
 463.04296875 173.836914062 470.875976562 187.00390625 474.208984375 199.00390625 c 0
 476.208984375 207.670898438 474.708984375 216.337890625 469.708984375 225.004882812 c 0
 464.708984375 233.671875 456.541992188 242.671875 445.208984375 252.004882812 c 0
 433.875976562 261.337890625 417.04296875 270.004882812 394.709960938 278.004882812 c 0
 372.376953125 286.004882812 346.209960938 292.337890625 316.209960938 297.004882812 c 1
EndSplineSet
Validated: 524289
EndChar

StartChar: C
Encoding: 67 67 46
Width: 590
GlyphClass: 2
Flags: HMW
HStem: -31.002 90.0029<240.805 295.471> 632.001 80.9961<525.805 527.805>
VStem: 565.471 77
LayerCount: 2
Fore
SplineSet
521.47265625 64 m 0
 455.4921875 0.607421875 369.426757812 -31.0908203125 263.276367188 -31.0908203125 c 0
 260.026367188 -31.0908203125 256.758789062 -31.0615234375 253.471679688 -31.001953125 c 0
 228.138671875 -31.001953125 205.305664062 -26.3349609375 184.97265625 -17.001953125 c 0
 164.639648438 -7.6689453125 148.139648438 4.6640625 135.47265625 19.9970703125 c 0
 122.805664062 35.330078125 112.805664062 53.1630859375 105.47265625 73.49609375 c 0
 98.1396484375 93.8291015625 94.1396484375 115.49609375 93.47265625 138.49609375 c 0
 93.40625 140.796875 93.373046875 143.099609375 93.373046875 145.403320312 c 0
 93.373046875 166.1328125 96.0732421875 186.997070312 101.47265625 207.99609375 c 0
 112.805664062 256.663085938 128.305664062 303.663085938 147.97265625 348.99609375 c 0
 167.639648438 394.329101562 189.639648438 435.329101562 213.97265625 471.99609375 c 0
 238.305664062 508.663085938 264.638671875 542.330078125 292.971679688 572.997070312 c 0
 321.3046875 603.6640625 349.471679688 629.1640625 377.471679688 649.497070312 c 0
 405.471679688 669.830078125 433.3046875 685.497070312 460.971679688 696.497070312 c 0
 488.638671875 707.497070312 514.138671875 712.997070312 537.471679688 712.997070312 c 0
 560.138671875 712.997070312 580.471679688 710.330078125 598.471679688 704.997070312 c 1
 603.138671875 714.997070312 609.638671875 723.1640625 617.971679688 729.497070312 c 0
 626.3046875 735.830078125 635.137695312 739.330078125 644.470703125 739.997070312 c 0
 655.137695312 741.997070312 664.8046875 739.497070312 673.471679688 732.497070312 c 0
 682.138671875 725.497070312 686.471679688 715.330078125 686.471679688 701.997070312 c 0
 686.471679688 691.997070312 685.8046875 682.1640625 684.471679688 672.497070312 c 0
 683.138671875 662.830078125 681.638671875 653.330078125 679.971679688 643.997070312 c 0
 678.3046875 634.6640625 676.8046875 626.997070312 675.471679688 620.997070312 c 0
 674.138671875 614.997070312 672.471679688 607.997070312 670.471679688 599.997070312 c 0
 668.471679688 591.997070312 667.138671875 586.997070312 666.471679688 584.997070312 c 0
 663.138671875 570.997070312 655.138671875 556.830078125 642.471679688 542.497070312 c 0
 629.8046875 528.1640625 618.137695312 520.331054688 607.470703125 518.998046875 c 0
 605.1484375 518.611328125 602.875976562 518.416992188 600.653320312 518.416992188 c 0
 591.391601562 518.416992188 582.997070312 521.77734375 575.470703125 528.498046875 c 0
 568.211914062 534.979492188 564.583007812 543.174804688 564.583007812 553.083007812 c 0
 564.583007812 555.915039062 564.87890625 558.88671875 565.471679688 561.998046875 c 0
 566.8046875 567.331054688 570.8046875 581.331054688 577.471679688 603.998046875 c 0
 576.8046875 604.665039062 574.3046875 606.83203125 569.971679688 610.499023438 c 0
 565.638671875 614.166015625 562.471679688 616.833007812 560.471679688 618.5 c 0
 558.471679688 620.166992188 555.3046875 622.333984375 550.971679688 625.000976562 c 0
 546.638671875 627.66796875 542.471679688 629.500976562 538.471679688 630.500976562 c 0
 534.471679688 631.500976562 530.138671875 632.000976562 525.471679688 632.000976562 c 0
 506.138671875 632.000976562 483.971679688 625.333984375 458.971679688 612.000976562 c 0
 433.971679688 598.66796875 408.471679688 579.66796875 382.471679688 555.000976562 c 0
 356.471679688 530.333984375 331.638671875 502.000976562 307.971679688 470.000976562 c 0
 284.3046875 438.000976562 262.8046875 401.833984375 243.471679688 361.500976562 c 0
 224.138671875 321.16796875 210.138671875 280.66796875 201.471679688 240.000976562 c 0
 197.430664062 222.22265625 195.41015625 204.688476562 195.41015625 187.399414062 c 0
 195.41015625 176.163085938 196.263671875 165.030273438 197.970703125 154.000976562 c 0
 202.303710938 126.000976562 212.303710938 103.16796875 227.970703125 85.5009765625 c 0
 243.637695312 67.833984375 262.8046875 59.0009765625 285.471679688 59.0009765625 c 0
 305.471679688 59.0009765625 325.471679688 61.16796875 345.471679688 65.5009765625 c 0
 365.471679688 69.833984375 383.8046875 75.5009765625 400.471679688 82.5009765625 c 0
 417.138671875 89.5009765625 431.805664062 96.5009765625 444.47265625 103.500976562 c 0
 457.139648438 110.500976562 469.139648438 118.000976562 480.47265625 126.000976562 c 0
 489.805664062 132.000976562 497.805664062 136.66796875 504.47265625 140.000976562 c 0
 511.139648438 143.333984375 517.97265625 145.000976562 524.97265625 145.000976562 c 0
 531.97265625 145.000976562 537.805664062 142.66796875 542.47265625 138.000976562 c 0
 549.260742188 131.212890625 552.654296875 123.631835938 552.654296875 115.256835938 c 0
 552.654296875 100.600585938 542.260742188 83.515625 521.47265625 64 c 0
EndSplineSet
Validated: 524289
EndChar

StartChar: D
Encoding: 68 68 47
Width: 590
GlyphClass: 2
Flags: HMW
HStem: -31 85.998<320.653 332.323> 694.001 20G<258.321 268.654>
LayerCount: 2
Fore
SplineSet
319.65625 -31 m 0
 288.989257812 -31 259.15234375 -29.5 230.15234375 -26.5 c 0
 201.15234375 -23.5 178.319335938 -20 161.65234375 -16 c 0
 144.985351562 -12 130.485351562 -8.3330078125 118.15234375 -5 c 0
 105.819335938 -1.6669921875 98.65234375 0 96.65234375 0 c 0
 83.9853515625 0 74.818359375 4.5 69.1513671875 13.5 c 0
 66.0439453125 18.435546875 64.490234375 24.423828125 64.490234375 31.4638671875 c 0
 64.490234375 37.26171875 65.5439453125 43.7744140625 67.6513671875 51 c 0
 76.984375 83 90.6513671875 139.833007812 108.651367188 221.5 c 0
 126.651367188 303.166992188 145.318359375 391.666992188 164.651367188 487 c 0
 172.651367188 524.333007812 177.984375 548.833007812 180.651367188 560.5 c 0
 183.318359375 572.166992188 187.985351562 590.333984375 194.65234375 615.000976562 c 0
 201.319335938 639.66796875 205.319335938 654.66796875 206.65234375 660.000976562 c 0
 211.319335938 678.000976562 218.986328125 691.500976562 229.653320312 700.500976562 c 0
 240.3203125 709.500976562 251.987304688 714.000976562 264.654296875 714.000976562 c 0
 272.654296875 714.000976562 282.654296875 713.333984375 294.654296875 712.000976562 c 0
 306.654296875 710.66796875 322.154296875 708.000976562 341.154296875 704.000976562 c 0
 360.154296875 700.000976562 379.154296875 694.500976562 398.154296875 687.500976562 c 0
 417.154296875 680.500976562 436.987304688 670.66796875 457.654296875 658.000976562 c 0
 478.321289062 645.333984375 497.321289062 630.666992188 514.654296875 614 c 0
 531.987304688 597.333007812 547.8203125 576.5 562.153320312 551.5 c 0
 576.486328125 526.5 587.486328125 499.166992188 595.153320312 469.5 c 0
 602.20703125 442.20703125 605.733398438 410.119140625 605.733398438 373.235351562 c 0
 605.733398438 370.026367188 605.70703125 366.78125 605.653320312 363.5 c 0
 604.986328125 322.5 598.986328125 278.333007812 587.653320312 231 c 0
 582.3203125 207.666992188 573.987304688 184 562.654296875 160 c 0
 551.321289062 136 536.98828125 112.5 519.655273438 89.5 c 0
 502.322265625 66.5 483.489257812 46 463.15625 28 c 0
 442.823242188 10 420.15625 -4.3330078125 395.15625 -15 c 0
 370.15625 -25.6669921875 344.989257812 -31 319.65625 -31 c 0
223.65234375 348 m 0
 217.65234375 319.333007812 208.8203125 276.165039062 197.153320312 218.498046875 c 0
 185.486328125 160.831054688 176.986328125 117.331054688 171.653320312 87.998046875 c 1
 194.3203125 75.998046875 218.8203125 67.498046875 245.153320312 62.498046875 c 0
 271.486328125 57.498046875 302.653320312 54.998046875 338.653320312 54.998046875 c 0
 355.986328125 54.998046875 373.653320312 61.1650390625 391.653320312 73.498046875 c 0
 409.653320312 85.8310546875 425.986328125 101.831054688 440.653320312 121.498046875 c 0
 455.3203125 141.165039062 468.3203125 162.83203125 479.653320312 186.499023438 c 0
 490.986328125 210.166015625 499.319335938 233.333007812 504.65234375 256 c 0
 512.21484375 289.063476562 515.99609375 320.0625 515.99609375 348.99609375 c 0
 515.99609375 429.743164062 486.547851562 494.411132812 427.65234375 543 c 0
 398.985351562 566.333007812 355.65234375 590.333007812 297.65234375 615 c 1
 297.65234375 616 l 1
 296.65234375 616 l 1
 295.65234375 616 l 1
 294.65234375 617 l 1
 293.65234375 617 l 1
 292.65234375 618 l 1
 291.65234375 618 l 1
 290.65234375 618 l 1
 290.65234375 619 l 1
 289.65234375 619 l 1
 288.65234375 619 l 1
 287.65234375 620 l 1
 286.65234375 620 l 1
 285.65234375 620 l 1
 285.65234375 621 l 1
 263.65234375 534.333007812 242.985351562 443.333007812 223.65234375 348 c 0
EndSplineSet
Validated: 524289
EndChar

StartChar: E
Encoding: 69 69 48
Width: 590
GlyphClass: 2
Flags: HMW
HStem: -17.498 87.4961 -6 90.4971 312.001 85.999<225.403 267.074> 332.001 80.999<539.737 571.739> 614.501 82.5
LayerCount: 2
Fore
SplineSet
474.40234375 -6 m 0x48
 472.4609375 -5.87890625 469.967773438 -5.818359375 466.921875 -5.818359375 c 0
 453.234375 -5.818359375 428.396484375 -7.0439453125 392.405273438 -9.498046875 c 0
 348.405273438 -12.498046875 300.405273438 -15.1650390625 248.405273438 -17.498046875 c 0
 220.404296875 -18.75390625 195.8828125 -19.3828125 174.840820312 -19.3828125 c 0
 156.806640625 -19.3828125 141.328125 -18.9208984375 128.405273438 -17.998046875 c 0
 114.405273438 -17.3310546875 102.072265625 -9.8310546875 91.4052734375 4.501953125 c 0
 82.4228515625 16.5712890625 77.931640625 30.8876953125 77.931640625 47.44921875 c 0
 77.931640625 50.5546875 78.08984375 53.73828125 78.4052734375 57.001953125 c 0
 80.4052734375 74.3349609375 86.572265625 105.501953125 96.9052734375 150.501953125 c 0
 107.23828125 195.501953125 118.571289062 243.334960938 130.904296875 294.001953125 c 0
 143.237304688 344.668945312 155.737304688 401.668945312 168.404296875 465.001953125 c 0
 177.071289062 505.001953125 182.904296875 531.501953125 185.904296875 544.501953125 c 0
 188.904296875 557.501953125 193.737304688 576.668945312 200.404296875 602.001953125 c 0
 207.071289062 627.334960938 211.404296875 643.001953125 213.404296875 649.001953125 c 0
 218.071289062 667.001953125 225.73828125 680.668945312 236.405273438 690.001953125 c 0
 247.072265625 699.334960938 258.739257812 704.001953125 271.40625 704.001953125 c 0
 272.284179688 704.037109375 273.146484375 704.0546875 273.994140625 704.0546875 c 0
 289.251953125 704.0546875 299.721679688 698.370117188 305.40625 687.001953125 c 1
 342.073242188 692.334960938 384.240234375 695.66796875 431.907226562 697.000976562 c 0
 455.740234375 697.66796875 478.157226562 698.000976562 499.157226562 698.000976562 c 0
 520.157226562 698.000976562 539.740234375 697.666992188 557.907226562 697.000976562 c 0
 594.240234375 695.66796875 622.740234375 693.66796875 643.407226562 691.000976562 c 0
 657.407226562 689.000976562 666.740234375 685.000976562 671.407226562 679.000976562 c 0
 676.07421875 673.000976562 677.07421875 664.66796875 674.407226562 654.000976562 c 0
 673.07421875 648.000976562 671.241210938 642.333984375 668.908203125 637.000976562 c 0
 666.575195312 631.66796875 663.575195312 626.834960938 659.908203125 622.501953125 c 0
 656.241210938 618.168945312 651.408203125 614.668945312 645.408203125 612.001953125 c 0
 639.408203125 609.334960938 632.408203125 608.66796875 624.408203125 610.000976562 c 0
 582.1640625 613.439453125 539.376953125 615.159179688 496.047851562 615.159179688 c 0
 480.5703125 615.159179688 465.024414062 614.939453125 449.409179688 614.500976562 c 0
 390.076171875 612.833984375 338.409179688 608.666992188 294.409179688 602 c 1
 275.7421875 532.666992188 259.075195312 464.666992188 244.408203125 398 c 1xa8
 289.741210938 398 352.07421875 400.5 431.407226562 405.5 c 0
 510.740234375 410.5 555.073242188 413 564.40625 413 c 0
 579.073242188 413 588.573242188 409.666992188 592.90625 403 c 0
 597.239257812 396.333007812 598.072265625 387 595.405273438 375 c 0
 588.88671875 346.319335938 572.807617188 331.978515625 547.16796875 331.978515625 c 0
 546.584960938 331.978515625 545.997070312 331.986328125 545.404296875 332.000976562 c 0x18
 534.071289062 332.000976562 485.571289062 328.66796875 399.904296875 322.000976562 c 0
 314.237304688 315.333984375 256.0703125 312.000976562 225.403320312 312.000976562 c 1
 222.0703125 297.333984375 217.737304688 278.166992188 212.404296875 254.5 c 0
 207.071289062 230.833007812 202.571289062 210.5 198.904296875 193.5 c 0
 195.237304688 176.5 191.5703125 159 187.903320312 141 c 0
 184.236328125 123 181.569335938 108.166992188 179.90234375 96.5 c 0
 178.235351562 84.8330078125 177.735351562 76.666015625 178.40234375 71.9990234375 c 1
 186.958984375 69.2763671875 206.916015625 67.9150390625 238.274414062 67.9150390625 c 0
 260.668945312 67.9150390625 288.87890625 68.609375 322.903320312 69.998046875 c 0xa8
 404.5703125 73.3310546875 457.403320312 77.6640625 481.403320312 82.9970703125 c 0
 490.736328125 84.330078125 498.569335938 84.830078125 504.90234375 84.4970703125 c 0
 511.235351562 84.1640625 516.40234375 82.8310546875 520.40234375 80.498046875 c 0
 524.40234375 78.1650390625 527.40234375 75.6650390625 529.40234375 72.998046875 c 0
 531.40234375 70.3310546875 532.735351562 66.8310546875 533.40234375 62.498046875 c 0
 534.069335938 58.1650390625 534.40234375 54.33203125 534.40234375 50.9990234375 c 0
 534.40234375 47.666015625 534.069335938 44.3330078125 533.40234375 41 c 0
 530.735351562 28.3330078125 524.235351562 17 513.90234375 7 c 0
 504.78515625 -1.8232421875 493.4609375 -6.2353515625 479.930664062 -6.2353515625 c 0
 478.126953125 -6.2353515625 476.284179688 -6.1572265625 474.40234375 -6 c 0x48
EndSplineSet
Validated: 524289
EndChar

StartChar: F
Encoding: 70 70 49
Width: 590
GlyphClass: 2
Flags: HMW
HStem: 316 86.002 619.002 86.999
LayerCount: 2
Fore
SplineSet
167.013671875 24 m 0
 162.346679688 10 153.513671875 -1.166015625 140.513671875 -9.4990234375 c 0
 128.477539062 -17.21484375 116.297851562 -21.072265625 103.975585938 -21.072265625 c 0
 102.989257812 -21.072265625 102.001953125 -21.0478515625 101.013671875 -20.998046875 c 0
 88.3466796875 -20.998046875 79.1796875 -16.498046875 73.5126953125 -7.498046875 c 0
 70.4052734375 -2.5625 68.8515625 3.42578125 68.8515625 10.4658203125 c 0
 68.8515625 16.263671875 69.9052734375 22.7763671875 72.0126953125 30.001953125 c 0
 80.6796875 59.3349609375 94.1796875 115.501953125 112.512695312 198.501953125 c 0
 130.845703125 281.501953125 148.678710938 367.001953125 166.01171875 455.001953125 c 0
 175.344726562 499.668945312 181.844726562 529.668945312 185.51171875 545.001953125 c 0
 189.178710938 560.334960938 194.51171875 581.001953125 201.51171875 607.001953125 c 0
 208.51171875 633.001953125 213.344726562 650.668945312 216.01171875 660.001953125 c 0
 220.678710938 678.001953125 228.345703125 691.501953125 239.012695312 700.501953125 c 0
 249.6796875 709.501953125 261.346679688 714.001953125 274.013671875 714.001953125 c 0
 275.6640625 714.12890625 277.262695312 714.192382812 278.810546875 714.192382812 c 0
 293.516601562 714.192382812 303.584960938 708.461914062 309.013671875 697.000976562 c 1
 371.013671875 701.66796875 433.013671875 704.66796875 495.013671875 706.000976562 c 0
 510.512695312 706.333984375 525.283203125 706.500976562 539.32421875 706.500976562 c 0
 581.450195312 706.500976562 617.012695312 705.000976562 646.013671875 702.000976562 c 0
 660.013671875 700.66796875 669.180664062 696.834960938 673.513671875 690.501953125 c 0
 677.846679688 684.168945312 679.013671875 675.3359375 677.013671875 664.002929688 c 0
 674.346679688 651.3359375 668.513671875 640.668945312 659.513671875 632.001953125 c 0
 650.513671875 623.334960938 638.346679688 619.001953125 623.013671875 619.001953125 c 0
 588.694335938 620.856445312 553.166015625 621.784179688 516.426757812 621.784179688 c 0
 447.541992188 621.784179688 374.404296875 618.5234375 297.012695312 612.001953125 c 1
 294.345703125 600.668945312 289.678710938 582.501953125 283.01171875 557.501953125 c 0
 276.344726562 532.501953125 269.844726562 507.001953125 263.51171875 481.001953125 c 0
 257.178710938 455.001953125 251.01171875 428.668945312 245.01171875 402.001953125 c 1
 273.58203125 405.430664062 304.845703125 407.14453125 338.803710938 407.14453125 c 0
 344.46484375 407.14453125 350.201171875 407.09765625 356.01171875 407.001953125 c 0
 396.678710938 406.334960938 433.01171875 404.501953125 465.01171875 401.501953125 c 0
 497.01171875 398.501953125 522.344726562 395.334960938 541.01171875 392.001953125 c 0
 555.01171875 389.334960938 564.178710938 385.001953125 568.51171875 379.001953125 c 0
 572.844726562 373.001953125 574.01171875 364.668945312 572.01171875 354.001953125 c 0
 570.678710938 348.001953125 568.845703125 342.501953125 566.512695312 337.501953125 c 0
 564.1796875 332.501953125 561.012695312 327.668945312 557.012695312 323.001953125 c 0
 553.012695312 318.334960938 548.1796875 314.834960938 542.512695312 312.501953125 c 0
 536.845703125 310.168945312 530.012695312 309.3359375 522.012695312 310.002929688 c 0
 504.012695312 313.3359375 478.345703125 316.168945312 445.012695312 318.501953125 c 0
 411.6796875 320.834960938 373.846679688 322.16796875 331.513671875 322.500976562 c 0
 328.694335938 322.5234375 325.90625 322.534179688 323.150390625 322.534179688 c 0
 284.528320312 322.534179688 252.1484375 320.356445312 226.013671875 316 c 1
 190.013671875 139.333007812 170.346679688 42 167.013671875 24 c 0
EndSplineSet
Validated: 524289
EndChar

StartChar: G
Encoding: 71 71 50
Width: 590
GlyphClass: 2
Flags: HMW
HStem: -30.9971 89.9971<240.033 291.033> 643.002 80.999<527.032 532.364>
LayerCount: 2
Fore
SplineSet
562.700195312 244 m 0
 558.033203125 230 550.366210938 213.669921875 539.69921875 195.002929688 c 0
 529.032226562 176.3359375 516.19921875 156.502929688 501.19921875 135.502929688 c 0
 486.19921875 114.502929688 469.032226562 94.169921875 449.69921875 74.5029296875 c 0
 430.366210938 54.8359375 410.366210938 37.0029296875 389.69921875 21.0029296875 c 0
 369.032226562 5.0029296875 346.532226562 -7.830078125 322.19921875 -17.4970703125 c 0
 299.436523438 -26.5400390625 277.694335938 -31.0615234375 256.973632812 -31.0615234375 c 0
 255.543945312 -31.0615234375 254.119140625 -31.0400390625 252.69921875 -30.9970703125 c 0
 227.366210938 -30.9970703125 204.533203125 -26.330078125 184.200195312 -16.9970703125 c 0
 163.8671875 -7.6640625 147.3671875 4.6689453125 134.700195312 20.001953125 c 0
 122.033203125 35.3349609375 112.033203125 53.16796875 104.700195312 73.5009765625 c 0
 97.3671875 93.833984375 93.3671875 115.500976562 92.7001953125 138.500976562 c 0
 92.6259765625 141.057617188 92.5888671875 143.616210938 92.5888671875 146.177734375 c 0
 92.5888671875 166.653320312 94.958984375 187.26171875 99.69921875 208.000976562 c 0
 111.032226562 257.333984375 126.865234375 305.333984375 147.198242188 352.000976562 c 0
 167.53125 398.66796875 189.698242188 440.66796875 213.698242188 478.000976562 c 0
 237.698242188 515.333984375 264.03125 549.500976562 292.698242188 580.500976562 c 0
 321.365234375 611.500976562 349.865234375 637.500976562 378.198242188 658.500976562 c 0
 406.53125 679.500976562 434.53125 695.66796875 462.198242188 707.000976562 c 0
 489.865234375 718.333984375 515.365234375 724.000976562 538.698242188 724.000976562 c 0
 564.698242188 724.000976562 592.198242188 717.500976562 621.198242188 704.500976562 c 0
 650.198242188 691.500976562 668.03125 680.333984375 674.698242188 671.000976562 c 0
 679.57421875 664.295898438 682.012695312 656.685546875 682.012695312 648.169921875 c 0
 682.012695312 638.056640625 678.57421875 626.666992188 671.698242188 614.000976562 c 0
 667.698242188 605.333984375 660.53125 599.000976562 650.198242188 595.000976562 c 0
 639.865234375 591.000976562 630.365234375 591.000976562 621.698242188 595.000976562 c 0
 618.365234375 596.333984375 610.865234375 601.333984375 599.198242188 610.000976562 c 0
 587.53125 618.66796875 575.364257812 626.334960938 562.697265625 633.001953125 c 0
 550.030273438 639.668945312 538.030273438 643.001953125 526.697265625 643.001953125 c 0
 507.364257812 643.001953125 485.03125 636.168945312 459.698242188 622.501953125 c 0
 434.365234375 608.834960938 408.698242188 589.16796875 382.698242188 563.500976562 c 0
 356.698242188 537.833984375 331.698242188 508.666992188 307.698242188 476 c 0
 283.698242188 443.333007812 262.03125 406.333007812 242.698242188 365 c 0
 223.365234375 323.666992188 209.032226562 282 199.69921875 240 c 0
 195.658203125 222.221679688 193.637695312 204.6875 193.637695312 187.3984375 c 0
 193.637695312 176.162109375 194.491210938 165.029296875 196.198242188 154 c 0
 200.53125 126 210.53125 103.166992188 226.198242188 85.5 c 0
 241.865234375 67.8330078125 261.032226562 59 283.69921875 59 c 0
 298.366210938 59 314.866210938 64.1669921875 333.19921875 74.5 c 0
 351.532226562 84.8330078125 368.865234375 98 385.198242188 114 c 0
 401.53125 130 417.53125 148 433.198242188 168 c 0
 448.865234375 188 462.532226562 207.333007812 474.19921875 226 c 0
 485.866210938 244.666992188 495.366210938 262 502.69921875 278 c 1
 463.366210938 276 424.366210938 272.333007812 385.69921875 267 c 0
 347.032226562 261.666992188 319.69921875 254.666992188 303.69921875 246 c 0
 298.014648438 243.158203125 292.779296875 241.736328125 287.9921875 241.736328125 c 0
 282.673828125 241.736328125 277.91015625 243.491210938 273.69921875 247 c 0
 265.69921875 253.666992188 262.366210938 262.666992188 263.69921875 274 c 0
 265.69921875 299.333007812 282.032226562 319 312.69921875 333 c 0
 332.69921875 342.333007812 372.19921875 349.5 431.19921875 354.5 c 0
 473.341796875 358.071289062 508.9375 359.857421875 537.985351562 359.857421875 c 0
 549.604492188 359.857421875 560.17578125 359.571289062 569.69921875 359 c 0
 585.032226562 358.333007812 595.032226562 355.5 599.69921875 350.5 c 0
 604.366210938 345.5 606.366210938 337.666992188 605.69921875 327 c 0
 603.032226562 302.333007812 593.032226562 287 575.69921875 281 c 0
 575.032226562 279 573.032226562 273.666992188 569.69921875 265 c 0
 566.366210938 256.333007812 564.033203125 249.333007812 562.700195312 244 c 0
EndSplineSet
Validated: 524289
EndChar

StartChar: H
Encoding: 72 72 51
Width: 590
GlyphClass: 2
Flags: HMW
HStem: 311.999 86.001<240.289 277.621>
LayerCount: 2
Fore
SplineSet
514.290039062 24 m 0
 509.623046875 10 500.958007812 -1.16796875 488.291015625 -9.5009765625 c 0
 476.5625 -17.216796875 464.548828125 -21.07421875 452.25 -21.07421875 c 0
 451.265625 -21.07421875 450.279296875 -21.0498046875 449.291015625 -21 c 0
 436.624023438 -21 427.45703125 -16.5 421.790039062 -7.5 c 0
 418.682617188 -2.564453125 417.12890625 3.423828125 417.12890625 10.4638671875 c 0
 417.12890625 16.26171875 418.182617188 22.7744140625 420.290039062 30 c 0
 447.623046875 122.666992188 474.290039062 226.666992188 500.290039062 342 c 1
 489.623046875 341.333007812 450.456054688 336.166015625 382.7890625 326.499023438 c 0
 315.122070312 316.83203125 267.622070312 311.999023438 240.2890625 311.999023438 c 0
 239.622070312 309.999023438 238.622070312 306.499023438 237.2890625 301.499023438 c 0
 235.956054688 296.499023438 234.956054688 292.999023438 234.2890625 290.999023438 c 0
 215.622070312 224.999023438 194.955078125 135.999023438 172.288085938 23.9990234375 c 0
 167.62109375 9.9990234375 158.788085938 -1.16796875 145.788085938 -9.5009765625 c 0
 133.751953125 -17.216796875 121.858398438 -21.07421875 110.107421875 -21.07421875 c 0
 109.166992188 -21.07421875 108.2265625 -21.0498046875 107.288085938 -21 c 0
 95.2880859375 -21 86.12109375 -16.5 79.7880859375 -7.5 c 0
 76.3505859375 -2.6142578125 74.630859375 3.302734375 74.630859375 10.251953125 c 0
 74.630859375 16.1025390625 75.8505859375 22.685546875 78.2880859375 30 c 0
 80.955078125 39.3330078125 84.955078125 54.3330078125 90.2880859375 75 c 0
 95.62109375 95.6669921875 102.288085938 123.333984375 110.288085938 158.000976562 c 0
 118.288085938 192.66796875 125.62109375 224.000976562 132.288085938 252.000976562 c 0
 137.62109375 274.66796875 145.788085938 307.16796875 156.788085938 349.500976562 c 0
 167.788085938 391.833984375 175.62109375 423.166992188 180.288085938 443.5 c 2
 201.288085938 535 l 2
 207.288085938 565 211.288085938 584.166992188 213.288085938 592.5 c 0
 215.288085938 600.833007812 218.288085938 612.333007812 222.288085938 627 c 2
 231.288085938 660 l 2
 235.955078125 678 243.788085938 691.5 254.788085938 700.5 c 0
 265.788085938 709.5 277.62109375 714 290.288085938 714 c 0
 291.325195312 714.049804688 292.34375 714.07421875 293.342773438 714.07421875 c 0
 305.825195312 714.07421875 315.306640625 710.216796875 321.788085938 702.500976562 c 0
 326.2421875 697.198242188 328.469726562 689.9375 328.469726562 680.719726562 c 0
 328.469726562 675.453125 327.7421875 669.546875 326.288085938 663.000976562 c 0
 324.955078125 656.333984375 320.788085938 642.000976562 313.788085938 620.000976562 c 0
 306.788085938 598.000976562 301.288085938 577.66796875 297.288085938 559.000976562 c 0
 293.288085938 541.66796875 287.455078125 515.16796875 279.788085938 479.500976562 c 0
 272.12109375 443.833984375 265.954101562 416.666992188 261.287109375 398 c 1
 293.954101562 398 327.954101562 400 363.287109375 404 c 0
 398.620117188 408 430.620117188 412 459.287109375 416 c 0
 487.954101562 420 507.954101562 422.666992188 519.287109375 424 c 1
 519.954101562 428.666992188 521.12109375 435.5 522.788085938 444.5 c 0
 524.455078125 453.5 525.955078125 460.333007812 527.288085938 465 c 0
 536.62109375 506.333007812 542.62109375 533.666015625 545.288085938 546.999023438 c 0
 547.955078125 560.33203125 552.955078125 580.999023438 560.288085938 608.999023438 c 0
 567.62109375 636.999023438 572.288085938 653.999023438 574.288085938 659.999023438 c 0
 578.955078125 677.999023438 586.622070312 691.499023438 597.2890625 700.499023438 c 0
 607.956054688 709.499023438 619.623046875 713.999023438 632.290039062 713.999023438 c 0
 633.327148438 714.048828125 634.345703125 714.073242188 635.344726562 714.073242188 c 0
 647.827148438 714.073242188 657.30859375 710.215820312 663.790039062 702.5 c 0
 668.244140625 697.197265625 670.471679688 689.936523438 670.471679688 680.71875 c 0
 670.471679688 675.452148438 669.744140625 669.545898438 668.290039062 663 c 0
 665.623046875 650.333007812 659.290039062 624.333007812 649.290039062 585 c 0
 639.290039062 545.666992188 630.790039062 511.166992188 623.790039062 481.5 c 0
 616.790039062 451.833007812 607.290039062 409 595.290039062 353 c 0
 585.95703125 306.333007812 571.290039062 245 551.290039062 169 c 0
 531.290039062 93 518.95703125 44.6669921875 514.290039062 24 c 0
EndSplineSet
Validated: 524289
EndChar

StartChar: I
Encoding: 73 73 52
Width: 590
GlyphClass: 2
Flags: HMW
HStem: -13.998 80.001 -6.49902 77.999 612.001 89.001 625.002 82.999<251.728 278.395 270.062 278.395 270.062 394.394>
LayerCount: 2
Fore
SplineSet
484.400390625 -11 m 0x60
 469.067382812 -8.3330078125 443.221679688 -6.83203125 406.888671875 -6.4990234375 c 0x60
 399.625976562 -6.4326171875 392.383789062 -6.3994140625 385.161132812 -6.3994140625 c 0
 356.250976562 -6.3994140625 327.66015625 -6.9326171875 299.389648438 -7.9990234375 c 0
 264.056640625 -9.33203125 226.723632812 -10.6650390625 187.390625 -11.998046875 c 0
 148.057617188 -13.3310546875 120.724609375 -13.998046875 105.391601562 -13.998046875 c 0
 89.3916015625 -13.998046875 78.224609375 -10.6650390625 71.8916015625 -3.998046875 c 0
 65.55859375 2.6689453125 63.7255859375 11.3359375 66.392578125 22.0029296875 c 0
 68.392578125 34.0029296875 74.0595703125 44.169921875 83.392578125 52.5029296875 c 0
 92.7255859375 60.8359375 105.392578125 65.3359375 121.392578125 66.0029296875 c 0
 148.059570312 67.3359375 194.059570312 69.0029296875 259.392578125 71.0029296875 c 1
 292.059570312 185.002929688 321.7265625 305.669921875 348.393554688 433.002929688 c 0
 353.060546875 457.002929688 357.893554688 479.669921875 362.893554688 501.002929688 c 0
 367.893554688 522.3359375 371.393554688 537.668945312 373.393554688 547.001953125 c 0
 375.393554688 556.334960938 379.2265625 570.834960938 384.893554688 590.501953125 c 0
 390.560546875 610.168945312 393.727539062 621.668945312 394.39453125 625.001953125 c 1
 366.39453125 625.66796875 341.14453125 626.001953125 318.64453125 626.001953125 c 0
 296.14453125 626.001953125 276.39453125 625.66796875 259.39453125 625.001953125 c 0
 244.061523438 625.001953125 233.228515625 628.668945312 226.895507812 636.001953125 c 0
 220.5625 643.334960938 218.395507812 652.66796875 220.395507812 664.000976562 c 0
 222.395507812 676.000976562 228.395507812 686.333984375 238.395507812 695.000976562 c 0
 248.395507812 703.66796875 261.728515625 708.000976562 278.395507812 708.000976562 c 0x90
 330.62109375 709.556640625 378.995117188 710.334960938 423.516601562 710.334960938 c 0
 512.548828125 710.334960938 586.17578125 707.223632812 644.395507812 701.001953125 c 0
 667.090820312 698.732421875 678.438476562 688.495117188 678.438476562 670.291015625 c 0
 678.438476562 667.104492188 678.090820312 663.674804688 677.395507812 660.000976562 c 0
 676.0625 654.000976562 673.895507812 648.16796875 670.895507812 642.500976562 c 0
 667.895507812 636.833984375 664.228515625 631.333984375 659.895507812 626.000976562 c 0
 655.5625 620.66796875 650.0625 616.500976562 643.395507812 613.500976562 c 0
 636.728515625 610.500976562 629.395507812 610.000976562 621.395507812 612.000976562 c 0
 604.0625 615.333984375 559.729492188 619.000976562 488.396484375 623.000976562 c 1
 487.063476562 617.66796875 483.23046875 602.66796875 476.897460938 578.000976562 c 0
 470.564453125 553.333984375 465.564453125 533.666992188 461.897460938 519 c 0
 458.23046875 504.333007812 453.397460938 483.333007812 447.397460938 456 c 0
 441.397460938 428.666992188 435.397460938 401.666992188 429.397460938 375 c 0
 419.397460938 327.666992188 405.23046875 268.666992188 386.897460938 198 c 0
 368.564453125 127.333007812 357.731445312 85.3330078125 354.3984375 72 c 1
 381.731445312 72 412.731445312 71.8330078125 447.3984375 71.5 c 0
 482.065429688 71.1669921875 500.732421875 71 503.399414062 71 c 0
 518.06640625 71 527.399414062 67.5 531.399414062 60.5 c 0
 535.399414062 53.5 536.399414062 44.3330078125 534.399414062 33 c 0
 533.06640625 27 531.399414062 21.5 529.399414062 16.5 c 0
 527.399414062 11.5 524.399414062 6.5 520.399414062 1.5 c 0
 516.399414062 -3.5 511.232421875 -7.1669921875 504.899414062 -9.5 c 0
 498.56640625 -11.8330078125 491.733398438 -12.3330078125 484.400390625 -11 c 0x60
EndSplineSet
Validated: 524289
EndChar

StartChar: J
Encoding: 74 74 53
Width: 590
GlyphClass: 2
Flags: HMW
HStem: -35.001 101.001<271.944 279.277> 625 82.999<254.611 280.277>
VStem: 98.2778 87.501 111.278 77
LayerCount: 2
Fore
SplineSet
436.275390625 215 m 0xe0
 417.608398438 155 399.110351562 106.33203125 380.77734375 68.9990234375 c 0
 362.444335938 31.666015625 344.27734375 4.9990234375 326.27734375 -11.0009765625 c 0
 308.27734375 -27.0009765625 289.27734375 -35.0009765625 269.27734375 -35.0009765625 c 0
 247.944335938 -35.0009765625 228.27734375 -31.0009765625 210.27734375 -23.0009765625 c 0
 192.27734375 -15.0009765625 177.110351562 -4.333984375 164.77734375 8.9990234375 c 0
 152.444335938 22.33203125 141.611328125 36.83203125 132.278320312 52.4990234375 c 0
 122.9453125 68.166015625 115.778320312 83.8330078125 110.778320312 99.5 c 0
 105.778320312 115.166992188 102.278320312 129.166992188 100.278320312 141.5 c 0
 98.2783203125 153.833007812 97.611328125 163.666015625 98.2783203125 170.999023438 c 0xe0
 98.2783203125 176.999023438 99.611328125 184.166015625 102.278320312 192.499023438 c 0
 104.9453125 200.83203125 107.9453125 208.665039062 111.278320312 215.998046875 c 0
 114.611328125 223.331054688 119.778320312 229.831054688 126.778320312 235.498046875 c 0
 133.778320312 241.165039062 142.278320312 244.665039062 152.278320312 245.998046875 c 0
 155.833984375 246.64453125 159.145507812 246.967773438 162.211914062 246.967773438 c 0
 171.791992188 246.967773438 178.98046875 243.811523438 183.778320312 237.499023438 c 0
 187.927734375 232.0390625 190.001953125 225.649414062 190.001953125 218.329101562 c 0
 190.001953125 214.4765625 189.427734375 210.3671875 188.278320312 205.999023438 c 0xd0
 188.225585938 205.706054688 185.729492188 191.61328125 185.729492188 176.352539062 c 0
 185.729492188 166.751953125 187.079101562 155.80078125 189.779296875 143.5 c 0
 192.779296875 129.833007812 197.446289062 117.333007812 203.779296875 106 c 0
 210.112304688 94.6669921875 219.9453125 85.1669921875 233.278320312 77.5 c 0
 246.611328125 69.8330078125 262.611328125 66 281.278320312 66 c 0
 303.278320312 66 329.611328125 124 360.278320312 240 c 0
 363.611328125 254.666992188 373.778320312 301.666992188 390.778320312 381 c 0
 407.778320312 460.333007812 426.278320312 541.333007812 446.278320312 624 c 1
 405.079101562 625.200195312 366.51953125 625.799804688 330.600585938 625.799804688 c 0
 306.653320312 625.799804688 283.87890625 625.533203125 262.278320312 625 c 0
 246.9453125 625 235.9453125 628.666992188 229.278320312 636 c 0
 222.611328125 643.333007812 220.611328125 652.666015625 223.278320312 663.999023438 c 0
 225.278320312 675.999023438 231.4453125 686.33203125 241.778320312 694.999023438 c 0
 252.111328125 703.666015625 264.944335938 707.999023438 280.27734375 707.999023438 c 0
 332.502929688 709.5546875 380.9140625 710.333007812 425.508789062 710.333007812 c 0
 514.690429688 710.333007812 588.612304688 707.221679688 647.27734375 701 c 0
 669.97265625 698.73046875 681.3203125 688.493164062 681.3203125 670.2890625 c 0
 681.3203125 667.102539062 680.97265625 663.672851562 680.27734375 659.999023438 c 0
 678.944335938 653.999023438 676.77734375 648.166015625 673.77734375 642.499023438 c 0
 670.77734375 636.83203125 666.944335938 631.33203125 662.27734375 625.999023438 c 0
 657.610351562 620.666015625 651.943359375 616.499023438 645.276367188 613.499023438 c 0
 638.609375 610.499023438 631.609375 609.999023438 624.276367188 611.999023438 c 0
 603.609375 615.33203125 570.942382812 618.33203125 526.275390625 620.999023438 c 1
 521.608398438 601.666015625 515.44140625 572.333007812 507.774414062 533 c 0
 500.107421875 493.666992188 493.107421875 457.833984375 486.774414062 425.500976562 c 0
 480.44140625 393.16796875 472.608398438 357.16796875 463.275390625 317.500976562 c 0
 453.942382812 277.833984375 444.942382812 243.666992188 436.275390625 215 c 0xe0
EndSplineSet
Validated: 524289
EndChar

StartChar: K
Encoding: 75 75 54
Width: 590
GlyphClass: 2
Flags: W
HStem: -21.0752 21G<106.602 113.256 470.446 480.955> 694.072 20G<279.69 286.431>
LayerCount: 2
Fore
SplineSet
170.1328125 24 m 0
 165.465820312 10 156.6328125 -1.1689453125 143.6328125 -9.501953125 c 0
 131.596679688 -17.2177734375 119.416992188 -21.0751953125 107.094726562 -21.0751953125 c 0
 106.108398438 -21.0751953125 105.12109375 -21.05078125 104.1328125 -21.0009765625 c 0
 91.4658203125 -21.0009765625 82.298828125 -16.5009765625 76.6318359375 -7.5009765625 c 0
 73.5244140625 -2.5654296875 71.970703125 3.4228515625 71.970703125 10.462890625 c 0
 71.970703125 16.2607421875 73.0244140625 22.7734375 75.1318359375 29.9990234375 c 0
 83.798828125 59.33203125 97.4658203125 115.499023438 116.1328125 198.499023438 c 0
 134.799804688 281.499023438 152.799804688 366.999023438 170.1328125 454.999023438 c 0
 178.799804688 497.666015625 184.799804688 526.499023438 188.1328125 541.499023438 c 0
 191.465820312 556.499023438 196.965820312 578.166015625 204.6328125 606.499023438 c 0
 212.299804688 634.83203125 217.1328125 652.665039062 219.1328125 659.998046875 c 0
 223.799804688 677.998046875 231.466796875 691.498046875 242.133789062 700.498046875 c 0
 252.80078125 709.498046875 264.467773438 713.998046875 277.134765625 713.998046875 c 0
 278.171875 714.047851562 279.190429688 714.072265625 280.189453125 714.072265625 c 0
 292.671875 714.072265625 302.153320312 710.21484375 308.634765625 702.499023438 c 0
 313.088867188 697.196289062 315.31640625 689.935546875 315.31640625 680.717773438 c 0
 315.31640625 675.451171875 314.588867188 669.544921875 313.134765625 662.999023438 c 0
 309.801757812 646.999023438 301.134765625 611.999023438 287.134765625 557.999023438 c 0
 273.134765625 503.999023438 261.801757812 459.33203125 253.134765625 423.999023438 c 1
 281.134765625 447.33203125 323.134765625 482.665039062 379.134765625 529.998046875 c 0
 435.134765625 577.331054688 479.467773438 614.831054688 512.134765625 642.498046875 c 0
 544.801757812 670.165039062 565.801757812 687.33203125 575.134765625 693.999023438 c 0
 585.801757812 702.666015625 595.46875 708.499023438 604.135742188 711.499023438 c 0
 612.802734375 714.499023438 619.969726562 715.166015625 625.63671875 713.499023438 c 0
 631.303710938 711.83203125 636.13671875 708.33203125 640.13671875 702.999023438 c 0
 643.677734375 697.490234375 645.448242188 691.576171875 645.448242188 685.254882812 c 0
 645.448242188 670.155273438 635.344726562 652.736328125 615.13671875 632.999023438 c 0
 603.13671875 620.999023438 561.969726562 584.499023438 491.63671875 523.499023438 c 0
 421.303710938 462.499023438 359.13671875 409.33203125 305.13671875 363.999023438 c 1
 320.469726562 339.999023438 347.469726562 302.499023438 386.13671875 251.499023438 c 0
 424.803710938 200.499023438 458.303710938 155.666015625 486.63671875 116.999023438 c 0
 504.409179688 92.744140625 531.241210938 56.1259765625 531.241210938 40.0419921875 c 0
 531.241210938 28.9599609375 528.706054688 18.9462890625 523.635742188 9.9990234375 c 0
 517.96875 -0.0009765625 510.801757812 -7.66796875 502.134765625 -13.0009765625 c 0
 493.129882812 -18.5986328125 484.791015625 -21.3974609375 477.118164062 -21.3974609375 c 0
 463.774414062 -21.3974609375 452.446289062 -12.931640625 443.133789062 4 c 0
 438.466796875 12.6669921875 421.633789062 35.6669921875 392.633789062 73 c 0
 363.633789062 110.333007812 332.30078125 151.5 298.633789062 196.5 c 0
 264.966796875 241.5 240.799804688 277.333007812 226.1328125 304 c 1
 221.1328125 284 l 2
 219.1328125 272.666992188 202.1328125 186 170.1328125 24 c 0
EndSplineSet
Validated: 524289
EndChar

StartChar: L
Encoding: 76 76 55
Width: 590
GlyphClass: 2
Flags: HMW
HStem: -9.00488 81.0029
LayerCount: 2
Fore
SplineSet
487.734375 10 m 0
 443.734375 1.3330078125 378.407226562 -5.0048828125 291.740234375 -9.0048828125 c 0
 205.073242188 -13.0048828125 141.740234375 -15.0048828125 101.740234375 -15.0048828125 c 0
 89.0732421875 -15.0048828125 79.90625 -10.5048828125 74.2392578125 -1.5048828125 c 0
 71.1318359375 3.4306640625 69.578125 9.4189453125 69.578125 16.458984375 c 0
 69.578125 22.2568359375 70.6318359375 28.76953125 72.7392578125 35.9951171875 c 0
 74.072265625 41.328125 86.4052734375 79.4951171875 109.73828125 150.495117188 c 0
 133.071289062 221.495117188 154.071289062 289.995117188 172.73828125 355.995117188 c 0
 181.405273438 385.995117188 194.405273438 440.995117188 211.73828125 520.995117188 c 0
 229.071289062 600.995117188 238.404296875 644.328125 239.737304688 650.995117188 c 0
 244.404296875 668.995117188 252.237304688 682.662109375 263.237304688 691.995117188 c 0
 274.237304688 701.328125 285.737304688 705.995117188 297.737304688 705.995117188 c 0
 298.774414062 706.044921875 299.793945312 706.069335938 300.794921875 706.069335938 c 0
 313.299804688 706.069335938 322.947265625 702.211914062 329.737304688 694.49609375 c 0
 334.21875 689.404296875 336.458984375 682.506835938 336.458984375 673.8046875 c 0
 336.458984375 668.265625 335.551757812 661.997070312 333.736328125 654.99609375 c 0
 329.069335938 635.663085938 322.40234375 609.330078125 313.735351562 575.997070312 c 0
 305.068359375 542.6640625 294.068359375 500.6640625 280.735351562 449.997070312 c 0
 267.40234375 399.330078125 256.069335938 355.330078125 246.736328125 317.997070312 c 0
 239.403320312 289.997070312 227.5703125 249.330078125 211.237304688 195.997070312 c 0
 194.904296875 142.6640625 183.404296875 101.331054688 176.737304688 71.998046875 c 1
 181.260742188 71.9404296875 185.853515625 71.9111328125 190.514648438 71.9111328125 c 0
 239.448242188 71.9111328125 296.022460938 75.107421875 360.237304688 81.498046875 c 0
 430.5703125 88.498046875 478.0703125 95.3310546875 502.737304688 101.998046875 c 0
 510.737304688 103.998046875 517.404296875 103.665039062 522.737304688 100.998046875 c 0
 528.0703125 98.3310546875 531.903320312 94.3310546875 534.236328125 88.998046875 c 0
 536.569335938 83.6650390625 537.90234375 77.83203125 538.235351562 71.4990234375 c 0
 538.568359375 65.166015625 538.401367188 59.3330078125 537.734375 54 c 0
 535.067382812 42 530.067382812 32.3330078125 522.734375 25 c 0
 515.401367188 17.6669921875 503.734375 12.6669921875 487.734375 10 c 0
EndSplineSet
Validated: 524289
EndChar

StartChar: M
Encoding: 77 77 56
Width: 590
GlyphClass: 2
Flags: HMW
HStem: -9.99414 21G<79.1192 85.1192>
VStem: 249.116 97.001 466.116 89.001
LayerCount: 2
Fore
SplineSet
139.118164062 59 m 0
 135.118164062 37.6669921875 127.119140625 20.8388671875 115.119140625 8.505859375 c 0
 103.119140625 -3.8271484375 91.119140625 -9.994140625 79.119140625 -9.994140625 c 0
 64.302734375 -9.544921875 56.89453125 1.7900390625 56.89453125 24.009765625 c 0
 56.89453125 34.783203125 58.6357421875 48.115234375 62.119140625 64.0068359375 c 0
 64.119140625 72.0068359375 68.2861328125 85.673828125 74.619140625 105.006835938 c 0
 80.9521484375 124.33984375 89.119140625 149.672851562 99.119140625 181.005859375 c 0
 109.119140625 212.338867188 117.786132812 239.671875 125.119140625 263.004882812 c 0
 127.119140625 271.004882812 130.786132812 283.337890625 136.119140625 300.004882812 c 0
 150.786132812 349.337890625 162.619140625 387.837890625 171.619140625 415.504882812 c 0
 180.619140625 443.171875 191.786132812 477.671875 205.119140625 519.004882812 c 0
 218.452148438 560.337890625 229.78515625 592.837890625 239.118164062 616.504882812 c 0
 248.451171875 640.171875 256.451171875 656.671875 263.118164062 666.004882812 c 0
 272.451171875 680.004882812 284.451171875 690.171875 299.118164062 696.504882812 c 0
 311.234375 701.736328125 322.213867188 704.352539062 332.0546875 704.352539062 c 0
 334.126953125 704.352539062 336.147460938 704.236328125 338.118164062 704.004882812 c 0
 366.118164062 704.004882812 380.118164062 691.671875 380.118164062 667.004882812 c 0
 380.178710938 664.336914062 380.208984375 661.510742188 380.208984375 658.526367188 c 0
 380.208984375 628.69140625 377.178710938 583.017578125 371.118164062 521.504882812 c 0
 364.451171875 453.837890625 355.784179688 376.670898438 345.1171875 290.00390625 c 0
 334.450195312 203.336914062 327.450195312 146.00390625 324.1171875 118.00390625 c 1
 352.1171875 212.00390625 378.784179688 296.670898438 404.1171875 372.00390625 c 0
 422.1171875 427.336914062 442.450195312 483.00390625 465.1171875 539.00390625 c 0
 487.784179688 595.00390625 506.1171875 637.670898438 520.1171875 667.00390625 c 0
 524.784179688 677.00390625 531.784179688 685.170898438 541.1171875 691.50390625 c 0
 550.450195312 697.836914062 559.450195312 701.669921875 568.1171875 703.002929688 c 0
 576.784179688 704.3359375 585.1171875 704.668945312 593.1171875 704.001953125 c 2
 597.1171875 704.001953125 l 1
 609.6171875 704.001953125 l 2
 612.6171875 704.001953125 616.784179688 703.168945312 622.1171875 701.501953125 c 0
 627.450195312 699.834960938 631.6171875 697.66796875 634.6171875 695.000976562 c 0
 637.6171875 692.333984375 640.1171875 688.166992188 642.1171875 682.5 c 0
 644.1171875 676.833007812 644.784179688 670 644.1171875 662 c 0
 642.1171875 642 626.784179688 544.333007812 598.1171875 369 c 0
 569.450195312 193.666992188 555.1171875 94.6669921875 555.1171875 72 c 0
 554.450195312 32 541.783203125 6.6669921875 517.116210938 -4 c 0
 511.021484375 -6.4375 505.309570312 -7.6572265625 499.98046875 -7.6572265625 c 0
 493.65234375 -7.6572265625 487.864257812 -5.9375 482.616210938 -2.5 c 0
 472.94921875 3.8330078125 467.44921875 17.666015625 466.116210938 38.9990234375 c 0
 466.017578125 40.6533203125 465.967773438 42.513671875 465.967773438 44.580078125 c 0
 465.967773438 98.29296875 499.350585938 291.099609375 566.115234375 623 c 1
 526.115234375 526.333007812 494.448242188 438.333007812 471.115234375 359 c 0
 447.782226562 283 423.44921875 210.833007812 398.116210938 142.5 c 0
 372.783203125 74.1669921875 355.450195312 32.333984375 346.1171875 17.0009765625 c 0
 335.450195312 1.0009765625 316.1171875 -6.9990234375 288.1171875 -6.9990234375 c 0
 275.450195312 -7.666015625 265.783203125 -5.666015625 259.116210938 -0.9990234375 c 0
 252.44921875 3.66796875 249.116210938 10.3349609375 249.116210938 19.001953125 c 0
 249.116210938 51.001953125 253.783203125 124.501953125 263.116210938 239.501953125 c 0
 272.44921875 354.501953125 282.116210938 464.668945312 292.116210938 570.001953125 c 1
 269.616210938 498.001953125 l 2
 261.283203125 471.334960938 254.283203125 448.16796875 248.616210938 428.500976562 c 0
 242.94921875 408.833984375 234.44921875 379.666992188 223.116210938 341 c 0
 211.783203125 302.333007812 203.116210938 273 197.116210938 253 c 0
 189.116210938 225 180.44921875 196.166992188 171.116210938 166.5 c 0
 161.783203125 136.833007812 154.450195312 113.5 149.1171875 96.5 c 0
 143.784179688 79.5 140.451171875 67 139.118164062 59 c 0
EndSplineSet
Validated: 524289
EndChar

StartChar: N
Encoding: 78 78 57
Width: 590
GlyphClass: 2
Flags: W
HStem: -12.0664 21G<97.3252 103.606>
LayerCount: 2
Fore
SplineSet
450.356445312 -14 m 0
 438.356445312 -14.6669921875 429.182617188 -12.5029296875 422.849609375 -7.5029296875 c 0
 416.516601562 -2.5029296875 412.68359375 4.330078125 411.350585938 12.9970703125 c 0
 408.68359375 26.330078125 400.516601562 55.6630859375 386.849609375 100.99609375 c 0
 373.182617188 146.329101562 359.182617188 193.49609375 344.849609375 242.49609375 c 0
 330.516601562 291.49609375 316.18359375 346.329101562 301.850585938 406.99609375 c 0
 287.517578125 467.663085938 278.350585938 519.330078125 274.350585938 561.997070312 c 1
 261.017578125 489.330078125 246.684570312 421.663085938 231.3515625 358.99609375 c 0
 216.018554688 296.329101562 199.8515625 232.49609375 182.8515625 167.49609375 c 0
 165.8515625 102.49609375 156.018554688 62.99609375 153.3515625 48.99609375 c 0
 149.3515625 27.6630859375 141.8515625 11.99609375 130.8515625 1.99609375 c 0
 120.5390625 -7.37890625 109.495117188 -12.06640625 97.7177734375 -12.06640625 c 0
 96.9326171875 -12.06640625 96.1435546875 -12.0458984375 95.3515625 -12.00390625 c 0
 82.6845703125 -12.00390625 75.3515625 -6.3369140625 73.3515625 4.99609375 c 0
 72.751953125 8.396484375 72.451171875 12.2763671875 72.451171875 16.63671875 c 0
 72.451171875 26.8095703125 74.0849609375 39.5966796875 77.3515625 54.99609375 c 0
 80.0185546875 68.3291015625 92.685546875 119.99609375 115.352539062 209.99609375 c 0
 138.01953125 299.99609375 157.686523438 378.663085938 174.353515625 445.99609375 c 0
 191.020507812 513.329101562 205.353515625 577.99609375 217.353515625 639.99609375 c 0
 219.353515625 653.329101562 223.353515625 664.662109375 229.353515625 673.995117188 c 0
 235.353515625 683.328125 242.353515625 690.161132812 250.353515625 694.494140625 c 0
 258.353515625 698.827148438 266.353515625 701.827148438 274.353515625 703.494140625 c 0
 282.353515625 705.161132812 290.020507812 705.328125 297.353515625 703.995117188 c 0
 324.686523438 703.995117188 339.01953125 691.662109375 340.352539062 666.995117188 c 0
 343.01953125 622.995117188 360.186523438 541.995117188 391.853515625 423.995117188 c 0
 423.520507812 305.995117188 451.353515625 210.662109375 475.353515625 137.995117188 c 1
 492.020507812 200.662109375 513.6875 291.829101562 540.354492188 411.49609375 c 0
 567.021484375 531.163085938 582.354492188 609.99609375 586.354492188 647.99609375 c 0
 588.354492188 663.99609375 594.521484375 677.49609375 604.854492188 688.49609375 c 0
 615.1875 699.49609375 626.354492188 704.99609375 638.354492188 704.99609375 c 0
 645.021484375 704.99609375 650.688476562 704.163085938 655.35546875 702.49609375 c 0
 660.022460938 700.829101562 663.522460938 698.829101562 665.85546875 696.49609375 c 0
 668.188476562 694.163085938 669.688476562 690.330078125 670.35546875 684.997070312 c 0
 671.022460938 679.6640625 671.189453125 674.831054688 670.856445312 670.498046875 c 0
 670.5234375 666.165039062 670.0234375 659.33203125 669.356445312 649.999023438 c 0
 668.689453125 639.33203125 657.356445312 585.83203125 635.356445312 489.499023438 c 0
 613.356445312 393.166015625 589.189453125 293.333007812 562.856445312 190 c 0
 536.5234375 86.6669921875 518.0234375 27 507.356445312 11 c 0
 497.356445312 -5.6669921875 478.356445312 -14 450.356445312 -14 c 0
EndSplineSet
Validated: 524289
EndChar

StartChar: O
Encoding: 79 79 58
Width: 590
GlyphClass: 2
Flags: HMW
HStem: -24 83.998<268.035 269.039> 636.997 81.001<457.037 468.703>
LayerCount: 2
Fore
SplineSet
256.372070312 -24 m 0
 218.372070312 -23.3330078125 187.03515625 -10.8349609375 162.368164062 13.498046875 c 0
 137.701171875 37.8310546875 121.868164062 70.498046875 114.868164062 111.498046875 c 0
 112.2890625 126.603515625 111 142.228515625 111 158.375 c 0
 111 186.053710938 114.7890625 215.260742188 122.368164062 245.998046875 c 0
 123.03515625 249.331054688 124.368164062 254.998046875 126.368164062 262.998046875 c 0
 133.03515625 292.998046875 138.702148438 316.998046875 143.369140625 334.998046875 c 0
 148.036132812 352.998046875 154.869140625 376.998046875 163.869140625 406.998046875 c 0
 172.869140625 436.998046875 183.036132812 465.498046875 194.369140625 492.498046875 c 0
 205.702148438 519.498046875 218.369140625 544.998046875 232.369140625 568.998046875 c 0
 258.369140625 612.331054688 294.202148438 647.998046875 339.869140625 675.998046875 c 0
 385.536132812 703.998046875 432.703125 717.998046875 481.370117188 717.998046875 c 0
 506.037109375 717.998046875 528.704101562 712.831054688 549.37109375 702.498046875 c 0
 570.038085938 692.165039062 587.205078125 677.33203125 600.872070312 657.999023438 c 0
 614.5390625 638.666015625 623.872070312 613.999023438 628.872070312 583.999023438 c 0
 631.291015625 569.483398438 632.500976562 554.108398438 632.500976562 537.875976562 c 0
 632.500976562 520.560546875 631.125 502.267578125 628.372070312 482.999023438 c 0
 623.0390625 449.666015625 616.206054688 413.999023438 607.873046875 375.999023438 c 0
 599.540039062 337.999023438 589.540039062 299.499023438 577.873046875 260.499023438 c 0
 566.206054688 221.499023438 555.0390625 190.666015625 544.372070312 167.999023438 c 0
 529.705078125 136.666015625 513.705078125 109.666015625 496.372070312 86.9990234375 c 0
 479.0390625 64.33203125 461.5390625 45.83203125 443.872070312 31.4990234375 c 0
 426.205078125 17.166015625 407.038085938 5.8330078125 386.37109375 -2.5 c 0
 365.704101562 -10.8330078125 345.204101562 -16.5 324.87109375 -19.5 c 0
 304.538085938 -22.5 281.705078125 -24 256.372070312 -24 c 0
275.368164062 59.998046875 m 0
 292.03515625 59.998046875 308.702148438 62.1650390625 325.369140625 66.498046875 c 0
 342.036132812 70.8310546875 358.369140625 77.8310546875 374.369140625 87.498046875 c 0
 390.369140625 97.1650390625 405.869140625 109.998046875 420.869140625 125.998046875 c 0
 435.869140625 141.998046875 448.702148438 160.665039062 459.369140625 181.998046875 c 0
 463.369140625 190.665039062 470.536132812 210.665039062 480.869140625 241.998046875 c 0
 491.202148438 273.331054688 502.03515625 310.6640625 513.368164062 353.997070312 c 0
 524.701171875 397.330078125 533.701171875 439.997070312 540.368164062 481.997070312 c 0
 542.30078125 494.750976562 543.266601562 506.903320312 543.266601562 518.453125 c 0
 543.266601562 546.748046875 537.467773438 571.4296875 525.869140625 592.497070312 c 0
 509.536132812 622.1640625 485.036132812 636.997070312 452.369140625 636.997070312 c 0
 419.036132812 636.997070312 388.036132812 623.830078125 359.369140625 597.497070312 c 0
 330.702148438 571.1640625 305.702148438 534.331054688 284.369140625 486.998046875 c 0
 255.702148438 423.665039062 233.03515625 348.665039062 216.368164062 261.998046875 c 0
 212.368164062 240.665039062 209.53515625 220.998046875 207.868164062 202.998046875 c 0
 206.826171875 191.749023438 206.305664062 180.499023438 206.305664062 169.25 c 0
 206.305664062 162.499023438 206.493164062 155.749023438 206.868164062 148.998046875 c 0
 207.868164062 130.998046875 210.701171875 115.498046875 215.368164062 102.498046875 c 0
 220.03515625 89.498046875 227.53515625 79.1650390625 237.868164062 71.498046875 c 0
 248.201171875 63.8310546875 260.701171875 59.998046875 275.368164062 59.998046875 c 0
EndSplineSet
Validated: 524289
EndChar

StartChar: P
Encoding: 80 80 59
Width: 590
GlyphClass: 2
Flags: HMW
HStem: 230.001 82<327.197 336.197 327.197 352.863> 630.003 80.998<423.529 474.196>
LayerCount: 2
Fore
SplineSet
188.198242188 24 m 0
 185.53125 10 177.694335938 -0.830078125 164.694335938 -8.4970703125 c 0
 152.734375 -15.55078125 140.633789062 -19.0771484375 128.392578125 -19.0771484375 c 0
 127.327148438 -19.0771484375 126.26171875 -19.05078125 125.194335938 -18.9970703125 c 0
 111.861328125 -18.9970703125 102.028320312 -14.830078125 95.6953125 -6.4970703125 c 0
 92.2578125 -1.9736328125 90.5380859375 3.6796875 90.5380859375 10.462890625 c 0
 90.5380859375 16.17578125 91.7578125 22.6884765625 94.1953125 30.0029296875 c 0
 96.8623046875 40.669921875 100.862304688 56.5029296875 106.1953125 77.5029296875 c 0
 111.528320312 98.5029296875 117.528320312 124.502929688 124.1953125 155.502929688 c 0
 130.862304688 186.502929688 137.1953125 216.502929688 143.1953125 245.502929688 c 0
 149.1953125 274.502929688 156.528320312 310.002929688 165.1953125 352.002929688 c 0
 173.862304688 394.002929688 181.1953125 429.002929688 187.1953125 457.002929688 c 0
 196.528320312 500.3359375 210.1953125 557.668945312 228.1953125 629.001953125 c 1
 224.1953125 634.001953125 l 2
 221.528320312 642.001953125 221.861328125 650.168945312 225.194335938 658.501953125 c 0
 228.52734375 666.834960938 233.52734375 674.334960938 240.194335938 681.001953125 c 0
 246.861328125 687.668945312 253.528320312 691.668945312 260.1953125 693.001953125 c 0
 284.1953125 698.334960938 318.1953125 702.66796875 362.1953125 706.000976562 c 0
 406.1953125 709.333984375 436.528320312 711.000976562 453.1953125 711.000976562 c 0
 495.1953125 711.000976562 530.862304688 703.000976562 560.1953125 687.000976562 c 0
 589.528320312 671.000976562 610.1953125 646.833984375 622.1953125 614.500976562 c 0
 628.9453125 596.313476562 632.3203125 576.174804688 632.3203125 554.0859375 c 0
 632.3203125 536.904296875 630.278320312 518.54296875 626.1953125 499.000976562 c 0
 617.528320312 461.66796875 603.6953125 426.500976562 584.6953125 393.500976562 c 0
 565.6953125 360.500976562 543.6953125 332.000976562 518.6953125 308.000976562 c 0
 493.6953125 284.000976562 465.362304688 265.000976562 433.6953125 251.000976562 c 0
 402.028320312 237.000976562 369.528320312 230.000976562 336.1953125 230.000976562 c 0
 287.528320312 230.000976562 250.1953125 233.66796875 224.1953125 241.000976562 c 1
 218.862304688 213.000976562 214.029296875 186.16796875 209.696289062 160.500976562 c 0
 205.36328125 134.833984375 201.030273438 108.166992188 196.697265625 80.5 c 0
 192.364257812 52.8330078125 189.53125 34 188.198242188 24 c 0
434.194335938 630.002929688 m 0
 412.861328125 630.002929688 373.194335938 627.333984375 315.194335938 622.000976562 c 1
 311.861328125 608.66796875 305.528320312 584.000976562 296.1953125 548.000976562 c 0
 286.862304688 512.000976562 277.529296875 475.000976562 268.196289062 437.000976562 c 0
 258.86328125 399.000976562 250.196289062 362.000976562 242.196289062 326.000976562 c 1
 263.446289062 316.625976562 289.67578125 311.938476562 320.885742188 311.938476562 c 0
 322.966796875 311.938476562 325.0703125 311.958984375 327.196289062 312.000976562 c 0
 345.196289062 312.000976562 361.86328125 313.333984375 377.196289062 316.000976562 c 0
 392.529296875 318.66796875 406.196289062 322.334960938 418.196289062 327.001953125 c 0
 430.196289062 331.668945312 441.529296875 337.8359375 452.196289062 345.502929688 c 0
 462.86328125 353.169921875 471.86328125 360.836914062 479.196289062 368.50390625 c 0
 486.529296875 376.170898438 493.362304688 385.170898438 499.6953125 395.50390625 c 0
 506.028320312 405.836914062 511.1953125 415.169921875 515.1953125 423.502929688 c 0
 519.1953125 431.8359375 523.028320312 441.502929688 526.6953125 452.502929688 c 0
 530.362304688 463.502929688 533.1953125 472.502929688 535.1953125 479.502929688 c 0
 537.1953125 486.502929688 539.528320312 495.002929688 542.1953125 505.002929688 c 0
 544.595703125 516.203125 545.795898438 526.743164062 545.795898438 536.623046875 c 0
 545.795898438 543.209960938 545.26171875 549.502929688 544.1953125 555.502929688 c 0
 541.528320312 570.502929688 536.361328125 582.502929688 528.694335938 591.502929688 c 0
 521.02734375 600.502929688 511.694335938 608.002929688 500.694335938 614.002929688 c 0
 489.694335938 620.002929688 478.52734375 624.169921875 467.194335938 626.502929688 c 0
 455.861328125 628.8359375 444.861328125 630.002929688 434.194335938 630.002929688 c 0
EndSplineSet
Validated: 524289
EndChar

StartChar: Q
Encoding: 81 81 60
Width: 590
GlyphClass: 2
Flags: HMW
HStem: -23.9961 84.002<263.707 307.707> 637.005 80.9971<455.375 467.04>
LayerCount: 2
Fore
SplineSet
456.708007812 -206 m 0
 449.154296875 -210.443359375 441.749023438 -212.6640625 434.491210938 -212.6640625 c 0
 430.859375 -212.6640625 427.264648438 -212.107421875 423.70703125 -210.99609375 c 0
 413.040039062 -207.663085938 404.70703125 -199.99609375 398.70703125 -187.99609375 c 0
 392.70703125 -175.99609375 383.20703125 -153.663085938 370.20703125 -120.99609375 c 0
 357.20703125 -88.3291015625 344.70703125 -54.99609375 332.70703125 -20.99609375 c 1
 319.374023438 -23.1298828125 304.975585938 -24.1962890625 289.510742188 -24.1962890625 c 0
 285.642578125 -24.1962890625 281.708007812 -24.1298828125 277.70703125 -23.99609375 c 0
 249.70703125 -23.99609375 225.374023438 -19.3291015625 204.70703125 -9.99609375 c 0
 184.040039062 -0.6630859375 167.040039062 12.3369140625 153.70703125 29.00390625 c 0
 140.374023438 45.6708984375 130.20703125 65.50390625 123.20703125 88.50390625 c 0
 115.797851562 112.848632812 112.180664062 138.78515625 112.180664062 166.670898438 c 0
 112.180664062 191.768554688 115.022460938 218.212890625 120.70703125 246.002929688 c 0
 146.040039062 375.3359375 182.70703125 481.668945312 230.70703125 565.001953125 c 0
 256.70703125 609.001953125 292.540039062 645.501953125 338.20703125 674.501953125 c 0
 383.874023438 703.501953125 431.041015625 718.001953125 479.708007812 718.001953125 c 0
 505.041015625 718.001953125 527.708007812 713.334960938 547.708007812 704.001953125 c 0
 567.708007812 694.668945312 584.541015625 681.001953125 598.208007812 663.001953125 c 0
 611.875 645.001953125 621.208007812 620.668945312 626.208007812 590.001953125 c 0
 628.626953125 575.163085938 629.836914062 559.154296875 629.836914062 541.974609375 c 0
 629.836914062 523.6484375 628.4609375 503.991210938 625.708007812 483.000976562 c 0
 619.708007812 437.000976562 608.375 380.833984375 591.708007812 314.500976562 c 0
 575.041015625 248.16796875 559.374023438 197.66796875 544.70703125 163.000976562 c 0
 514.70703125 91.0009765625 472.374023438 39.66796875 417.70703125 9.0009765625 c 1
 425.70703125 -10.33203125 434.374023438 -29.9990234375 443.70703125 -49.9990234375 c 0
 453.040039062 -69.9990234375 462.040039062 -88.666015625 470.70703125 -105.999023438 c 0
 479.374023438 -123.33203125 485.374023438 -134.999023438 488.70703125 -140.999023438 c 0
 491.374023438 -148.33203125 491.041015625 -156.33203125 487.708007812 -164.999023438 c 0
 484.375 -173.666015625 479.708007812 -181.833007812 473.708007812 -189.5 c 0
 467.708007812 -197.166992188 462.041015625 -202.666992188 456.708007812 -206 c 0
214.70703125 262.004882812 m 0
 210.666992188 238.974609375 208.646484375 217.353515625 208.646484375 197.139648438 c 0
 208.646484375 184 209.5 171.456054688 211.20703125 159.505859375 c 0
 215.540039062 129.172851562 225.040039062 105.005859375 239.70703125 87.005859375 c 0
 254.374023438 69.005859375 273.70703125 60.005859375 297.70703125 60.005859375 c 2
 307.70703125 60.005859375 l 1
 299.70703125 90.005859375 294.374023438 113.338867188 291.70703125 130.005859375 c 0
 290.928710938 136.561523438 290.540039062 142.802734375 290.540039062 148.729492188 c 0
 290.540039062 178.358398438 300.26171875 200.1171875 319.706054688 214.005859375 c 0
 326.373046875 218.672851562 333.040039062 221.505859375 339.70703125 222.505859375 c 0
 346.374023438 223.505859375 352.20703125 221.505859375 357.20703125 216.505859375 c 0
 362.20703125 211.505859375 365.040039062 204.005859375 365.70703125 194.005859375 c 0
 369.040039062 160.672851562 377.040039062 124.33984375 389.70703125 85.0068359375 c 1
 421.040039062 104.33984375 445.70703125 135.33984375 463.70703125 178.006835938 c 0
 467.70703125 188.006835938 474.20703125 208.173828125 483.20703125 238.506835938 c 0
 492.20703125 268.83984375 502.374023438 306.672851562 513.70703125 352.005859375 c 0
 525.040039062 397.338867188 533.373046875 440.671875 538.706054688 482.004882812 c 0
 540.342773438 494.9140625 541.16015625 507.103515625 541.16015625 518.575195312 c 0
 541.16015625 549.1640625 535.342773438 574.641601562 523.706054688 595.004882812 c 0
 507.706054688 623.004882812 483.373046875 637.004882812 450.706054688 637.004882812 c 0
 416.706054688 637.004882812 385.206054688 624.004882812 356.206054688 598.004882812 c 0
 327.206054688 572.004882812 302.373046875 535.671875 281.706054688 489.004882812 c 0
 250.373046875 419.671875 228.040039062 344.004882812 214.70703125 262.004882812 c 0
EndSplineSet
Validated: 524289
EndChar

